<mxfile host="app.diagrams.net" modified="2024-10-11T07:03:39.942Z" agent="Mozilla/5.0 (Windows NT 10.0; Win64; x64; rv:130.0) Gecko/20100101 Firefox/130.0" etag="cEESxfB8qf6jKB-VUF4M" version="24.6.5" type="device">
  <diagram name="Page-1" id="WVX51mQkE81sazq5Rgr0">
    <mxGraphModel dx="3291" dy="2174" grid="1" gridSize="10" guides="1" tooltips="1" connect="1" arrows="1" fold="1" page="1" pageScale="1" pageWidth="850" pageHeight="1100" math="0" shadow="0">
      <root>
        <mxCell id="0" />
        <mxCell id="1" parent="0" />
        <mxCell id="_wyRR_9sv9Ona-ReKIE4-1" value="" style="group;strokeWidth=3;fillColor=none;" vertex="1" connectable="0" parent="1">
          <mxGeometry x="-790" y="-60" width="5260" height="2870.0027777777777" as="geometry" />
        </mxCell>
        <mxCell id="_wyRR_9sv9Ona-ReKIE4-2" style="edgeStyle=orthogonalEdgeStyle;rounded=0;orthogonalLoop=1;jettySize=auto;html=1;exitX=0.5;exitY=1;exitDx=0;exitDy=0;entryX=0.5;entryY=0;entryDx=0;entryDy=0;" edge="1" parent="_wyRR_9sv9Ona-ReKIE4-1" source="_wyRR_9sv9Ona-ReKIE4-5" target="_wyRR_9sv9Ona-ReKIE4-197">
          <mxGeometry relative="1" as="geometry" />
        </mxCell>
        <mxCell id="_wyRR_9sv9Ona-ReKIE4-3" style="edgeStyle=orthogonalEdgeStyle;rounded=0;orthogonalLoop=1;jettySize=auto;html=1;exitX=0.5;exitY=1;exitDx=0;exitDy=0;entryX=0.5;entryY=0;entryDx=0;entryDy=0;" edge="1" parent="_wyRR_9sv9Ona-ReKIE4-1" source="_wyRR_9sv9Ona-ReKIE4-5" target="_wyRR_9sv9Ona-ReKIE4-221">
          <mxGeometry relative="1" as="geometry">
            <Array as="points">
              <mxPoint x="2149" y="450" />
              <mxPoint x="2733" y="450" />
            </Array>
          </mxGeometry>
        </mxCell>
        <mxCell id="_wyRR_9sv9Ona-ReKIE4-4" style="edgeStyle=orthogonalEdgeStyle;rounded=0;orthogonalLoop=1;jettySize=auto;html=1;exitX=0.5;exitY=1;exitDx=0;exitDy=0;entryX=0.5;entryY=0;entryDx=0;entryDy=0;" edge="1" parent="_wyRR_9sv9Ona-ReKIE4-1" source="_wyRR_9sv9Ona-ReKIE4-5" target="_wyRR_9sv9Ona-ReKIE4-201">
          <mxGeometry relative="1" as="geometry" />
        </mxCell>
        <UserObject label="Rifle Aquisition" lucidchartObjectId=".nZdTzukBXGk" id="_wyRR_9sv9Ona-ReKIE4-5">
          <mxCell style="html=1;overflow=block;blockSpacing=1;whiteSpace=wrap;;whiteSpace=wrap;fontSize=13;fontColor=#333333;align=center;spacing=9;strokeColor=#333333;strokeOpacity=100;fillOpacity=100;rounded=1;absoluteArcSize=1;arcSize=12;fillColor=#ffffff;strokeWidth=0.8;" vertex="1" parent="_wyRR_9sv9Ona-ReKIE4-1">
            <mxGeometry x="2084.5585215605747" y="305.79166666666663" width="129.60985626283366" height="102.5" as="geometry" />
          </mxCell>
        </UserObject>
        <UserObject label="Rifle Aquisition: IWI Tavor" lucidchartObjectId="wpZdP2hJwvBx" id="_wyRR_9sv9Ona-ReKIE4-6">
          <mxCell style="html=1;overflow=block;blockSpacing=1;whiteSpace=wrap;;whiteSpace=wrap;fontSize=13;fontColor=#333333;align=center;spacing=9;strokeColor=#333333;strokeOpacity=100;fillOpacity=100;rounded=1;absoluteArcSize=1;arcSize=12;fillColor=#ffffff;strokeWidth=0.8;" vertex="1" parent="_wyRR_9sv9Ona-ReKIE4-1">
            <mxGeometry x="1760.5338809034906" y="484.02777777777777" width="129.60985626283366" height="102.5" as="geometry" />
          </mxCell>
        </UserObject>
        <UserObject label="Rifle Aquisition: M4 Carbine" lucidchartObjectId="ypZdUCTsFTgk" id="_wyRR_9sv9Ona-ReKIE4-7">
          <mxCell style="html=1;overflow=block;blockSpacing=1;whiteSpace=wrap;;whiteSpace=wrap;fontSize=13;fontColor=#333333;align=center;spacing=9;strokeColor=#333333;strokeOpacity=100;fillOpacity=100;rounded=1;absoluteArcSize=1;arcSize=12;fillColor=#ffffff;strokeWidth=0.8;" vertex="1" parent="_wyRR_9sv9Ona-ReKIE4-1">
            <mxGeometry x="1890.1437371663242" y="484.02777777777777" width="129.60985626283366" height="102.5" as="geometry" />
          </mxCell>
        </UserObject>
        <UserObject label="Rifle Aquisition: AK-12" lucidchartObjectId="DpZdWLfwVPbR" id="_wyRR_9sv9Ona-ReKIE4-8">
          <mxCell style="html=1;overflow=block;blockSpacing=1;whiteSpace=wrap;;whiteSpace=wrap;fontSize=13;fontColor=#333333;align=center;spacing=9;strokeColor=#333333;strokeOpacity=100;fillOpacity=100;rounded=1;absoluteArcSize=1;arcSize=12;fillColor=#ffffff;strokeWidth=0.8;" vertex="1" parent="_wyRR_9sv9Ona-ReKIE4-1">
            <mxGeometry x="2019.753593429158" y="484.02777777777777" width="129.60985626283366" height="102.5" as="geometry" />
          </mxCell>
        </UserObject>
        <mxCell id="_wyRR_9sv9Ona-ReKIE4-9" style="edgeStyle=orthogonalEdgeStyle;rounded=0;orthogonalLoop=1;jettySize=auto;html=1;exitX=0.5;exitY=1;exitDx=0;exitDy=0;entryX=0.5;entryY=0;entryDx=0;entryDy=0;" edge="1" parent="_wyRR_9sv9Ona-ReKIE4-1" source="_wyRR_9sv9Ona-ReKIE4-10" target="_wyRR_9sv9Ona-ReKIE4-190">
          <mxGeometry relative="1" as="geometry" />
        </mxCell>
        <UserObject label="Rifle Aquisition: HK416" lucidchartObjectId="HpZdMb7RdRQD" id="_wyRR_9sv9Ona-ReKIE4-10">
          <mxCell style="html=1;overflow=block;blockSpacing=1;whiteSpace=wrap;;whiteSpace=wrap;fontSize=13;fontColor=#333333;align=center;spacing=9;strokeColor=#333333;strokeOpacity=100;fillOpacity=100;rounded=1;absoluteArcSize=1;arcSize=12;fillColor=#ffffff;strokeWidth=0.8;" vertex="1" parent="_wyRR_9sv9Ona-ReKIE4-1">
            <mxGeometry x="2149.3634496919917" y="484.02777777777777" width="129.60985626283366" height="102.5" as="geometry" />
          </mxCell>
        </UserObject>
        <mxCell id="_wyRR_9sv9Ona-ReKIE4-11" style="edgeStyle=orthogonalEdgeStyle;rounded=0;orthogonalLoop=1;jettySize=auto;html=1;exitX=0.5;exitY=1;exitDx=0;exitDy=0;" edge="1" parent="_wyRR_9sv9Ona-ReKIE4-1" source="_wyRR_9sv9Ona-ReKIE4-12" target="_wyRR_9sv9Ona-ReKIE4-236">
          <mxGeometry relative="1" as="geometry" />
        </mxCell>
        <UserObject label="&lt;div style=&quot;display: flex; justify-content: center; text-align: center; align-items: baseline; font-size: 0; line-height: 1.25;margin-top: -2px;&quot;&gt;&lt;span&gt;&lt;span style=&quot;font-size:13px;color:#333333;&quot;&gt;Rifle Aquisition: FX-05 &lt;/span&gt;&lt;span style=&quot;font-size:12.8px;color:#000000;&quot;&gt;Xiuhcoatl&lt;/span&gt;&lt;/span&gt;&lt;/div&gt;" lucidchartObjectId="KpZdOzohRT-l" id="_wyRR_9sv9Ona-ReKIE4-12">
          <mxCell style="html=1;overflow=block;blockSpacing=1;whiteSpace=wrap;;whiteSpace=wrap;fontSize=13;spacing=9;strokeColor=#333333;strokeOpacity=100;fillOpacity=100;rounded=1;absoluteArcSize=1;arcSize=12;fillColor=#ffffff;strokeWidth=0.8;" vertex="1" parent="_wyRR_9sv9Ona-ReKIE4-1">
            <mxGeometry x="2278.9733059548253" y="484.02777777777777" width="129.60985626283366" height="102.5" as="geometry" />
          </mxCell>
        </UserObject>
        <UserObject label="Rifle Aquisition: FN SCAR-L" lucidchartObjectId="OpZdpQtUeUHU" id="_wyRR_9sv9Ona-ReKIE4-13">
          <mxCell style="html=1;overflow=block;blockSpacing=1;whiteSpace=wrap;;whiteSpace=wrap;fontSize=13;fontColor=#333333;align=center;spacing=9;strokeColor=#333333;strokeOpacity=100;fillOpacity=100;rounded=1;absoluteArcSize=1;arcSize=12;fillColor=#ffffff;strokeWidth=0.8;" vertex="1" parent="_wyRR_9sv9Ona-ReKIE4-1">
            <mxGeometry x="2408.583162217659" y="484.02777777777777" width="129.60985626283366" height="102.5" as="geometry" />
          </mxCell>
        </UserObject>
        <UserObject label="" lucidchartObjectId="QvZdIoXNtZzA" id="_wyRR_9sv9Ona-ReKIE4-14">
          <mxCell style="html=1;jettySize=18;whiteSpace=wrap;fontSize=13;strokeColor=#333333;strokeOpacity=100;strokeWidth=0.8;rounded=1;arcSize=24;edgeStyle=orthogonalEdgeStyle;startArrow=none;;endArrow=block;endFill=1;;exitX=0.5;exitY=1.004;exitPerimeter=0;entryX=0.5;entryY=-0.004;entryPerimeter=0;" edge="1" parent="_wyRR_9sv9Ona-ReKIE4-1" source="_wyRR_9sv9Ona-ReKIE4-5" target="_wyRR_9sv9Ona-ReKIE4-8">
            <mxGeometry width="100" height="100" relative="1" as="geometry">
              <Array as="points" />
            </mxGeometry>
          </mxCell>
        </UserObject>
        <UserObject label="" lucidchartObjectId="EwZdCx0tgdpZ" id="_wyRR_9sv9Ona-ReKIE4-15">
          <mxCell style="html=1;jettySize=18;whiteSpace=wrap;fontSize=13;strokeColor=#333333;strokeOpacity=100;strokeWidth=0.8;rounded=1;arcSize=24;edgeStyle=orthogonalEdgeStyle;startArrow=none;;endArrow=block;endFill=1;;exitX=0.5;exitY=1.004;exitPerimeter=0;entryX=0.494;entryY=-0.004;entryPerimeter=0;" edge="1" parent="_wyRR_9sv9Ona-ReKIE4-1" source="_wyRR_9sv9Ona-ReKIE4-5" target="_wyRR_9sv9Ona-ReKIE4-10">
            <mxGeometry width="100" height="100" relative="1" as="geometry">
              <Array as="points" />
            </mxGeometry>
          </mxCell>
        </UserObject>
        <UserObject label="" lucidchartObjectId="XwZdVSiIm4dq" id="_wyRR_9sv9Ona-ReKIE4-16">
          <mxCell style="html=1;jettySize=18;whiteSpace=wrap;fontSize=13;strokeColor=#333333;strokeOpacity=100;strokeWidth=0.8;rounded=1;arcSize=24;edgeStyle=orthogonalEdgeStyle;startArrow=none;;endArrow=block;endFill=1;;exitX=0.5;exitY=1.004;exitPerimeter=0;entryX=0.5;entryY=-0.004;entryPerimeter=0;" edge="1" parent="_wyRR_9sv9Ona-ReKIE4-1" source="_wyRR_9sv9Ona-ReKIE4-5" target="_wyRR_9sv9Ona-ReKIE4-12">
            <mxGeometry width="100" height="100" relative="1" as="geometry">
              <Array as="points" />
            </mxGeometry>
          </mxCell>
        </UserObject>
        <UserObject label="" lucidchartObjectId="nxZdc6QLQ7qf" id="_wyRR_9sv9Ona-ReKIE4-17">
          <mxCell style="html=1;jettySize=18;whiteSpace=wrap;fontSize=13;strokeColor=#333333;strokeOpacity=100;strokeWidth=0.8;rounded=1;arcSize=24;edgeStyle=orthogonalEdgeStyle;startArrow=none;;endArrow=block;endFill=1;;exitX=0.5;exitY=1.004;exitPerimeter=0;entryX=0.5;entryY=-0.004;entryPerimeter=0;" edge="1" parent="_wyRR_9sv9Ona-ReKIE4-1" source="_wyRR_9sv9Ona-ReKIE4-5" target="_wyRR_9sv9Ona-ReKIE4-7">
            <mxGeometry width="100" height="100" relative="1" as="geometry">
              <Array as="points" />
            </mxGeometry>
          </mxCell>
        </UserObject>
        <UserObject label="" lucidchartObjectId="vxZd.s7_DAgI" id="_wyRR_9sv9Ona-ReKIE4-18">
          <mxCell style="html=1;jettySize=18;whiteSpace=wrap;fontSize=13;strokeColor=#333333;strokeOpacity=100;strokeWidth=0.8;rounded=1;arcSize=24;edgeStyle=orthogonalEdgeStyle;startArrow=none;;endArrow=block;endFill=1;;exitX=0.5;exitY=1.004;exitPerimeter=0;entryX=0.5;entryY=-0.004;entryPerimeter=0;" edge="1" parent="_wyRR_9sv9Ona-ReKIE4-1" source="_wyRR_9sv9Ona-ReKIE4-5" target="_wyRR_9sv9Ona-ReKIE4-13">
            <mxGeometry width="100" height="100" relative="1" as="geometry">
              <Array as="points" />
            </mxGeometry>
          </mxCell>
        </UserObject>
        <UserObject label="" lucidchartObjectId="AxZd3iUiCq7C" id="_wyRR_9sv9Ona-ReKIE4-19">
          <mxCell style="html=1;jettySize=18;whiteSpace=wrap;fontSize=13;strokeColor=#333333;strokeOpacity=100;strokeWidth=0.8;rounded=1;arcSize=24;edgeStyle=orthogonalEdgeStyle;startArrow=none;;endArrow=block;endFill=1;;exitX=0.5;exitY=1.004;exitPerimeter=0;entryX=0.5;entryY=-0.004;entryPerimeter=0;" edge="1" parent="_wyRR_9sv9Ona-ReKIE4-1" source="_wyRR_9sv9Ona-ReKIE4-5" target="_wyRR_9sv9Ona-ReKIE4-6">
            <mxGeometry width="100" height="100" relative="1" as="geometry">
              <Array as="points" />
            </mxGeometry>
          </mxCell>
        </UserObject>
        <mxCell id="_wyRR_9sv9Ona-ReKIE4-20" style="edgeStyle=orthogonalEdgeStyle;rounded=1;orthogonalLoop=1;jettySize=auto;html=1;exitX=0.5;exitY=1;exitDx=0;exitDy=0;" edge="1" parent="_wyRR_9sv9Ona-ReKIE4-1" source="_wyRR_9sv9Ona-ReKIE4-22" target="_wyRR_9sv9Ona-ReKIE4-176">
          <mxGeometry relative="1" as="geometry" />
        </mxCell>
        <mxCell id="_wyRR_9sv9Ona-ReKIE4-21" style="edgeStyle=orthogonalEdgeStyle;rounded=0;orthogonalLoop=1;jettySize=auto;html=1;exitX=0.5;exitY=1;exitDx=0;exitDy=0;entryX=0.5;entryY=0;entryDx=0;entryDy=0;" edge="1" parent="_wyRR_9sv9Ona-ReKIE4-1" source="_wyRR_9sv9Ona-ReKIE4-22" target="_wyRR_9sv9Ona-ReKIE4-185">
          <mxGeometry relative="1" as="geometry" />
        </mxCell>
        <mxCell id="_wyRR_9sv9Ona-ReKIE4-402" style="edgeStyle=orthogonalEdgeStyle;rounded=0;orthogonalLoop=1;jettySize=auto;html=1;exitX=0.5;exitY=1;exitDx=0;exitDy=0;entryX=0.5;entryY=0;entryDx=0;entryDy=0;" edge="1" parent="_wyRR_9sv9Ona-ReKIE4-1" source="_wyRR_9sv9Ona-ReKIE4-22" target="_wyRR_9sv9Ona-ReKIE4-204">
          <mxGeometry relative="1" as="geometry" />
        </mxCell>
        <UserObject label="Equipment Aquisition" lucidchartObjectId="AEZdzTns~rJW" id="_wyRR_9sv9Ona-ReKIE4-22">
          <mxCell style="html=1;overflow=block;blockSpacing=1;whiteSpace=wrap;rhombus;whiteSpace=wrap;fontSize=13;fontColor=#333333;align=center;spacing=9;strokeColor=#333333;strokeOpacity=100;fillOpacity=100;rounded=1;absoluteArcSize=1;arcSize=12;fillColor=#ffffff;strokeWidth=0.8;" vertex="1" parent="_wyRR_9sv9Ona-ReKIE4-1">
            <mxGeometry x="2181.7659137577" y="68.33333333333333" width="129.60985626283366" height="102.5" as="geometry" />
          </mxCell>
        </UserObject>
        <UserObject label="" lucidchartObjectId="NEZd5W1DCkiB" id="_wyRR_9sv9Ona-ReKIE4-23">
          <mxCell style="html=1;jettySize=18;whiteSpace=wrap;fontSize=13;strokeColor=#333333;strokeOpacity=100;strokeWidth=2.3;rounded=1;arcSize=24;edgeStyle=orthogonalEdgeStyle;startArrow=none;;endArrow=block;endFill=1;;exitX=0.5;exitY=0.98;exitPerimeter=0;entryX=0.5;entryY=-0.004;entryPerimeter=0;" edge="1" parent="_wyRR_9sv9Ona-ReKIE4-1" source="_wyRR_9sv9Ona-ReKIE4-22" target="_wyRR_9sv9Ona-ReKIE4-5">
            <mxGeometry width="100" height="100" relative="1" as="geometry">
              <Array as="points" />
            </mxGeometry>
          </mxCell>
        </UserObject>
        <UserObject label="Sniper Rifle Aquisition" lucidchartObjectId="wFZdonkYxjsh" id="_wyRR_9sv9Ona-ReKIE4-24">
          <mxCell style="html=1;overflow=block;blockSpacing=1;whiteSpace=wrap;;whiteSpace=wrap;fontSize=13;fontColor=#333333;align=center;spacing=9;strokeColor=#333333;strokeOpacity=100;fillOpacity=100;rounded=1;absoluteArcSize=1;arcSize=12;fillColor=#ffffff;strokeWidth=0.8;" vertex="1" parent="_wyRR_9sv9Ona-ReKIE4-1">
            <mxGeometry x="3034.806570841889" y="301.8116666666666" width="129.60985626283366" height="102.5" as="geometry" />
          </mxCell>
        </UserObject>
        <UserObject label="Sniper Aquisition:&#xa;Accuracy International" lucidchartObjectId=".FZdUtw9KJ3a" id="_wyRR_9sv9Ona-ReKIE4-25">
          <mxCell style="html=1;overflow=block;blockSpacing=1;whiteSpace=wrap;;whiteSpace=wrap;fontSize=13;fontColor=#333333;align=center;spacing=9;strokeColor=#333333;strokeOpacity=100;fillOpacity=100;rounded=1;absoluteArcSize=1;arcSize=12;fillColor=#ffffff;strokeWidth=0.8;" vertex="1" parent="_wyRR_9sv9Ona-ReKIE4-1">
            <mxGeometry x="2970.001642710472" y="480.04777777777775" width="129.60985626283366" height="102.5" as="geometry" />
          </mxCell>
        </UserObject>
        <UserObject label="Sniper Aquisition: Heckler &amp; Koch" lucidchartObjectId="~HZdCM5_0xa3" id="_wyRR_9sv9Ona-ReKIE4-26">
          <mxCell style="html=1;overflow=block;blockSpacing=1;whiteSpace=wrap;;whiteSpace=wrap;fontSize=13;fontColor=#333333;align=center;spacing=9;strokeColor=#333333;strokeOpacity=100;fillOpacity=100;rounded=1;absoluteArcSize=1;arcSize=12;fillColor=#ffffff;strokeWidth=0.8;" vertex="1" parent="_wyRR_9sv9Ona-ReKIE4-1">
            <mxGeometry x="3099.611498973306" y="480.04777777777775" width="129.60985626283366" height="102.5" as="geometry" />
          </mxCell>
        </UserObject>
        <UserObject label="" lucidchartObjectId="CIZdazD75ilh" id="_wyRR_9sv9Ona-ReKIE4-27">
          <mxCell style="html=1;jettySize=18;whiteSpace=wrap;fontSize=13;strokeColor=#333333;strokeOpacity=100;strokeWidth=0.8;rounded=1;arcSize=24;edgeStyle=orthogonalEdgeStyle;startArrow=none;;endArrow=block;endFill=1;;exitX=0.5;exitY=1.004;exitPerimeter=0;entryX=0.506;entryY=-0.004;entryPerimeter=0;" edge="1" parent="_wyRR_9sv9Ona-ReKIE4-1" source="_wyRR_9sv9Ona-ReKIE4-24" target="_wyRR_9sv9Ona-ReKIE4-25">
            <mxGeometry width="100" height="100" relative="1" as="geometry">
              <Array as="points" />
            </mxGeometry>
          </mxCell>
        </UserObject>
        <UserObject label="" lucidchartObjectId="ZIZdZjh2DHgJ" id="_wyRR_9sv9Ona-ReKIE4-28">
          <mxCell style="html=1;jettySize=18;whiteSpace=wrap;fontSize=13;strokeColor=#333333;strokeOpacity=100;strokeWidth=0.8;rounded=1;arcSize=24;edgeStyle=orthogonalEdgeStyle;startArrow=none;;endArrow=block;endFill=1;;exitX=0.5;exitY=1.004;exitPerimeter=0;entryX=0.494;entryY=-0.004;entryPerimeter=0;" edge="1" parent="_wyRR_9sv9Ona-ReKIE4-1" source="_wyRR_9sv9Ona-ReKIE4-24" target="_wyRR_9sv9Ona-ReKIE4-26">
            <mxGeometry width="100" height="100" relative="1" as="geometry">
              <Array as="points" />
            </mxGeometry>
          </mxCell>
        </UserObject>
        <UserObject label="" lucidchartObjectId="5IZdWXKTfCLe" id="_wyRR_9sv9Ona-ReKIE4-29">
          <mxCell style="html=1;jettySize=18;whiteSpace=wrap;fontSize=13;strokeColor=#333333;strokeOpacity=100;strokeWidth=2.3;rounded=1;arcSize=24;edgeStyle=orthogonalEdgeStyle;startArrow=none;;endArrow=block;endFill=1;;exitX=0.5;exitY=0.98;exitPerimeter=0;entryX=0.5;entryY=-0.004;entryPerimeter=0;" edge="1" parent="_wyRR_9sv9Ona-ReKIE4-1" source="_wyRR_9sv9Ona-ReKIE4-22" target="_wyRR_9sv9Ona-ReKIE4-24">
            <mxGeometry width="100" height="100" relative="1" as="geometry">
              <Array as="points">
                <mxPoint x="2246" y="239" />
                <mxPoint x="3100" y="239" />
              </Array>
            </mxGeometry>
          </mxCell>
        </UserObject>
        <mxCell id="_wyRR_9sv9Ona-ReKIE4-30" style="edgeStyle=orthogonalEdgeStyle;rounded=0;orthogonalLoop=1;jettySize=auto;html=1;exitX=0.5;exitY=1;exitDx=0;exitDy=0;entryX=0.5;entryY=0;entryDx=0;entryDy=0;" edge="1" parent="_wyRR_9sv9Ona-ReKIE4-1" source="_wyRR_9sv9Ona-ReKIE4-32" target="_wyRR_9sv9Ona-ReKIE4-186">
          <mxGeometry relative="1" as="geometry" />
        </mxCell>
        <mxCell id="_wyRR_9sv9Ona-ReKIE4-31" style="edgeStyle=orthogonalEdgeStyle;rounded=0;orthogonalLoop=1;jettySize=auto;html=1;exitX=0.5;exitY=1;exitDx=0;exitDy=0;" edge="1" parent="_wyRR_9sv9Ona-ReKIE4-1" source="_wyRR_9sv9Ona-ReKIE4-32" target="_wyRR_9sv9Ona-ReKIE4-216">
          <mxGeometry relative="1" as="geometry" />
        </mxCell>
        <UserObject label="Shotgun Aquisition" lucidchartObjectId="NJZdjia7oByf" id="_wyRR_9sv9Ona-ReKIE4-32">
          <mxCell style="html=1;overflow=block;blockSpacing=1;whiteSpace=wrap;;whiteSpace=wrap;fontSize=13;fontColor=#333333;align=center;spacing=9;strokeColor=#333333;strokeOpacity=100;fillOpacity=100;rounded=1;absoluteArcSize=1;arcSize=12;fillColor=#ffffff;strokeWidth=0.8;" vertex="1" parent="_wyRR_9sv9Ona-ReKIE4-1">
            <mxGeometry x="1015.277207392197" y="307.5" width="129.60985626283366" height="102.5" as="geometry" />
          </mxCell>
        </UserObject>
        <UserObject label="Shotgun Acquisition: Reminton 870" lucidchartObjectId="aKZdjtdj7G8_" id="_wyRR_9sv9Ona-ReKIE4-33">
          <mxCell style="html=1;overflow=block;blockSpacing=1;whiteSpace=wrap;;whiteSpace=wrap;fontSize=13;fontColor=#333333;align=center;spacing=9;strokeColor=#333333;strokeOpacity=100;fillOpacity=100;rounded=1;absoluteArcSize=1;arcSize=12;fillColor=#ffffff;strokeWidth=0.8;" vertex="1" parent="_wyRR_9sv9Ona-ReKIE4-1">
            <mxGeometry x="799.9973511293634" y="484.02777777777777" width="129.60985626283366" height="102.5" as="geometry" />
          </mxCell>
        </UserObject>
        <UserObject label="" lucidchartObjectId="KKZd92wMXNar" id="_wyRR_9sv9Ona-ReKIE4-34">
          <mxCell style="html=1;jettySize=18;whiteSpace=wrap;fontSize=13;strokeColor=#333333;strokeOpacity=100;strokeWidth=0.8;rounded=1;arcSize=24;edgeStyle=orthogonalEdgeStyle;startArrow=none;;endArrow=block;endFill=1;;exitX=0.5;exitY=1.004;exitPerimeter=0;entryX=0.5;entryY=-0.004;entryPerimeter=0;" edge="1" parent="_wyRR_9sv9Ona-ReKIE4-1" source="_wyRR_9sv9Ona-ReKIE4-32" target="_wyRR_9sv9Ona-ReKIE4-33">
            <mxGeometry width="100" height="100" relative="1" as="geometry">
              <Array as="points" />
            </mxGeometry>
          </mxCell>
        </UserObject>
        <UserObject label="" lucidchartObjectId="MKZdWgNyRrsv" id="_wyRR_9sv9Ona-ReKIE4-35">
          <mxCell style="html=1;jettySize=18;whiteSpace=wrap;fontSize=13;strokeColor=#333333;strokeOpacity=100;strokeWidth=2.3;rounded=1;arcSize=24;edgeStyle=orthogonalEdgeStyle;startArrow=none;;endArrow=block;endFill=1;;exitX=0.5;exitY=0.98;exitPerimeter=0;entryX=0.5;entryY=-0.004;entryPerimeter=0;" edge="1" parent="_wyRR_9sv9Ona-ReKIE4-1" source="_wyRR_9sv9Ona-ReKIE4-22" target="_wyRR_9sv9Ona-ReKIE4-32">
            <mxGeometry width="100" height="100" relative="1" as="geometry">
              <Array as="points">
                <mxPoint x="2246.5708418891168" y="239.16666666666666" />
                <mxPoint x="1080.082135523614" y="239.16666666666666" />
              </Array>
            </mxGeometry>
          </mxCell>
        </UserObject>
        <mxCell id="_wyRR_9sv9Ona-ReKIE4-36" style="edgeStyle=orthogonalEdgeStyle;rounded=1;orthogonalLoop=1;jettySize=auto;html=1;exitX=0.5;exitY=1;exitDx=0;exitDy=0;entryX=0.5;entryY=0;entryDx=0;entryDy=0;" edge="1" parent="_wyRR_9sv9Ona-ReKIE4-1" source="_wyRR_9sv9Ona-ReKIE4-38" target="_wyRR_9sv9Ona-ReKIE4-181">
          <mxGeometry relative="1" as="geometry">
            <mxPoint x="1307" y="1760" as="targetPoint" />
            <Array as="points">
              <mxPoint x="1485" y="420" />
              <mxPoint x="1274" y="420" />
            </Array>
          </mxGeometry>
        </mxCell>
        <mxCell id="_wyRR_9sv9Ona-ReKIE4-37" style="edgeStyle=orthogonalEdgeStyle;rounded=0;orthogonalLoop=1;jettySize=auto;html=1;exitX=0.5;exitY=1;exitDx=0;exitDy=0;entryX=0.5;entryY=0;entryDx=0;entryDy=0;" edge="1" parent="_wyRR_9sv9Ona-ReKIE4-1" source="_wyRR_9sv9Ona-ReKIE4-38" target="_wyRR_9sv9Ona-ReKIE4-193">
          <mxGeometry relative="1" as="geometry" />
        </mxCell>
        <UserObject label="Pistol Aquisition" lucidchartObjectId="RMZdWAIVf3ku" id="_wyRR_9sv9Ona-ReKIE4-38">
          <mxCell style="html=1;overflow=block;blockSpacing=1;whiteSpace=wrap;;whiteSpace=wrap;fontSize=13;fontColor=#333333;align=center;spacing=9;strokeColor=#333333;strokeOpacity=100;fillOpacity=100;rounded=1;absoluteArcSize=1;arcSize=12;fillColor=#ffffff;strokeWidth=0.8;" vertex="1" parent="_wyRR_9sv9Ona-ReKIE4-1">
            <mxGeometry x="1420.3080082135523" y="307.5" width="129.60985626283366" height="102.5" as="geometry" />
          </mxCell>
        </UserObject>
        <UserObject label="Pistol Aquisition: SIG P226" lucidchartObjectId="nNZd9yNHCWl8" id="_wyRR_9sv9Ona-ReKIE4-39">
          <mxCell style="html=1;overflow=block;blockSpacing=1;whiteSpace=wrap;;whiteSpace=wrap;fontSize=13;fontColor=#333333;align=center;spacing=9;strokeColor=#333333;strokeOpacity=100;fillOpacity=100;rounded=1;absoluteArcSize=1;arcSize=12;fillColor=#ffffff;strokeWidth=0.8;" vertex="1" parent="_wyRR_9sv9Ona-ReKIE4-1">
            <mxGeometry x="1290.6981519507185" y="484.02777777777777" width="129.60985626283366" height="102.5" as="geometry" />
          </mxCell>
        </UserObject>
        <UserObject label="Pistol Aquisition: Glock 18" lucidchartObjectId="qNZdaVzqVqA_" id="_wyRR_9sv9Ona-ReKIE4-40">
          <mxCell style="html=1;overflow=block;blockSpacing=1;whiteSpace=wrap;;whiteSpace=wrap;fontSize=13;fontColor=#333333;align=center;spacing=9;strokeColor=#333333;strokeOpacity=100;fillOpacity=100;rounded=1;absoluteArcSize=1;arcSize=12;fillColor=#ffffff;strokeWidth=0.8;" vertex="1" parent="_wyRR_9sv9Ona-ReKIE4-1">
            <mxGeometry x="1420.3080082135523" y="484.02777777777777" width="129.60985626283366" height="102.5" as="geometry" />
          </mxCell>
        </UserObject>
        <UserObject label="Pistol Aquisition: M1911" lucidchartObjectId="tNZdOS5x-khd" id="_wyRR_9sv9Ona-ReKIE4-41">
          <mxCell style="html=1;overflow=block;blockSpacing=1;whiteSpace=wrap;;whiteSpace=wrap;fontSize=13;fontColor=#333333;align=center;spacing=9;strokeColor=#333333;strokeOpacity=100;fillOpacity=100;rounded=1;absoluteArcSize=1;arcSize=12;fillColor=#ffffff;strokeWidth=0.8;" vertex="1" parent="_wyRR_9sv9Ona-ReKIE4-1">
            <mxGeometry x="1549.9178644763858" y="484.02777777777777" width="129.60985626283366" height="102.5" as="geometry" />
          </mxCell>
        </UserObject>
        <UserObject label="" lucidchartObjectId="oQZd2~-~Y2gs" id="_wyRR_9sv9Ona-ReKIE4-42">
          <mxCell style="html=1;jettySize=18;whiteSpace=wrap;fontSize=13;strokeColor=#333333;strokeOpacity=100;strokeWidth=0.8;rounded=1;arcSize=24;edgeStyle=orthogonalEdgeStyle;startArrow=none;;endArrow=block;endFill=1;;exitX=0.5;exitY=1.004;exitPerimeter=0;entryX=0.5;entryY=-0.004;entryPerimeter=0;" edge="1" parent="_wyRR_9sv9Ona-ReKIE4-1" source="_wyRR_9sv9Ona-ReKIE4-38" target="_wyRR_9sv9Ona-ReKIE4-39">
            <mxGeometry width="100" height="100" relative="1" as="geometry">
              <Array as="points" />
            </mxGeometry>
          </mxCell>
        </UserObject>
        <UserObject label="" lucidchartObjectId="sQZd7AvisC3r" id="_wyRR_9sv9Ona-ReKIE4-43">
          <mxCell style="html=1;jettySize=18;whiteSpace=wrap;fontSize=13;strokeColor=#333333;strokeOpacity=100;strokeWidth=0.8;rounded=1;arcSize=24;edgeStyle=orthogonalEdgeStyle;startArrow=none;;endArrow=block;endFill=1;;exitX=0.5;exitY=1.004;exitPerimeter=0;entryX=0.5;entryY=-0.004;entryPerimeter=0;" edge="1" parent="_wyRR_9sv9Ona-ReKIE4-1" source="_wyRR_9sv9Ona-ReKIE4-38" target="_wyRR_9sv9Ona-ReKIE4-41">
            <mxGeometry width="100" height="100" relative="1" as="geometry">
              <Array as="points" />
            </mxGeometry>
          </mxCell>
        </UserObject>
        <UserObject label="" lucidchartObjectId="zQZd.8prdrVg" id="_wyRR_9sv9Ona-ReKIE4-44">
          <mxCell style="html=1;jettySize=18;whiteSpace=wrap;fontSize=13;strokeColor=#333333;strokeOpacity=100;strokeWidth=0.8;rounded=1;arcSize=24;edgeStyle=orthogonalEdgeStyle;startArrow=none;;endArrow=block;endFill=1;;exitX=0.5;exitY=1.004;exitPerimeter=0;entryX=0.5;entryY=-0.004;entryPerimeter=0;" edge="1" parent="_wyRR_9sv9Ona-ReKIE4-1" source="_wyRR_9sv9Ona-ReKIE4-38" target="_wyRR_9sv9Ona-ReKIE4-40">
            <mxGeometry width="100" height="100" relative="1" as="geometry">
              <Array as="points" />
            </mxGeometry>
          </mxCell>
        </UserObject>
        <UserObject label="" lucidchartObjectId="CQZdT_c2o7pa" id="_wyRR_9sv9Ona-ReKIE4-45">
          <mxCell style="html=1;jettySize=18;whiteSpace=wrap;fontSize=13;strokeColor=#333333;strokeOpacity=100;strokeWidth=2.3;rounded=1;arcSize=24;edgeStyle=orthogonalEdgeStyle;startArrow=none;;endArrow=block;endFill=1;;exitX=0.5;exitY=0.98;exitPerimeter=0;entryX=0.5;entryY=-0.004;entryPerimeter=0;" edge="1" parent="_wyRR_9sv9Ona-ReKIE4-1" source="_wyRR_9sv9Ona-ReKIE4-22" target="_wyRR_9sv9Ona-ReKIE4-38">
            <mxGeometry width="100" height="100" relative="1" as="geometry">
              <Array as="points">
                <mxPoint x="2246.5708418891168" y="239.16666666666666" />
                <mxPoint x="1485.112936344969" y="239.16666666666666" />
              </Array>
            </mxGeometry>
          </mxCell>
        </UserObject>
        <UserObject label="Armored Vest Aquisition" lucidchartObjectId="TSZdAv5Nu1_F" id="_wyRR_9sv9Ona-ReKIE4-46">
          <mxCell style="html=1;overflow=block;blockSpacing=1;whiteSpace=wrap;rounded=0;arcSize=50;whiteSpace=wrap;fontSize=13;fontColor=#333333;align=center;spacing=9;strokeColor=#333333;strokeOpacity=100;fillOpacity=100;fillColor=#ffffff;strokeWidth=0.8;" vertex="1" parent="_wyRR_9sv9Ona-ReKIE4-1">
            <mxGeometry x="367.2279260780287" y="307.5" width="129.60985626283366" height="91.11111111111111" as="geometry" />
          </mxCell>
        </UserObject>
        <mxCell id="_wyRR_9sv9Ona-ReKIE4-47" style="edgeStyle=orthogonalEdgeStyle;rounded=0;orthogonalLoop=1;jettySize=auto;html=1;exitX=0.5;exitY=1;exitDx=0;exitDy=0;entryX=0.5;entryY=0;entryDx=0;entryDy=0;" edge="1" parent="_wyRR_9sv9Ona-ReKIE4-1" source="_wyRR_9sv9Ona-ReKIE4-48" target="_wyRR_9sv9Ona-ReKIE4-215">
          <mxGeometry relative="1" as="geometry" />
        </mxCell>
        <UserObject label="Backpack Aquisition" lucidchartObjectId="iTZdZ7eJWs2a" id="_wyRR_9sv9Ona-ReKIE4-48">
          <mxCell style="html=1;overflow=block;blockSpacing=1;whiteSpace=wrap;rounded=0;arcSize=50;whiteSpace=wrap;fontSize=13;fontColor=#333333;align=center;spacing=9;strokeColor=#333333;strokeOpacity=100;fillOpacity=100;fillColor=#ffffff;strokeWidth=0.8;" vertex="1" parent="_wyRR_9sv9Ona-ReKIE4-1">
            <mxGeometry x="691.2525667351129" y="309.77777777777777" width="129.60985626283366" height="91.11111111111111" as="geometry" />
          </mxCell>
        </UserObject>
        <UserObject label="" lucidchartObjectId="3TZdt3lii5ES" id="_wyRR_9sv9Ona-ReKIE4-49">
          <mxCell style="html=1;jettySize=18;whiteSpace=wrap;fontSize=13;strokeColor=#333333;strokeOpacity=100;strokeWidth=2.3;rounded=1;arcSize=24;edgeStyle=orthogonalEdgeStyle;startArrow=none;;endArrow=block;endFill=1;;exitX=0.5;exitY=0.98;exitPerimeter=0;entryX=0.5;entryY=-0.004;entryPerimeter=0;" edge="1" parent="_wyRR_9sv9Ona-ReKIE4-1" source="_wyRR_9sv9Ona-ReKIE4-22" target="_wyRR_9sv9Ona-ReKIE4-46">
            <mxGeometry width="100" height="100" relative="1" as="geometry">
              <Array as="points">
                <mxPoint x="2246.5708418891168" y="239.16666666666666" />
                <mxPoint x="432.03285420944553" y="239.16666666666666" />
              </Array>
            </mxGeometry>
          </mxCell>
        </UserObject>
        <UserObject label="" lucidchartObjectId="7TZdTCwb9kuW" id="_wyRR_9sv9Ona-ReKIE4-50">
          <mxCell style="html=1;jettySize=18;whiteSpace=wrap;fontSize=13;strokeColor=#333333;strokeOpacity=100;strokeWidth=2.3;rounded=1;arcSize=24;edgeStyle=orthogonalEdgeStyle;startArrow=none;;endArrow=block;endFill=1;;exitX=0.5;exitY=0.98;exitPerimeter=0;entryX=0.5;entryY=-0.004;entryPerimeter=0;" edge="1" parent="_wyRR_9sv9Ona-ReKIE4-1" source="_wyRR_9sv9Ona-ReKIE4-22" target="_wyRR_9sv9Ona-ReKIE4-48">
            <mxGeometry width="100" height="100" relative="1" as="geometry">
              <Array as="points">
                <mxPoint x="2246.5708418891168" y="239.16666666666666" />
                <mxPoint x="756.0574948665297" y="239.16666666666666" />
              </Array>
            </mxGeometry>
          </mxCell>
        </UserObject>
        <UserObject label="" lucidchartObjectId="h6ZdRJ-4xbI6" id="_wyRR_9sv9Ona-ReKIE4-51">
          <mxCell style="html=1;jettySize=18;whiteSpace=wrap;fontSize=13;strokeColor=#333333;strokeOpacity=100;strokeWidth=2.3;rounded=1;arcSize=24;edgeStyle=orthogonalEdgeStyle;startArrow=none;;endArrow=block;endFill=1;;exitX=0.5;exitY=1.004;exitPerimeter=0;entryX=0.5;entryY=-0.004;entryPerimeter=0;dashed=1;" edge="1" parent="_wyRR_9sv9Ona-ReKIE4-1" source="_wyRR_9sv9Ona-ReKIE4-6" target="_wyRR_9sv9Ona-ReKIE4-231">
            <mxGeometry width="100" height="100" relative="1" as="geometry">
              <Array as="points">
                <mxPoint x="1825.3388090349074" y="603.6111111111111" />
                <mxPoint x="1879.3429158110882" y="603.6111111111111" />
                <mxPoint x="1879.3429158110882" y="663.9722222222222" />
                <mxPoint x="1355.5030800821355" y="663.9722222222222" />
              </Array>
            </mxGeometry>
          </mxCell>
        </UserObject>
        <UserObject label="" lucidchartObjectId="k6ZdRMltAoLC" id="_wyRR_9sv9Ona-ReKIE4-52">
          <mxCell style="html=1;jettySize=18;whiteSpace=wrap;fontSize=13;strokeColor=#333333;strokeOpacity=100;strokeWidth=2.3;rounded=1;arcSize=24;edgeStyle=orthogonalEdgeStyle;startArrow=none;;endArrow=block;endFill=1;;exitX=0.5;exitY=1.004;exitPerimeter=0;entryX=0.5;entryY=-0.004;entryPerimeter=0;dashed=1;" edge="1" parent="_wyRR_9sv9Ona-ReKIE4-1" source="_wyRR_9sv9Ona-ReKIE4-7" target="_wyRR_9sv9Ona-ReKIE4-231">
            <mxGeometry width="100" height="100" relative="1" as="geometry">
              <Array as="points">
                <mxPoint x="1954.9486652977412" y="603.6111111111111" />
                <mxPoint x="1998.1519507186856" y="603.6111111111111" />
                <mxPoint x="1998.1519507186856" y="663.9722222222222" />
                <mxPoint x="1355.5030800821355" y="663.9722222222222" />
              </Array>
            </mxGeometry>
          </mxCell>
        </UserObject>
        <UserObject label="" lucidchartObjectId="u6ZdzQbKuTCf" id="_wyRR_9sv9Ona-ReKIE4-53">
          <mxCell style="html=1;jettySize=18;whiteSpace=wrap;fontSize=13;strokeColor=#333333;strokeOpacity=100;strokeWidth=2.3;rounded=1;arcSize=24;edgeStyle=orthogonalEdgeStyle;startArrow=none;;endArrow=block;endFill=1;;exitX=0.5;exitY=1.004;exitPerimeter=0;entryX=0.5;entryY=-0.004;entryPerimeter=0;dashed=1;" edge="1" parent="_wyRR_9sv9Ona-ReKIE4-1" source="_wyRR_9sv9Ona-ReKIE4-8" target="_wyRR_9sv9Ona-ReKIE4-231">
            <mxGeometry width="100" height="100" relative="1" as="geometry">
              <Array as="points">
                <mxPoint x="2084.5585215605747" y="603.6111111111111" />
                <mxPoint x="2127.7618069815194" y="603.6111111111111" />
                <mxPoint x="2127.7618069815194" y="663.9722222222222" />
                <mxPoint x="1355.5030800821355" y="663.9722222222222" />
              </Array>
            </mxGeometry>
          </mxCell>
        </UserObject>
        <UserObject label="" lucidchartObjectId="J6ZdNk4VffnR" id="_wyRR_9sv9Ona-ReKIE4-54">
          <mxCell style="html=1;jettySize=18;whiteSpace=wrap;fontSize=13;strokeColor=#333333;strokeOpacity=100;strokeWidth=2.3;rounded=1;arcSize=24;edgeStyle=orthogonalEdgeStyle;startArrow=none;;endArrow=block;endFill=1;;exitX=0.5;exitY=1.004;exitPerimeter=0;entryX=0.5;entryY=-0.004;entryPerimeter=0;dashed=1;" edge="1" parent="_wyRR_9sv9Ona-ReKIE4-1" source="_wyRR_9sv9Ona-ReKIE4-10" target="_wyRR_9sv9Ona-ReKIE4-231">
            <mxGeometry width="100" height="100" relative="1" as="geometry">
              <Array as="points">
                <mxPoint x="2214.1683778234083" y="603.6111111111111" />
                <mxPoint x="2257.371663244353" y="603.6111111111111" />
                <mxPoint x="2257.371663244353" y="663.9722222222222" />
                <mxPoint x="1355.5030800821355" y="663.9722222222222" />
              </Array>
            </mxGeometry>
          </mxCell>
        </UserObject>
        <UserObject label="" lucidchartObjectId="M6ZdO0bWWrU3" id="_wyRR_9sv9Ona-ReKIE4-55">
          <mxCell style="html=1;jettySize=18;whiteSpace=wrap;fontSize=13;strokeColor=#333333;strokeOpacity=100;strokeWidth=2.3;rounded=1;arcSize=24;edgeStyle=orthogonalEdgeStyle;startArrow=none;;endArrow=block;endFill=1;;exitX=0.5;exitY=1.004;exitPerimeter=0;entryX=0.5;entryY=-0.004;entryPerimeter=0;dashed=1;" edge="1" parent="_wyRR_9sv9Ona-ReKIE4-1" source="_wyRR_9sv9Ona-ReKIE4-12" target="_wyRR_9sv9Ona-ReKIE4-231">
            <mxGeometry width="100" height="100" relative="1" as="geometry">
              <Array as="points">
                <mxPoint x="2343.7782340862423" y="603.6111111111111" />
                <mxPoint x="2386.9815195071865" y="603.6111111111111" />
                <mxPoint x="2386.9815195071865" y="663.9722222222222" />
                <mxPoint x="1355.5030800821355" y="663.9722222222222" />
              </Array>
            </mxGeometry>
          </mxCell>
        </UserObject>
        <UserObject label="" lucidchartObjectId="P6Zdv4RYhlie" id="_wyRR_9sv9Ona-ReKIE4-56">
          <mxCell style="html=1;jettySize=18;whiteSpace=wrap;fontSize=13;strokeColor=#333333;strokeOpacity=100;strokeWidth=2.3;rounded=1;arcSize=24;edgeStyle=orthogonalEdgeStyle;startArrow=none;;endArrow=block;endFill=1;;exitX=0.5;exitY=1.004;exitPerimeter=0;entryX=0.5;entryY=-0.004;entryPerimeter=0;dashed=1;" edge="1" parent="_wyRR_9sv9Ona-ReKIE4-1" source="_wyRR_9sv9Ona-ReKIE4-13" target="_wyRR_9sv9Ona-ReKIE4-231">
            <mxGeometry width="100" height="100" relative="1" as="geometry">
              <Array as="points">
                <mxPoint x="2473.388090349076" y="603.6111111111111" />
                <mxPoint x="2516.5913757700205" y="603.6111111111111" />
                <mxPoint x="2516.5913757700205" y="663.9722222222222" />
                <mxPoint x="1355.5030800821355" y="663.9722222222222" />
              </Array>
            </mxGeometry>
          </mxCell>
        </UserObject>
        <UserObject label="Rifle Modification: Scope" lucidchartObjectId="Y9ZdiyxfP5wW" id="_wyRR_9sv9Ona-ReKIE4-57">
          <mxCell style="html=1;overflow=block;blockSpacing=1;whiteSpace=wrap;shape=process;whiteSpace=wrap;fontSize=13;fontColor=#333333;align=center;spacing=3.8;strokeColor=#333333;strokeOpacity=100;fillOpacity=100;rounded=1;absoluteArcSize=1;arcSize=12;fillColor=#ffffff;strokeWidth=0.8;" vertex="1" parent="_wyRR_9sv9Ona-ReKIE4-1">
            <mxGeometry x="1420.3080082135523" y="1013.6111111111111" width="129.60985626283366" height="102.5" as="geometry" />
          </mxCell>
        </UserObject>
        <UserObject label="Rifle Modification SOPMOD Kit" lucidchartObjectId="d-ZddwU1q0cq" id="_wyRR_9sv9Ona-ReKIE4-58">
          <mxCell style="html=1;overflow=block;blockSpacing=1;whiteSpace=wrap;shape=process;whiteSpace=wrap;fontSize=13;fontColor=#333333;align=center;spacing=3.8;strokeColor=#333333;strokeOpacity=100;fillOpacity=100;rounded=1;absoluteArcSize=1;arcSize=12;fillColor=#ffffff;strokeWidth=0.8;" vertex="1" parent="_wyRR_9sv9Ona-ReKIE4-1">
            <mxGeometry x="1549.9178644763858" y="1013.6111111111111" width="129.60985626283366" height="102.5" as="geometry" />
          </mxCell>
        </UserObject>
        <UserObject label="" lucidchartObjectId="M-ZdUwTSwu39" id="_wyRR_9sv9Ona-ReKIE4-59">
          <mxCell style="html=1;jettySize=18;whiteSpace=wrap;fontSize=13;strokeColor=#333333;strokeOpacity=100;strokeWidth=0.8;rounded=1;arcSize=24;edgeStyle=orthogonalEdgeStyle;startArrow=none;;endArrow=block;endFill=1;;exitX=0.5;exitY=1.004;exitPerimeter=0;entryX=0.5;entryY=-0.004;entryPerimeter=0;" edge="1" parent="_wyRR_9sv9Ona-ReKIE4-1" source="_wyRR_9sv9Ona-ReKIE4-231" target="_wyRR_9sv9Ona-ReKIE4-57">
            <mxGeometry width="100" height="100" relative="1" as="geometry">
              <Array as="points" />
            </mxGeometry>
          </mxCell>
        </UserObject>
        <UserObject label="" lucidchartObjectId="R-ZdDBNfb4SS" id="_wyRR_9sv9Ona-ReKIE4-60">
          <mxCell style="html=1;jettySize=18;whiteSpace=wrap;fontSize=13;strokeColor=#333333;strokeOpacity=100;strokeWidth=0.8;rounded=1;arcSize=24;edgeStyle=orthogonalEdgeStyle;startArrow=none;;endArrow=block;endFill=1;;exitX=0.5;exitY=1.004;exitPerimeter=0;entryX=0.5;entryY=-0.004;entryPerimeter=0;" edge="1" parent="_wyRR_9sv9Ona-ReKIE4-1" source="_wyRR_9sv9Ona-ReKIE4-231" target="_wyRR_9sv9Ona-ReKIE4-58">
            <mxGeometry width="100" height="100" relative="1" as="geometry">
              <Array as="points" />
            </mxGeometry>
          </mxCell>
        </UserObject>
        <UserObject label="" lucidchartObjectId="8~ZdZJWn~6jy" id="_wyRR_9sv9Ona-ReKIE4-61">
          <mxCell style="html=1;jettySize=18;whiteSpace=wrap;fontSize=13;strokeColor=#333333;strokeOpacity=100;strokeWidth=0.8;rounded=1;arcSize=24;edgeStyle=orthogonalEdgeStyle;startArrow=none;;endArrow=block;endFill=1;;exitX=0.5;exitY=1.004;exitPerimeter=0;entryX=0.5;entryY=-0.004;entryPerimeter=0;dashed=1;" edge="1" parent="_wyRR_9sv9Ona-ReKIE4-1" source="_wyRR_9sv9Ona-ReKIE4-12" target="_wyRR_9sv9Ona-ReKIE4-57">
            <mxGeometry width="100" height="100" relative="1" as="geometry">
              <Array as="points">
                <mxPoint x="2343.7782340862423" y="604.75" />
                <mxPoint x="2287.6139630390144" y="604.75" />
                <mxPoint x="2287.6139630390144" y="748.25" />
                <mxPoint x="1485.112936344969" y="748.25" />
              </Array>
            </mxGeometry>
          </mxCell>
        </UserObject>
        <UserObject label="" lucidchartObjectId="Bb0dUiIs-Duv" id="_wyRR_9sv9Ona-ReKIE4-62">
          <mxCell style="html=1;jettySize=18;whiteSpace=wrap;fontSize=13;strokeColor=#333333;strokeOpacity=100;strokeWidth=0.8;rounded=1;arcSize=24;edgeStyle=orthogonalEdgeStyle;startArrow=none;;endArrow=block;endFill=1;;exitX=0.5;exitY=1.004;exitPerimeter=0;entryX=0.5;entryY=-0.004;entryPerimeter=0;dashed=1;" edge="1" parent="_wyRR_9sv9Ona-ReKIE4-1" source="_wyRR_9sv9Ona-ReKIE4-10" target="_wyRR_9sv9Ona-ReKIE4-58">
            <mxGeometry width="100" height="100" relative="1" as="geometry">
              <Array as="points">
                <mxPoint x="2214.1683778234083" y="604.75" />
                <mxPoint x="2158.0041067761804" y="604.75" />
                <mxPoint x="2158.0041067761804" y="774.4444444444445" />
                <mxPoint x="1614.7227926078028" y="774.4444444444445" />
              </Array>
            </mxGeometry>
          </mxCell>
        </UserObject>
        <UserObject label="" lucidchartObjectId="rc0dC78Lwz8d" id="_wyRR_9sv9Ona-ReKIE4-63">
          <mxCell style="html=1;jettySize=18;whiteSpace=wrap;fontSize=13;strokeColor=#333333;strokeOpacity=100;strokeWidth=0.8;rounded=1;arcSize=24;edgeStyle=orthogonalEdgeStyle;startArrow=none;;endArrow=block;endFill=1;;exitX=0.5;exitY=1.004;exitPerimeter=0;entryX=0.5;entryY=-0.004;entryPerimeter=0;dashed=1;" edge="1" parent="_wyRR_9sv9Ona-ReKIE4-1" source="_wyRR_9sv9Ona-ReKIE4-13" target="_wyRR_9sv9Ona-ReKIE4-58">
            <mxGeometry width="100" height="100" relative="1" as="geometry">
              <Array as="points">
                <mxPoint x="2473.388090349076" y="604.75" />
                <mxPoint x="2417.223819301848" y="604.75" />
                <mxPoint x="2417.223819301848" y="774.4444444444445" />
                <mxPoint x="1614.7227926078028" y="774.4444444444445" />
              </Array>
            </mxGeometry>
          </mxCell>
        </UserObject>
        <UserObject label="Armoury" lucidchartObjectId="1g0dXQ1J5.~K" id="_wyRR_9sv9Ona-ReKIE4-64">
          <mxCell style="html=1;overflow=block;blockSpacing=1;whiteSpace=wrap;shape=trapezoid;perimeter=trapezoidPerimeter;anchorPointDirection=0;flipV=1;whiteSpace=wrap;fontSize=13;fontColor=#333333;align=center;spacing=3.8;strokeColor=#333333;strokeOpacity=100;fillOpacity=100;rounded=1;absoluteArcSize=1;arcSize=12;fillColor=#ffffff;strokeWidth=0.8;" vertex="1" parent="_wyRR_9sv9Ona-ReKIE4-1">
            <mxGeometry x="864.0657084188911" y="1025" width="129.60985626283366" height="102.5" as="geometry" />
          </mxCell>
        </UserObject>
        <UserObject label="" lucidchartObjectId="~i0dhqj4wzYG" id="_wyRR_9sv9Ona-ReKIE4-65">
          <mxCell style="html=1;jettySize=18;whiteSpace=wrap;fontSize=13;strokeColor=#333333;strokeOpacity=100;dashed=1;fixDash=1;strokeWidth=0.8;rounded=1;arcSize=24;edgeStyle=orthogonalEdgeStyle;startArrow=none;;endArrow=block;endFill=1;;exitX=0.5;exitY=1.004;exitPerimeter=0;entryX=0.5;entryY=0;entryDx=0;entryDy=0;" edge="1" parent="_wyRR_9sv9Ona-ReKIE4-1" source="_wyRR_9sv9Ona-ReKIE4-231" target="_wyRR_9sv9Ona-ReKIE4-64">
            <mxGeometry width="100" height="100" relative="1" as="geometry">
              <Array as="points">
                <mxPoint x="1355.5030800821355" y="979.4444444444445" />
                <mxPoint x="928.870636550308" y="979.4444444444445" />
              </Array>
              <mxPoint x="939.6714579055441" y="1091.0555555555554" as="targetPoint" />
            </mxGeometry>
          </mxCell>
        </UserObject>
        <UserObject label="" lucidchartObjectId="fj0dUpJlIClm" id="_wyRR_9sv9Ona-ReKIE4-66">
          <mxCell style="html=1;jettySize=18;whiteSpace=wrap;fontSize=13;strokeColor=#333333;strokeOpacity=100;dashed=1;fixDash=1;strokeWidth=0.8;rounded=1;arcSize=24;edgeStyle=orthogonalEdgeStyle;startArrow=none;;endArrow=block;endFill=1;;exitX=0.5;exitY=1.004;exitPerimeter=0;entryX=0.5;entryY=0;entryDx=0;entryDy=0;" edge="1" parent="_wyRR_9sv9Ona-ReKIE4-1" source="_wyRR_9sv9Ona-ReKIE4-48" target="_wyRR_9sv9Ona-ReKIE4-64">
            <mxGeometry width="100" height="100" relative="1" as="geometry">
              <Array as="points">
                <mxPoint x="756.0574948665297" y="933.8888888888888" />
                <mxPoint x="928.870636550308" y="933.8888888888888" />
              </Array>
            </mxGeometry>
          </mxCell>
        </UserObject>
        <UserObject label="" lucidchartObjectId="qj0dGZWE5XJo" id="_wyRR_9sv9Ona-ReKIE4-67">
          <mxCell style="html=1;jettySize=18;whiteSpace=wrap;fontSize=13;strokeColor=#333333;strokeOpacity=100;dashed=1;fixDash=1;strokeWidth=0.8;rounded=1;arcSize=24;edgeStyle=orthogonalEdgeStyle;startArrow=none;;endArrow=block;endFill=1;;exitX=0.5;exitY=1.004;exitPerimeter=0;entryX=0.5;entryY=0;entryDx=0;entryDy=0;" edge="1" parent="_wyRR_9sv9Ona-ReKIE4-1" source="_wyRR_9sv9Ona-ReKIE4-46" target="_wyRR_9sv9Ona-ReKIE4-64">
            <mxGeometry width="100" height="100" relative="1" as="geometry">
              <Array as="points">
                <mxPoint x="432.03285420944553" y="421.38888888888886" />
                <mxPoint x="475.2361396303901" y="421.38888888888886" />
                <mxPoint x="475.2361396303901" y="933.8888888888888" />
                <mxPoint x="928.870636550308" y="933.8888888888888" />
              </Array>
            </mxGeometry>
          </mxCell>
        </UserObject>
        <UserObject label="" lucidchartObjectId="e_ZdpowuHeYt" id="_wyRR_9sv9Ona-ReKIE4-68">
          <mxCell style="html=1;jettySize=18;whiteSpace=wrap;fontSize=13;strokeColor=#333333;strokeOpacity=100;strokeWidth=0.8;rounded=1;arcSize=24;edgeStyle=orthogonalEdgeStyle;startArrow=none;;endArrow=block;endFill=1;;exitX=0.5;exitY=1.004;exitPerimeter=0;dashed=1;" edge="1" parent="_wyRR_9sv9Ona-ReKIE4-1">
            <mxGeometry width="100" height="100" relative="1" as="geometry">
              <Array as="points">
                <mxPoint x="1825.3388090349074" y="604.75" />
                <mxPoint x="1771.3347022587268" y="604.75" />
                <mxPoint x="1771.3347022587268" y="748.25" />
                <mxPoint x="1485.112936344969" y="748.25" />
              </Array>
              <mxPoint x="1825.3388090349074" y="586.5277777777778" as="sourcePoint" />
              <mxPoint x="1485.112936344969" y="1013.6111111111111" as="targetPoint" />
            </mxGeometry>
          </mxCell>
        </UserObject>
        <UserObject label="" lucidchartObjectId="E.ZdO1NicGCf" id="_wyRR_9sv9Ona-ReKIE4-69">
          <mxCell style="html=1;jettySize=18;whiteSpace=wrap;fontSize=13;strokeColor=#333333;strokeOpacity=100;strokeWidth=0.8;rounded=1;arcSize=24;edgeStyle=orthogonalEdgeStyle;startArrow=none;;endArrow=block;endFill=1;;exitX=0.5;exitY=1.004;exitPerimeter=0;entryX=0.5;entryY=0;dashed=1;entryDx=0;entryDy=0;" edge="1" parent="_wyRR_9sv9Ona-ReKIE4-1" target="_wyRR_9sv9Ona-ReKIE4-58">
            <mxGeometry width="100" height="100" relative="1" as="geometry">
              <Array as="points">
                <mxPoint x="1954.9486652977412" y="604.75" />
                <mxPoint x="1900.9445585215603" y="604.75" />
                <mxPoint x="1900.9445585215603" y="774.4444444444445" />
                <mxPoint x="1614.7227926078028" y="774.4444444444445" />
              </Array>
              <mxPoint x="1954.9486652977412" y="586.5277777777778" as="sourcePoint" />
              <mxPoint x="1614.7227926078028" y="910.2911111111111" as="targetPoint" />
            </mxGeometry>
          </mxCell>
        </UserObject>
        <UserObject label="" lucidchartObjectId="I~ZdLhp9c9FH" id="_wyRR_9sv9Ona-ReKIE4-70">
          <mxCell style="html=1;jettySize=18;whiteSpace=wrap;fontSize=13;strokeColor=#333333;strokeOpacity=100;strokeWidth=0.8;rounded=1;arcSize=24;edgeStyle=orthogonalEdgeStyle;startArrow=none;;endArrow=block;endFill=1;;exitX=0.5;exitY=1;entryX=0.5;entryY=-0.004;entryPerimeter=0;dashed=1;exitDx=0;exitDy=0;" edge="1" parent="_wyRR_9sv9Ona-ReKIE4-1" source="_wyRR_9sv9Ona-ReKIE4-8">
            <mxGeometry width="100" height="100" relative="1" as="geometry">
              <Array as="points">
                <mxPoint x="2084.5585215605747" y="603.6111111111111" />
                <mxPoint x="2041.3552361396303" y="603.6111111111111" />
                <mxPoint x="2041.3552361396303" y="751.6666666666666" />
                <mxPoint x="1485.112936344969" y="751.6666666666666" />
              </Array>
              <mxPoint x="2084.5585215605747" y="689.8477777777779" as="sourcePoint" />
              <mxPoint x="1485.112936344969" y="1013.6111111111112" as="targetPoint" />
            </mxGeometry>
          </mxCell>
        </UserObject>
        <mxCell id="_wyRR_9sv9Ona-ReKIE4-71" value="NightVision" style="rounded=0;whiteSpace=wrap;html=1;strokeColor=#333333;strokeWidth=0.8;fontSize=13;fontColor=#333333;" vertex="1" parent="_wyRR_9sv9Ona-ReKIE4-1">
          <mxGeometry x="270.0205338809035" y="1343.888888888889" width="129.60985626283366" height="91.11111111111111" as="geometry" />
        </mxCell>
        <mxCell id="_wyRR_9sv9Ona-ReKIE4-72" style="edgeStyle=orthogonalEdgeStyle;orthogonalLoop=1;jettySize=auto;html=1;exitX=0.5;exitY=1;exitDx=0;exitDy=0;fontSize=13;fontColor=#333333;" edge="1" parent="_wyRR_9sv9Ona-ReKIE4-1" source="_wyRR_9sv9Ona-ReKIE4-46" target="_wyRR_9sv9Ona-ReKIE4-71">
          <mxGeometry relative="1" as="geometry">
            <Array as="points">
              <mxPoint x="432.03285420944553" y="421.38888888888886" />
              <mxPoint x="334.8254620123203" y="421.38888888888886" />
            </Array>
          </mxGeometry>
        </mxCell>
        <mxCell id="_wyRR_9sv9Ona-ReKIE4-73" style="edgeStyle=orthogonalEdgeStyle;orthogonalLoop=1;jettySize=auto;html=1;exitX=0.5;exitY=1;exitDx=0;exitDy=0;fontSize=13;fontColor=#333333;" edge="1" parent="_wyRR_9sv9Ona-ReKIE4-1" source="_wyRR_9sv9Ona-ReKIE4-303">
          <mxGeometry relative="1" as="geometry">
            <Array as="points">
              <mxPoint x="5509" y="1150" />
              <mxPoint x="335" y="1150" />
            </Array>
            <mxPoint x="335" y="1340" as="targetPoint" />
          </mxGeometry>
        </mxCell>
        <mxCell id="_wyRR_9sv9Ona-ReKIE4-74" style="edgeStyle=orthogonalEdgeStyle;rounded=1;orthogonalLoop=1;jettySize=auto;html=1;exitX=0.5;exitY=1;exitDx=0;exitDy=0;" edge="1" parent="_wyRR_9sv9Ona-ReKIE4-1" source="_wyRR_9sv9Ona-ReKIE4-86" target="_wyRR_9sv9Ona-ReKIE4-178">
          <mxGeometry relative="1" as="geometry">
            <Array as="points">
              <mxPoint x="2247" y="1670" />
              <mxPoint x="-5" y="1670" />
            </Array>
          </mxGeometry>
        </mxCell>
        <mxCell id="_wyRR_9sv9Ona-ReKIE4-75" style="edgeStyle=orthogonalEdgeStyle;rounded=1;orthogonalLoop=1;jettySize=auto;html=1;exitX=0.5;exitY=1;exitDx=0;exitDy=0;entryX=0.5;entryY=0;entryDx=0;entryDy=0;" edge="1" parent="_wyRR_9sv9Ona-ReKIE4-1" source="_wyRR_9sv9Ona-ReKIE4-86" target="_wyRR_9sv9Ona-ReKIE4-99">
          <mxGeometry relative="1" as="geometry" />
        </mxCell>
        <mxCell id="_wyRR_9sv9Ona-ReKIE4-76" style="edgeStyle=orthogonalEdgeStyle;rounded=1;orthogonalLoop=1;jettySize=auto;html=1;exitX=0.5;exitY=1;exitDx=0;exitDy=0;" edge="1" parent="_wyRR_9sv9Ona-ReKIE4-1" source="_wyRR_9sv9Ona-ReKIE4-86" target="_wyRR_9sv9Ona-ReKIE4-101">
          <mxGeometry relative="1" as="geometry" />
        </mxCell>
        <mxCell id="_wyRR_9sv9Ona-ReKIE4-77" style="edgeStyle=orthogonalEdgeStyle;rounded=1;orthogonalLoop=1;jettySize=auto;html=1;exitX=0.5;exitY=1;exitDx=0;exitDy=0;" edge="1" parent="_wyRR_9sv9Ona-ReKIE4-1" source="_wyRR_9sv9Ona-ReKIE4-86" target="_wyRR_9sv9Ona-ReKIE4-91">
          <mxGeometry relative="1" as="geometry" />
        </mxCell>
        <mxCell id="_wyRR_9sv9Ona-ReKIE4-78" style="edgeStyle=orthogonalEdgeStyle;rounded=1;orthogonalLoop=1;jettySize=auto;html=1;exitX=0.5;exitY=1;exitDx=0;exitDy=0;" edge="1" parent="_wyRR_9sv9Ona-ReKIE4-1" source="_wyRR_9sv9Ona-ReKIE4-86" target="_wyRR_9sv9Ona-ReKIE4-93">
          <mxGeometry relative="1" as="geometry" />
        </mxCell>
        <mxCell id="_wyRR_9sv9Ona-ReKIE4-79" style="edgeStyle=orthogonalEdgeStyle;rounded=1;orthogonalLoop=1;jettySize=auto;html=1;exitX=0.5;exitY=1;exitDx=0;exitDy=0;entryX=0.5;entryY=0;entryDx=0;entryDy=0;" edge="1" parent="_wyRR_9sv9Ona-ReKIE4-1" source="_wyRR_9sv9Ona-ReKIE4-86" target="_wyRR_9sv9Ona-ReKIE4-95">
          <mxGeometry relative="1" as="geometry" />
        </mxCell>
        <mxCell id="_wyRR_9sv9Ona-ReKIE4-80" style="edgeStyle=orthogonalEdgeStyle;rounded=1;orthogonalLoop=1;jettySize=auto;html=1;exitX=0.5;exitY=1;exitDx=0;exitDy=0;" edge="1" parent="_wyRR_9sv9Ona-ReKIE4-1" source="_wyRR_9sv9Ona-ReKIE4-86" target="_wyRR_9sv9Ona-ReKIE4-97">
          <mxGeometry relative="1" as="geometry" />
        </mxCell>
        <mxCell id="_wyRR_9sv9Ona-ReKIE4-81" style="edgeStyle=orthogonalEdgeStyle;rounded=1;orthogonalLoop=1;jettySize=auto;html=1;exitX=0.5;exitY=1;exitDx=0;exitDy=0;" edge="1" parent="_wyRR_9sv9Ona-ReKIE4-1" source="_wyRR_9sv9Ona-ReKIE4-86" target="_wyRR_9sv9Ona-ReKIE4-181">
          <mxGeometry relative="1" as="geometry">
            <Array as="points">
              <mxPoint x="2247" y="1670" />
              <mxPoint x="1275" y="1670" />
            </Array>
          </mxGeometry>
        </mxCell>
        <mxCell id="_wyRR_9sv9Ona-ReKIE4-82" style="edgeStyle=orthogonalEdgeStyle;rounded=0;orthogonalLoop=1;jettySize=auto;html=1;exitX=0.5;exitY=1;exitDx=0;exitDy=0;entryX=0.5;entryY=0;entryDx=0;entryDy=0;" edge="1" parent="_wyRR_9sv9Ona-ReKIE4-1" source="_wyRR_9sv9Ona-ReKIE4-86" target="_wyRR_9sv9Ona-ReKIE4-232">
          <mxGeometry relative="1" as="geometry" />
        </mxCell>
        <mxCell id="_wyRR_9sv9Ona-ReKIE4-83" style="edgeStyle=orthogonalEdgeStyle;rounded=0;orthogonalLoop=1;jettySize=auto;html=1;exitX=0.5;exitY=1;exitDx=0;exitDy=0;entryX=0.5;entryY=0;entryDx=0;entryDy=0;" edge="1" parent="_wyRR_9sv9Ona-ReKIE4-1" source="_wyRR_9sv9Ona-ReKIE4-86" target="_wyRR_9sv9Ona-ReKIE4-222">
          <mxGeometry relative="1" as="geometry" />
        </mxCell>
        <mxCell id="_wyRR_9sv9Ona-ReKIE4-84" style="edgeStyle=orthogonalEdgeStyle;rounded=0;orthogonalLoop=1;jettySize=auto;html=1;exitX=0.5;exitY=1;exitDx=0;exitDy=0;entryX=0.5;entryY=0;entryDx=0;entryDy=0;" edge="1" parent="_wyRR_9sv9Ona-ReKIE4-1" source="_wyRR_9sv9Ona-ReKIE4-86" target="_wyRR_9sv9Ona-ReKIE4-194">
          <mxGeometry relative="1" as="geometry" />
        </mxCell>
        <mxCell id="_wyRR_9sv9Ona-ReKIE4-85" style="edgeStyle=orthogonalEdgeStyle;rounded=0;orthogonalLoop=1;jettySize=auto;html=1;exitX=0.5;exitY=1;exitDx=0;exitDy=0;entryX=0.5;entryY=0;entryDx=0;entryDy=0;" edge="1" parent="_wyRR_9sv9Ona-ReKIE4-1" source="_wyRR_9sv9Ona-ReKIE4-86" target="_wyRR_9sv9Ona-ReKIE4-190">
          <mxGeometry relative="1" as="geometry" />
        </mxCell>
        <mxCell id="_wyRR_9sv9Ona-ReKIE4-397" style="edgeStyle=orthogonalEdgeStyle;rounded=0;orthogonalLoop=1;jettySize=auto;html=1;exitX=0.5;exitY=1;exitDx=0;exitDy=0;entryX=0.5;entryY=0;entryDx=0;entryDy=0;" edge="1" parent="_wyRR_9sv9Ona-ReKIE4-1" source="_wyRR_9sv9Ona-ReKIE4-86" target="_wyRR_9sv9Ona-ReKIE4-207">
          <mxGeometry relative="1" as="geometry">
            <Array as="points">
              <mxPoint x="2247" y="1970" />
              <mxPoint x="2807" y="1970" />
            </Array>
          </mxGeometry>
        </mxCell>
        <mxCell id="_wyRR_9sv9Ona-ReKIE4-405" style="edgeStyle=orthogonalEdgeStyle;rounded=0;orthogonalLoop=1;jettySize=auto;html=1;exitX=0.5;exitY=1;exitDx=0;exitDy=0;entryX=0.5;entryY=0;entryDx=0;entryDy=0;" edge="1" parent="_wyRR_9sv9Ona-ReKIE4-1" source="_wyRR_9sv9Ona-ReKIE4-86" target="_wyRR_9sv9Ona-ReKIE4-182">
          <mxGeometry relative="1" as="geometry">
            <Array as="points">
              <mxPoint x="2247" y="1670" />
              <mxPoint x="855" y="1670" />
            </Array>
          </mxGeometry>
        </mxCell>
        <mxCell id="_wyRR_9sv9Ona-ReKIE4-86" value="Military Equipment Acquisition" style="rhombus;whiteSpace=wrap;html=1;rounded=1;strokeColor=#333333;strokeWidth=0.8;fontSize=13;fontColor=#333333;" vertex="1" parent="_wyRR_9sv9Ona-ReKIE4-1">
          <mxGeometry x="2165.5646817248457" y="970.0022222222221" width="162.01232032854207" height="125.27777777777777" as="geometry" />
        </mxCell>
        <mxCell id="_wyRR_9sv9Ona-ReKIE4-87" style="edgeStyle=orthogonalEdgeStyle;orthogonalLoop=1;jettySize=auto;html=1;exitX=0.5;exitY=1;exitDx=0;exitDy=0;entryX=0.5;entryY=0;entryDx=0;entryDy=0;fontSize=13;fontColor=#333333;" edge="1" parent="_wyRR_9sv9Ona-ReKIE4-1" source="_wyRR_9sv9Ona-ReKIE4-5" target="_wyRR_9sv9Ona-ReKIE4-86">
          <mxGeometry relative="1" as="geometry">
            <Array as="points">
              <mxPoint x="2149" y="421" />
              <mxPoint x="2940" y="421" />
              <mxPoint x="2940" y="830" />
              <mxPoint x="2247" y="830" />
            </Array>
          </mxGeometry>
        </mxCell>
        <mxCell id="_wyRR_9sv9Ona-ReKIE4-88" style="edgeStyle=orthogonalEdgeStyle;orthogonalLoop=1;jettySize=auto;html=1;exitX=0.5;exitY=1;exitDx=0;exitDy=0;fontSize=13;fontColor=#333333;" edge="1" parent="_wyRR_9sv9Ona-ReKIE4-1" source="_wyRR_9sv9Ona-ReKIE4-24" target="_wyRR_9sv9Ona-ReKIE4-86">
          <mxGeometry relative="1" as="geometry">
            <Array as="points">
              <mxPoint x="3100" y="430" />
              <mxPoint x="2950" y="430" />
              <mxPoint x="2950" y="830" />
              <mxPoint x="2247" y="830" />
            </Array>
          </mxGeometry>
        </mxCell>
        <mxCell id="_wyRR_9sv9Ona-ReKIE4-89" style="edgeStyle=orthogonalEdgeStyle;orthogonalLoop=1;jettySize=auto;html=1;exitX=0.5;exitY=1;exitDx=0;exitDy=0;fontSize=13;fontColor=#333333;" edge="1" parent="_wyRR_9sv9Ona-ReKIE4-1" source="_wyRR_9sv9Ona-ReKIE4-32" target="_wyRR_9sv9Ona-ReKIE4-86">
          <mxGeometry relative="1" as="geometry">
            <Array as="points">
              <mxPoint x="1080.082135523614" y="444.16666666666663" />
              <mxPoint x="1231.2936344969198" y="444.16666666666663" />
              <mxPoint x="1231.2936344969198" y="831.3888888888888" />
              <mxPoint x="2246.5708418891168" y="831.3888888888888" />
            </Array>
          </mxGeometry>
        </mxCell>
        <mxCell id="_wyRR_9sv9Ona-ReKIE4-90" style="edgeStyle=orthogonalEdgeStyle;orthogonalLoop=1;jettySize=auto;html=1;exitX=0.5;exitY=1;exitDx=0;exitDy=0;entryX=0.5;entryY=0;entryDx=0;entryDy=0;fontSize=13;fontColor=#333333;" edge="1" parent="_wyRR_9sv9Ona-ReKIE4-1" source="_wyRR_9sv9Ona-ReKIE4-38" target="_wyRR_9sv9Ona-ReKIE4-86">
          <mxGeometry relative="1" as="geometry">
            <Array as="points">
              <mxPoint x="1485.112936344969" y="421.38888888888886" />
              <mxPoint x="1728.1314168377821" y="421.38888888888886" />
              <mxPoint x="1728.1314168377821" y="831.3888888888888" />
              <mxPoint x="2246.5708418891168" y="831.3888888888888" />
            </Array>
          </mxGeometry>
        </mxCell>
        <mxCell id="_wyRR_9sv9Ona-ReKIE4-91" value="&lt;div style=&quot;font-size: 13px&quot;&gt;Rifle Acquisition:&lt;/div&gt;&lt;div style=&quot;font-size: 13px&quot;&gt;IWI TAVOR 95X&lt;br&gt;&lt;/div&gt;" style="rounded=1;whiteSpace=wrap;html=1;strokeWidth=1;align=center;" vertex="1" parent="_wyRR_9sv9Ona-ReKIE4-1">
          <mxGeometry x="1760.5338809034906" y="1765.2777777777776" width="129.60985626283366" height="102.5" as="geometry" />
        </mxCell>
        <mxCell id="_wyRR_9sv9Ona-ReKIE4-92" style="edgeStyle=orthogonalEdgeStyle;rounded=1;orthogonalLoop=1;jettySize=auto;html=1;exitX=0.5;exitY=1;exitDx=0;exitDy=0;entryX=0.5;entryY=0;entryDx=0;entryDy=0;" edge="1" parent="_wyRR_9sv9Ona-ReKIE4-1" source="_wyRR_9sv9Ona-ReKIE4-6" target="_wyRR_9sv9Ona-ReKIE4-91">
          <mxGeometry relative="1" as="geometry" />
        </mxCell>
        <mxCell id="_wyRR_9sv9Ona-ReKIE4-93" value="&lt;div&gt;Rifle Acquisition:&lt;/div&gt;&lt;div&gt;M4A1 Carbine&lt;br&gt;&lt;/div&gt;" style="rounded=1;whiteSpace=wrap;html=1;strokeWidth=1;fontSize=13;" vertex="1" parent="_wyRR_9sv9Ona-ReKIE4-1">
          <mxGeometry x="1890.1437371663242" y="1765.2777777777776" width="129.60985626283366" height="102.5" as="geometry" />
        </mxCell>
        <mxCell id="_wyRR_9sv9Ona-ReKIE4-94" style="edgeStyle=orthogonalEdgeStyle;rounded=1;orthogonalLoop=1;jettySize=auto;html=1;exitX=0.5;exitY=1;exitDx=0;exitDy=0;" edge="1" parent="_wyRR_9sv9Ona-ReKIE4-1" source="_wyRR_9sv9Ona-ReKIE4-7" target="_wyRR_9sv9Ona-ReKIE4-93">
          <mxGeometry relative="1" as="geometry" />
        </mxCell>
        <mxCell id="_wyRR_9sv9Ona-ReKIE4-95" value="&lt;div style=&quot;font-size: 13px&quot;&gt;&lt;font style=&quot;font-size: 13px&quot;&gt;Rifle Acquisition:&lt;/font&gt;&lt;/div&gt;&lt;div style=&quot;font-size: 13px&quot;&gt;&lt;font style=&quot;font-size: 13px&quot;&gt;AK-15&lt;br&gt;&lt;/font&gt;&lt;/div&gt;" style="rounded=1;whiteSpace=wrap;html=1;strokeWidth=1;" vertex="1" parent="_wyRR_9sv9Ona-ReKIE4-1">
          <mxGeometry x="2019.753593429158" y="1765.2777777777776" width="129.60985626283366" height="102.5" as="geometry" />
        </mxCell>
        <mxCell id="_wyRR_9sv9Ona-ReKIE4-96" style="edgeStyle=orthogonalEdgeStyle;rounded=1;orthogonalLoop=1;jettySize=auto;html=1;exitX=0.5;exitY=1;exitDx=0;exitDy=0;" edge="1" parent="_wyRR_9sv9Ona-ReKIE4-1" source="_wyRR_9sv9Ona-ReKIE4-8" target="_wyRR_9sv9Ona-ReKIE4-95">
          <mxGeometry relative="1" as="geometry" />
        </mxCell>
        <mxCell id="_wyRR_9sv9Ona-ReKIE4-97" value="&lt;div style=&quot;font-size: 13px&quot;&gt;&lt;font style=&quot;font-size: 13px&quot;&gt;Rifle Acquisition:&lt;/font&gt;&lt;/div&gt;&lt;div style=&quot;font-size: 13px&quot;&gt;&lt;font style=&quot;font-size: 13px&quot;&gt;FN SCAR-H&lt;/font&gt;&lt;br&gt;&lt;/div&gt;" style="rounded=1;whiteSpace=wrap;html=1;strokeWidth=1;" vertex="1" parent="_wyRR_9sv9Ona-ReKIE4-1">
          <mxGeometry x="2520.003162217659" y="1765.2794444444444" width="129.60985626283366" height="102.5" as="geometry" />
        </mxCell>
        <mxCell id="_wyRR_9sv9Ona-ReKIE4-98" style="edgeStyle=orthogonalEdgeStyle;rounded=1;orthogonalLoop=1;jettySize=auto;html=1;exitX=0.5;exitY=1;exitDx=0;exitDy=0;" edge="1" parent="_wyRR_9sv9Ona-ReKIE4-1" source="_wyRR_9sv9Ona-ReKIE4-13" target="_wyRR_9sv9Ona-ReKIE4-97">
          <mxGeometry relative="1" as="geometry" />
        </mxCell>
        <mxCell id="_wyRR_9sv9Ona-ReKIE4-99" value="&lt;div&gt;Military Sniper&lt;/div&gt;&lt;div&gt;Acquistion:&lt;/div&gt;AIAW" style="rounded=1;whiteSpace=wrap;html=1;strokeWidth=1;" vertex="1" parent="_wyRR_9sv9Ona-ReKIE4-1">
          <mxGeometry x="2970.001642710472" y="1309.9994444444444" width="129.60985626283366" height="102.5" as="geometry" />
        </mxCell>
        <mxCell id="_wyRR_9sv9Ona-ReKIE4-100" style="edgeStyle=orthogonalEdgeStyle;rounded=1;orthogonalLoop=1;jettySize=auto;html=1;exitX=0.5;exitY=1;exitDx=0;exitDy=0;" edge="1" parent="_wyRR_9sv9Ona-ReKIE4-1" source="_wyRR_9sv9Ona-ReKIE4-25" target="_wyRR_9sv9Ona-ReKIE4-99">
          <mxGeometry relative="1" as="geometry" />
        </mxCell>
        <mxCell id="_wyRR_9sv9Ona-ReKIE4-101" value="&lt;div&gt;Military Sniper&lt;/div&gt;&lt;div&gt;Acquisition:&lt;/div&gt;&lt;div&gt;MSG90&lt;br&gt;&lt;/div&gt;" style="rounded=1;whiteSpace=wrap;html=1;strokeWidth=1;" vertex="1" parent="_wyRR_9sv9Ona-ReKIE4-1">
          <mxGeometry x="3099.611498973306" y="1309.9994444444444" width="129.60985626283366" height="102.5" as="geometry" />
        </mxCell>
        <UserObject label="Automatic Shotgun Aquisition" lucidchartObjectId="NJZdjia7oByf" id="_wyRR_9sv9Ona-ReKIE4-102">
          <mxCell style="html=1;overflow=block;blockSpacing=1;whiteSpace=wrap;;whiteSpace=wrap;fontSize=13;fontColor=#333333;align=center;spacing=9;strokeColor=#333333;strokeOpacity=100;fillOpacity=100;rounded=1;absoluteArcSize=1;arcSize=12;fillColor=#ffffff;strokeWidth=0.8;" vertex="1" parent="_wyRR_9sv9Ona-ReKIE4-1">
            <mxGeometry x="1015.277207392197" y="1765.2777777777776" width="129.60985626283366" height="102.5" as="geometry" />
          </mxCell>
        </UserObject>
        <mxCell id="_wyRR_9sv9Ona-ReKIE4-103" style="edgeStyle=orthogonalEdgeStyle;rounded=1;orthogonalLoop=1;jettySize=auto;html=1;exitX=0.5;exitY=1;exitDx=0;exitDy=0;" edge="1" parent="_wyRR_9sv9Ona-ReKIE4-1" source="_wyRR_9sv9Ona-ReKIE4-26" target="_wyRR_9sv9Ona-ReKIE4-101">
          <mxGeometry relative="1" as="geometry" />
        </mxCell>
        <mxCell id="_wyRR_9sv9Ona-ReKIE4-104" style="edgeStyle=orthogonalEdgeStyle;rounded=1;orthogonalLoop=1;jettySize=auto;html=1;exitX=0.5;exitY=1;exitDx=0;exitDy=0;" edge="1" parent="_wyRR_9sv9Ona-ReKIE4-1" source="_wyRR_9sv9Ona-ReKIE4-86" target="_wyRR_9sv9Ona-ReKIE4-102">
          <mxGeometry relative="1" as="geometry">
            <Array as="points">
              <mxPoint x="2246.5708418891168" y="1674.1666666666665" />
              <mxPoint x="1080.082135523614" y="1674.1666666666665" />
            </Array>
          </mxGeometry>
        </mxCell>
        <UserObject label="Shotgun Acquisition:&lt;br&gt;AA-12" lucidchartObjectId="NJZdjia7oByf" id="_wyRR_9sv9Ona-ReKIE4-105">
          <mxCell style="html=1;overflow=block;blockSpacing=1;whiteSpace=wrap;;whiteSpace=wrap;fontSize=13;fontColor=#333333;align=center;spacing=9;strokeColor=#333333;strokeOpacity=100;fillOpacity=100;rounded=1;absoluteArcSize=1;arcSize=12;fillColor=#ffffff;strokeWidth=0.8;" vertex="1" parent="_wyRR_9sv9Ona-ReKIE4-1">
            <mxGeometry x="950.4722792607802" y="2012.986111111111" width="129.60985626283366" height="102.5" as="geometry" />
          </mxCell>
        </UserObject>
        <UserObject label="&lt;div&gt;Shotgun Acquisition:&lt;/div&gt;&lt;div&gt;USAS-12&lt;br&gt;&lt;/div&gt;" lucidchartObjectId="NJZdjia7oByf" id="_wyRR_9sv9Ona-ReKIE4-106">
          <mxCell style="html=1;overflow=block;blockSpacing=1;whiteSpace=wrap;;whiteSpace=wrap;fontSize=13;fontColor=#333333;align=center;spacing=9;strokeColor=#333333;strokeOpacity=100;fillOpacity=100;rounded=1;absoluteArcSize=1;arcSize=12;fillColor=#ffffff;strokeWidth=0.8;" vertex="1" parent="_wyRR_9sv9Ona-ReKIE4-1">
            <mxGeometry x="1080.082135523614" y="2012.986111111111" width="129.60985626283366" height="102.5" as="geometry" />
          </mxCell>
        </UserObject>
        <mxCell id="_wyRR_9sv9Ona-ReKIE4-107" value="Rifle Modification:&lt;br&gt;MASS" style="shape=process;whiteSpace=wrap;html=1;backgroundOutline=1;rounded=1;strokeWidth=1;" vertex="1" parent="_wyRR_9sv9Ona-ReKIE4-1">
          <mxGeometry x="1134.0862422997945" y="1469.1666666666665" width="129.60985626283366" height="91.11111111111111" as="geometry" />
        </mxCell>
        <mxCell id="_wyRR_9sv9Ona-ReKIE4-108" value="&lt;div&gt;Rifle Modification:&lt;/div&gt;&lt;div&gt;M203&lt;br&gt;&lt;/div&gt;" style="shape=process;whiteSpace=wrap;html=1;backgroundOutline=1;rounded=1;strokeWidth=1;" vertex="1" parent="_wyRR_9sv9Ona-ReKIE4-1">
          <mxGeometry x="1425.7084188911704" y="1469.1666666666665" width="129.60985626283366" height="91.11111111111111" as="geometry" />
        </mxCell>
        <mxCell id="_wyRR_9sv9Ona-ReKIE4-109" value="&lt;div&gt;Rifle Modification:&lt;/div&gt;&lt;div&gt;M320&lt;br&gt;&lt;/div&gt;" style="shape=process;whiteSpace=wrap;html=1;backgroundOutline=1;rounded=1;strokeWidth=1;" vertex="1" parent="_wyRR_9sv9Ona-ReKIE4-1">
          <mxGeometry x="1555.318275154004" y="1469.1666666666665" width="129.60985626283366" height="91.11111111111111" as="geometry" />
        </mxCell>
        <mxCell id="_wyRR_9sv9Ona-ReKIE4-110" value="&lt;div&gt;Rifle Modification:&lt;/div&gt;&lt;div&gt;FN40GL&lt;br&gt;&lt;/div&gt;" style="shape=process;whiteSpace=wrap;html=1;backgroundOutline=1;rounded=1;strokeWidth=1;" vertex="1" parent="_wyRR_9sv9Ona-ReKIE4-1">
          <mxGeometry x="1684.9281314168377" y="1469.1666666666665" width="129.60985626283366" height="91.11111111111111" as="geometry" />
        </mxCell>
        <mxCell id="_wyRR_9sv9Ona-ReKIE4-111" value="Advanced NightVision" style="rounded=0;whiteSpace=wrap;html=1;strokeWidth=1;" vertex="1" parent="_wyRR_9sv9Ona-ReKIE4-1">
          <mxGeometry x="270.0205338809035" y="1765.2777777777776" width="129.60985626283366" height="91.11111111111111" as="geometry" />
        </mxCell>
        <mxCell id="_wyRR_9sv9Ona-ReKIE4-112" value="Heavy Vest" style="rounded=0;whiteSpace=wrap;html=1;strokeWidth=1;" vertex="1" parent="_wyRR_9sv9Ona-ReKIE4-1">
          <mxGeometry x="367.2279260780287" y="1901.9444444444443" width="129.60985626283366" height="91.11111111111111" as="geometry" />
        </mxCell>
        <mxCell id="_wyRR_9sv9Ona-ReKIE4-113" style="edgeStyle=orthogonalEdgeStyle;rounded=0;orthogonalLoop=1;jettySize=auto;html=1;exitX=0.5;exitY=1;exitDx=0;exitDy=0;entryX=0.5;entryY=0;entryDx=0;entryDy=0;" edge="1" parent="_wyRR_9sv9Ona-ReKIE4-1" source="_wyRR_9sv9Ona-ReKIE4-115" target="_wyRR_9sv9Ona-ReKIE4-191">
          <mxGeometry relative="1" as="geometry" />
        </mxCell>
        <mxCell id="_wyRR_9sv9Ona-ReKIE4-114" style="edgeStyle=orthogonalEdgeStyle;rounded=0;orthogonalLoop=1;jettySize=auto;html=1;exitX=0.5;exitY=1;exitDx=0;exitDy=0;" edge="1" parent="_wyRR_9sv9Ona-ReKIE4-1" source="_wyRR_9sv9Ona-ReKIE4-115" target="_wyRR_9sv9Ona-ReKIE4-228">
          <mxGeometry relative="1" as="geometry" />
        </mxCell>
        <mxCell id="_wyRR_9sv9Ona-ReKIE4-392" style="edgeStyle=orthogonalEdgeStyle;rounded=0;orthogonalLoop=1;jettySize=auto;html=1;exitX=0.5;exitY=1;exitDx=0;exitDy=0;entryX=0.5;entryY=0;entryDx=0;entryDy=0;" edge="1" parent="_wyRR_9sv9Ona-ReKIE4-1" source="_wyRR_9sv9Ona-ReKIE4-115" target="_wyRR_9sv9Ona-ReKIE4-391">
          <mxGeometry relative="1" as="geometry" />
        </mxCell>
        <mxCell id="_wyRR_9sv9Ona-ReKIE4-398" style="edgeStyle=orthogonalEdgeStyle;rounded=0;orthogonalLoop=1;jettySize=auto;html=1;exitX=0.5;exitY=1;exitDx=0;exitDy=0;entryX=0.5;entryY=0;entryDx=0;entryDy=0;" edge="1" parent="_wyRR_9sv9Ona-ReKIE4-1" source="_wyRR_9sv9Ona-ReKIE4-115" target="_wyRR_9sv9Ona-ReKIE4-393">
          <mxGeometry relative="1" as="geometry" />
        </mxCell>
        <mxCell id="_wyRR_9sv9Ona-ReKIE4-399" style="edgeStyle=orthogonalEdgeStyle;rounded=0;orthogonalLoop=1;jettySize=auto;html=1;exitX=0.5;exitY=1;exitDx=0;exitDy=0;entryX=0.5;entryY=0;entryDx=0;entryDy=0;" edge="1" parent="_wyRR_9sv9Ona-ReKIE4-1" source="_wyRR_9sv9Ona-ReKIE4-115" target="_wyRR_9sv9Ona-ReKIE4-394">
          <mxGeometry relative="1" as="geometry" />
        </mxCell>
        <mxCell id="_wyRR_9sv9Ona-ReKIE4-400" style="edgeStyle=orthogonalEdgeStyle;rounded=0;orthogonalLoop=1;jettySize=auto;html=1;exitX=0.5;exitY=1;exitDx=0;exitDy=0;entryX=0.5;entryY=0;entryDx=0;entryDy=0;" edge="1" parent="_wyRR_9sv9Ona-ReKIE4-1" source="_wyRR_9sv9Ona-ReKIE4-115" target="_wyRR_9sv9Ona-ReKIE4-395">
          <mxGeometry relative="1" as="geometry" />
        </mxCell>
        <mxCell id="_wyRR_9sv9Ona-ReKIE4-401" style="edgeStyle=orthogonalEdgeStyle;rounded=0;orthogonalLoop=1;jettySize=auto;html=1;exitX=0.5;exitY=1;exitDx=0;exitDy=0;entryX=0.5;entryY=0;entryDx=0;entryDy=0;" edge="1" parent="_wyRR_9sv9Ona-ReKIE4-1" source="_wyRR_9sv9Ona-ReKIE4-115" target="_wyRR_9sv9Ona-ReKIE4-396">
          <mxGeometry relative="1" as="geometry" />
        </mxCell>
        <mxCell id="_wyRR_9sv9Ona-ReKIE4-115" value="LMG Acquisition" style="rounded=1;whiteSpace=wrap;html=1;strokeWidth=1;" vertex="1" parent="_wyRR_9sv9Ona-ReKIE4-1">
          <mxGeometry x="1814.5379876796712" y="2061.3888888888887" width="129.60985626283366" height="91.11111111111111" as="geometry" />
        </mxCell>
        <mxCell id="_wyRR_9sv9Ona-ReKIE4-116" style="edgeStyle=orthogonalEdgeStyle;rounded=1;orthogonalLoop=1;jettySize=auto;html=1;exitX=0.5;exitY=1;exitDx=0;exitDy=0;" edge="1" parent="_wyRR_9sv9Ona-ReKIE4-1" source="_wyRR_9sv9Ona-ReKIE4-102" target="_wyRR_9sv9Ona-ReKIE4-105">
          <mxGeometry relative="1" as="geometry" />
        </mxCell>
        <mxCell id="_wyRR_9sv9Ona-ReKIE4-117" style="edgeStyle=orthogonalEdgeStyle;rounded=1;orthogonalLoop=1;jettySize=auto;html=1;exitX=0.5;exitY=1;exitDx=0;exitDy=0;" edge="1" parent="_wyRR_9sv9Ona-ReKIE4-1" source="_wyRR_9sv9Ona-ReKIE4-102" target="_wyRR_9sv9Ona-ReKIE4-106">
          <mxGeometry relative="1" as="geometry" />
        </mxCell>
        <mxCell id="_wyRR_9sv9Ona-ReKIE4-118" style="edgeStyle=orthogonalEdgeStyle;rounded=1;orthogonalLoop=1;jettySize=auto;html=1;exitX=0.5;exitY=1;exitDx=0;exitDy=0;dashed=1;" edge="1" parent="_wyRR_9sv9Ona-ReKIE4-1" source="_wyRR_9sv9Ona-ReKIE4-7" target="_wyRR_9sv9Ona-ReKIE4-107">
          <mxGeometry relative="1" as="geometry">
            <Array as="points">
              <mxPoint x="1954.9486652977412" y="1218.611111111111" />
              <mxPoint x="1198.8911704312113" y="1218.611111111111" />
            </Array>
          </mxGeometry>
        </mxCell>
        <mxCell id="_wyRR_9sv9Ona-ReKIE4-119" value="&lt;div&gt;LMG Acquisition:&lt;/div&gt;&lt;div&gt;M249&lt;br&gt;&lt;/div&gt;" style="rounded=1;whiteSpace=wrap;html=1;strokeWidth=1;" vertex="1" parent="_wyRR_9sv9Ona-ReKIE4-1">
          <mxGeometry x="1684.9281314168377" y="2232.222222222222" width="129.60985626283366" height="91.11111111111111" as="geometry" />
        </mxCell>
        <mxCell id="_wyRR_9sv9Ona-ReKIE4-120" value="&lt;div&gt;LMG Acquisition:&lt;/div&gt;&lt;div&gt;MK48&lt;br&gt;&lt;/div&gt;" style="rounded=1;whiteSpace=wrap;html=1;strokeWidth=1;" vertex="1" parent="_wyRR_9sv9Ona-ReKIE4-1">
          <mxGeometry x="1814.5379876796712" y="2232.222222222222" width="129.60985626283366" height="91.11111111111111" as="geometry" />
        </mxCell>
        <mxCell id="_wyRR_9sv9Ona-ReKIE4-121" value="&lt;div&gt;LMG Acquisition:&lt;/div&gt;&lt;div&gt;PKP Pecheneg&lt;br&gt;&lt;/div&gt;" style="rounded=1;whiteSpace=wrap;html=1;strokeWidth=1;" vertex="1" parent="_wyRR_9sv9Ona-ReKIE4-1">
          <mxGeometry x="1944.147843942505" y="2232.222222222222" width="129.60985626283366" height="91.11111111111111" as="geometry" />
        </mxCell>
        <mxCell id="_wyRR_9sv9Ona-ReKIE4-123" style="edgeStyle=orthogonalEdgeStyle;rounded=0;orthogonalLoop=1;jettySize=auto;html=1;exitX=0.5;exitY=1;exitDx=0;exitDy=0;entryX=0.5;entryY=0;entryDx=0;entryDy=0;" edge="1" parent="_wyRR_9sv9Ona-ReKIE4-1" source="_wyRR_9sv9Ona-ReKIE4-125" target="_wyRR_9sv9Ona-ReKIE4-237">
          <mxGeometry relative="1" as="geometry" />
        </mxCell>
        <mxCell id="_wyRR_9sv9Ona-ReKIE4-124" style="edgeStyle=orthogonalEdgeStyle;rounded=0;orthogonalLoop=1;jettySize=auto;html=1;exitX=0.5;exitY=1;exitDx=0;exitDy=0;entryX=0.5;entryY=0;entryDx=0;entryDy=0;" edge="1" parent="_wyRR_9sv9Ona-ReKIE4-1" source="_wyRR_9sv9Ona-ReKIE4-125" target="_wyRR_9sv9Ona-ReKIE4-238">
          <mxGeometry relative="1" as="geometry" />
        </mxCell>
        <mxCell id="_wyRR_9sv9Ona-ReKIE4-125" value="AT Weaponry&amp;nbsp; Aquisition" style="rounded=1;whiteSpace=wrap;html=1;strokeWidth=1;" vertex="1" parent="_wyRR_9sv9Ona-ReKIE4-1">
          <mxGeometry x="2408.583162217659" y="1993.0588888888888" width="129.60985626283366" height="91.11111111111111" as="geometry" />
        </mxCell>
        <mxCell id="_wyRR_9sv9Ona-ReKIE4-126" style="edgeStyle=orthogonalEdgeStyle;rounded=0;orthogonalLoop=1;jettySize=auto;html=1;exitX=0.5;exitY=1;exitDx=0;exitDy=0;" edge="1" parent="_wyRR_9sv9Ona-ReKIE4-1" source="_wyRR_9sv9Ona-ReKIE4-129" target="_wyRR_9sv9Ona-ReKIE4-211">
          <mxGeometry relative="1" as="geometry" />
        </mxCell>
        <mxCell id="_wyRR_9sv9Ona-ReKIE4-127" style="edgeStyle=orthogonalEdgeStyle;rounded=0;orthogonalLoop=1;jettySize=auto;html=1;exitX=0.5;exitY=1;exitDx=0;exitDy=0;entryX=0.5;entryY=0;entryDx=0;entryDy=0;" edge="1" parent="_wyRR_9sv9Ona-ReKIE4-1" source="_wyRR_9sv9Ona-ReKIE4-129" target="_wyRR_9sv9Ona-ReKIE4-226">
          <mxGeometry relative="1" as="geometry" />
        </mxCell>
        <mxCell id="_wyRR_9sv9Ona-ReKIE4-128" style="edgeStyle=orthogonalEdgeStyle;rounded=0;orthogonalLoop=1;jettySize=auto;html=1;exitX=0.5;exitY=1;exitDx=0;exitDy=0;" edge="1" parent="_wyRR_9sv9Ona-ReKIE4-1" source="_wyRR_9sv9Ona-ReKIE4-129">
          <mxGeometry relative="1" as="geometry">
            <mxPoint x="2000" y="2620" as="targetPoint" />
          </mxGeometry>
        </mxCell>
        <mxCell id="_wyRR_9sv9Ona-ReKIE4-129" value="Private Contractors" style="rhombus;whiteSpace=wrap;html=1;rounded=1;strokeWidth=1;" vertex="1" parent="_wyRR_9sv9Ona-ReKIE4-1">
          <mxGeometry x="2176.365503080082" y="2448.611111111111" width="140.4106776180698" height="91.11111111111111" as="geometry" />
        </mxCell>
        <mxCell id="_wyRR_9sv9Ona-ReKIE4-130" style="edgeStyle=orthogonalEdgeStyle;rounded=1;orthogonalLoop=1;jettySize=auto;html=1;exitX=0.5;exitY=1;exitDx=0;exitDy=0;dashed=1;" edge="1" parent="_wyRR_9sv9Ona-ReKIE4-1" source="_wyRR_9sv9Ona-ReKIE4-10" target="_wyRR_9sv9Ona-ReKIE4-107">
          <mxGeometry relative="1" as="geometry">
            <Array as="points">
              <mxPoint x="2214" y="940" />
              <mxPoint x="2085" y="940" />
              <mxPoint x="2085" y="1219" />
              <mxPoint x="1199" y="1219" />
            </Array>
          </mxGeometry>
        </mxCell>
        <mxCell id="_wyRR_9sv9Ona-ReKIE4-131" style="edgeStyle=orthogonalEdgeStyle;rounded=1;orthogonalLoop=1;jettySize=auto;html=1;exitX=0.5;exitY=1;exitDx=0;exitDy=0;" edge="1" parent="_wyRR_9sv9Ona-ReKIE4-1" source="_wyRR_9sv9Ona-ReKIE4-32" target="_wyRR_9sv9Ona-ReKIE4-107">
          <mxGeometry relative="1" as="geometry">
            <Array as="points">
              <mxPoint x="1080.082135523614" y="1400.8333333333333" />
              <mxPoint x="1198.8911704312113" y="1400.8333333333333" />
            </Array>
          </mxGeometry>
        </mxCell>
        <mxCell id="_wyRR_9sv9Ona-ReKIE4-132" style="edgeStyle=orthogonalEdgeStyle;rounded=1;orthogonalLoop=1;jettySize=auto;html=1;exitX=0.5;exitY=1;exitDx=0;exitDy=0;" edge="1" parent="_wyRR_9sv9Ona-ReKIE4-1" source="_wyRR_9sv9Ona-ReKIE4-86" target="_wyRR_9sv9Ona-ReKIE4-107">
          <mxGeometry relative="1" as="geometry" />
        </mxCell>
        <mxCell id="_wyRR_9sv9Ona-ReKIE4-133" style="edgeStyle=orthogonalEdgeStyle;rounded=0;orthogonalLoop=1;jettySize=auto;html=1;exitX=0.5;exitY=1;exitDx=0;exitDy=0;entryX=0.5;entryY=0;entryDx=0;entryDy=0;" edge="1" parent="_wyRR_9sv9Ona-ReKIE4-1" source="_wyRR_9sv9Ona-ReKIE4-137" target="_wyRR_9sv9Ona-ReKIE4-155">
          <mxGeometry relative="1" as="geometry" />
        </mxCell>
        <mxCell id="_wyRR_9sv9Ona-ReKIE4-134" style="edgeStyle=orthogonalEdgeStyle;rounded=0;orthogonalLoop=1;jettySize=auto;html=1;exitX=0.5;exitY=1;exitDx=0;exitDy=0;entryX=0.5;entryY=0;entryDx=0;entryDy=0;" edge="1" parent="_wyRR_9sv9Ona-ReKIE4-1" source="_wyRR_9sv9Ona-ReKIE4-137" target="_wyRR_9sv9Ona-ReKIE4-188">
          <mxGeometry relative="1" as="geometry" />
        </mxCell>
        <mxCell id="_wyRR_9sv9Ona-ReKIE4-135" style="edgeStyle=orthogonalEdgeStyle;rounded=0;orthogonalLoop=1;jettySize=auto;html=1;exitX=0.5;exitY=1;exitDx=0;exitDy=0;entryX=0.5;entryY=0;entryDx=0;entryDy=0;" edge="1" parent="_wyRR_9sv9Ona-ReKIE4-1" source="_wyRR_9sv9Ona-ReKIE4-137" target="_wyRR_9sv9Ona-ReKIE4-230">
          <mxGeometry relative="1" as="geometry" />
        </mxCell>
        <mxCell id="_wyRR_9sv9Ona-ReKIE4-136" style="edgeStyle=orthogonalEdgeStyle;rounded=0;orthogonalLoop=1;jettySize=auto;html=1;exitX=0.5;exitY=1;exitDx=0;exitDy=0;entryX=0.5;entryY=0;entryDx=0;entryDy=0;" edge="1" parent="_wyRR_9sv9Ona-ReKIE4-1" source="_wyRR_9sv9Ona-ReKIE4-137" target="_wyRR_9sv9Ona-ReKIE4-235">
          <mxGeometry relative="1" as="geometry" />
        </mxCell>
        <mxCell id="_wyRR_9sv9Ona-ReKIE4-137" value="Adv. SMG aquisition" style="rhombus;whiteSpace=wrap;html=1;rounded=1;strokeWidth=1;" vertex="1" parent="_wyRR_9sv9Ona-ReKIE4-1">
          <mxGeometry x="1089.9178644763858" y="2619.4444444444443" width="140.4106776180698" height="91.11111111111111" as="geometry" />
        </mxCell>
        <mxCell id="_wyRR_9sv9Ona-ReKIE4-138" style="edgeStyle=orthogonalEdgeStyle;rounded=1;orthogonalLoop=1;jettySize=auto;html=1;exitX=0.5;exitY=1;exitDx=0;exitDy=0;" edge="1" parent="_wyRR_9sv9Ona-ReKIE4-1" source="_wyRR_9sv9Ona-ReKIE4-6" target="_wyRR_9sv9Ona-ReKIE4-108">
          <mxGeometry relative="1" as="geometry">
            <Array as="points">
              <mxPoint x="1825.3388090349074" y="1241.388888888889" />
              <mxPoint x="1490.5133470225871" y="1241.388888888889" />
            </Array>
          </mxGeometry>
        </mxCell>
        <mxCell id="_wyRR_9sv9Ona-ReKIE4-139" style="edgeStyle=orthogonalEdgeStyle;rounded=1;orthogonalLoop=1;jettySize=auto;html=1;exitX=0.5;exitY=1;exitDx=0;exitDy=0;entryX=0.5;entryY=0;entryDx=0;entryDy=0;" edge="1" parent="_wyRR_9sv9Ona-ReKIE4-1" source="_wyRR_9sv9Ona-ReKIE4-231" target="_wyRR_9sv9Ona-ReKIE4-108">
          <mxGeometry relative="1" as="geometry">
            <Array as="points">
              <mxPoint x="1355.5030800821355" y="1435" />
              <mxPoint x="1490.5133470225871" y="1435" />
            </Array>
          </mxGeometry>
        </mxCell>
        <mxCell id="_wyRR_9sv9Ona-ReKIE4-140" style="edgeStyle=orthogonalEdgeStyle;rounded=1;orthogonalLoop=1;jettySize=auto;html=1;exitX=0.5;exitY=1;exitDx=0;exitDy=0;entryX=0.5;entryY=0;entryDx=0;entryDy=0;" edge="1" parent="_wyRR_9sv9Ona-ReKIE4-1" source="_wyRR_9sv9Ona-ReKIE4-86" target="_wyRR_9sv9Ona-ReKIE4-108">
          <mxGeometry relative="1" as="geometry">
            <Array as="points">
              <mxPoint x="2246.5708418891168" y="1435" />
              <mxPoint x="1490.5133470225871" y="1435" />
            </Array>
          </mxGeometry>
        </mxCell>
        <mxCell id="_wyRR_9sv9Ona-ReKIE4-141" style="edgeStyle=orthogonalEdgeStyle;rounded=1;orthogonalLoop=1;jettySize=auto;html=1;exitX=0.5;exitY=1;exitDx=0;exitDy=0;entryX=0.5;entryY=0;entryDx=0;entryDy=0;dashed=1;" edge="1" parent="_wyRR_9sv9Ona-ReKIE4-1" source="_wyRR_9sv9Ona-ReKIE4-7" target="_wyRR_9sv9Ona-ReKIE4-109">
          <mxGeometry relative="1" as="geometry">
            <Array as="points">
              <mxPoint x="1954.9486652977412" y="1321.111111111111" />
              <mxPoint x="1620.123203285421" y="1321.111111111111" />
            </Array>
          </mxGeometry>
        </mxCell>
        <mxCell id="_wyRR_9sv9Ona-ReKIE4-142" style="edgeStyle=orthogonalEdgeStyle;rounded=0;orthogonalLoop=1;jettySize=auto;html=1;exitX=0.5;exitY=1;exitDx=0;exitDy=0;entryX=0.5;entryY=0;entryDx=0;entryDy=0;" edge="1" parent="_wyRR_9sv9Ona-ReKIE4-1" source="_wyRR_9sv9Ona-ReKIE4-143" target="_wyRR_9sv9Ona-ReKIE4-158">
          <mxGeometry relative="1" as="geometry" />
        </mxCell>
        <mxCell id="_wyRR_9sv9Ona-ReKIE4-143" value="Adv. AR Aquisition" style="rhombus;whiteSpace=wrap;html=1;rounded=1;strokeWidth=1;" vertex="1" parent="_wyRR_9sv9Ona-ReKIE4-1">
          <mxGeometry x="2176.365503080082" y="2619.4444444444443" width="140.4106776180698" height="91.11111111111111" as="geometry" />
        </mxCell>
        <mxCell id="_wyRR_9sv9Ona-ReKIE4-144" style="edgeStyle=orthogonalEdgeStyle;rounded=1;orthogonalLoop=1;jettySize=auto;html=1;exitX=0.5;exitY=1;exitDx=0;exitDy=0;entryX=0.5;entryY=0;entryDx=0;entryDy=0;dashed=1;" edge="1" parent="_wyRR_9sv9Ona-ReKIE4-1" source="_wyRR_9sv9Ona-ReKIE4-10" target="_wyRR_9sv9Ona-ReKIE4-109">
          <mxGeometry relative="1" as="geometry">
            <Array as="points">
              <mxPoint x="2214" y="900" />
              <mxPoint x="2085" y="900" />
              <mxPoint x="2085" y="1321" />
              <mxPoint x="1620" y="1321" />
            </Array>
          </mxGeometry>
        </mxCell>
        <mxCell id="_wyRR_9sv9Ona-ReKIE4-145" style="edgeStyle=orthogonalEdgeStyle;rounded=1;orthogonalLoop=1;jettySize=auto;html=1;exitX=0.5;exitY=1;exitDx=0;exitDy=0;" edge="1" parent="_wyRR_9sv9Ona-ReKIE4-1" source="_wyRR_9sv9Ona-ReKIE4-231" target="_wyRR_9sv9Ona-ReKIE4-109">
          <mxGeometry relative="1" as="geometry">
            <Array as="points">
              <mxPoint x="1355.5030800821355" y="1435" />
              <mxPoint x="1620.123203285421" y="1435" />
            </Array>
          </mxGeometry>
        </mxCell>
        <mxCell id="_wyRR_9sv9Ona-ReKIE4-146" style="edgeStyle=orthogonalEdgeStyle;rounded=1;orthogonalLoop=1;jettySize=auto;html=1;exitX=0.5;exitY=1;exitDx=0;exitDy=0;entryX=0.5;entryY=0;entryDx=0;entryDy=0;" edge="1" parent="_wyRR_9sv9Ona-ReKIE4-1" source="_wyRR_9sv9Ona-ReKIE4-86" target="_wyRR_9sv9Ona-ReKIE4-109">
          <mxGeometry relative="1" as="geometry">
            <Array as="points">
              <mxPoint x="2246.5708418891168" y="1435" />
              <mxPoint x="1620.123203285421" y="1435" />
            </Array>
          </mxGeometry>
        </mxCell>
        <mxCell id="_wyRR_9sv9Ona-ReKIE4-147" style="edgeStyle=orthogonalEdgeStyle;rounded=1;orthogonalLoop=1;jettySize=auto;html=1;exitX=0.5;exitY=1;exitDx=0;exitDy=0;" edge="1" parent="_wyRR_9sv9Ona-ReKIE4-1" source="_wyRR_9sv9Ona-ReKIE4-13" target="_wyRR_9sv9Ona-ReKIE4-110">
          <mxGeometry relative="1" as="geometry">
            <Array as="points">
              <mxPoint x="2473.388090349076" y="1366.6666666666665" />
              <mxPoint x="1749.7330595482545" y="1366.6666666666665" />
            </Array>
          </mxGeometry>
        </mxCell>
        <mxCell id="_wyRR_9sv9Ona-ReKIE4-148" style="edgeStyle=orthogonalEdgeStyle;rounded=0;orthogonalLoop=1;jettySize=auto;html=1;exitX=0.5;exitY=1;exitDx=0;exitDy=0;entryX=0.5;entryY=0;entryDx=0;entryDy=0;" edge="1" parent="_wyRR_9sv9Ona-ReKIE4-1" source="_wyRR_9sv9Ona-ReKIE4-150" target="_wyRR_9sv9Ona-ReKIE4-157">
          <mxGeometry relative="1" as="geometry" />
        </mxCell>
        <mxCell id="_wyRR_9sv9Ona-ReKIE4-149" style="edgeStyle=orthogonalEdgeStyle;rounded=0;orthogonalLoop=1;jettySize=auto;html=1;exitX=0.5;exitY=1;exitDx=0;exitDy=0;entryX=0.5;entryY=0;entryDx=0;entryDy=0;" edge="1" parent="_wyRR_9sv9Ona-ReKIE4-1" source="_wyRR_9sv9Ona-ReKIE4-150" target="_wyRR_9sv9Ona-ReKIE4-208">
          <mxGeometry relative="1" as="geometry" />
        </mxCell>
        <mxCell id="_wyRR_9sv9Ona-ReKIE4-150" value="Adv. Sniper Aquisition" style="rhombus;whiteSpace=wrap;html=1;rounded=1;strokeWidth=1;" vertex="1" parent="_wyRR_9sv9Ona-ReKIE4-1">
          <mxGeometry x="2808.213552361396" y="2619.4444444444443" width="140.4106776180698" height="91.11111111111111" as="geometry" />
        </mxCell>
        <mxCell id="_wyRR_9sv9Ona-ReKIE4-151" style="edgeStyle=orthogonalEdgeStyle;rounded=1;orthogonalLoop=1;jettySize=auto;html=1;exitX=0.5;exitY=1;exitDx=0;exitDy=0;" edge="1" parent="_wyRR_9sv9Ona-ReKIE4-1" source="_wyRR_9sv9Ona-ReKIE4-231" target="_wyRR_9sv9Ona-ReKIE4-110">
          <mxGeometry relative="1" as="geometry">
            <Array as="points">
              <mxPoint x="1355.5030800821355" y="1435" />
              <mxPoint x="1749.7330595482545" y="1435" />
            </Array>
          </mxGeometry>
        </mxCell>
        <mxCell id="_wyRR_9sv9Ona-ReKIE4-152" style="edgeStyle=orthogonalEdgeStyle;rounded=1;orthogonalLoop=1;jettySize=auto;html=1;exitX=0.5;exitY=1;exitDx=0;exitDy=0;" edge="1" parent="_wyRR_9sv9Ona-ReKIE4-1" source="_wyRR_9sv9Ona-ReKIE4-86" target="_wyRR_9sv9Ona-ReKIE4-110">
          <mxGeometry relative="1" as="geometry">
            <Array as="points">
              <mxPoint x="2246.5708418891168" y="1435" />
              <mxPoint x="1749.7330595482545" y="1435" />
            </Array>
          </mxGeometry>
        </mxCell>
        <mxCell id="_wyRR_9sv9Ona-ReKIE4-153" style="edgeStyle=orthogonalEdgeStyle;rounded=1;orthogonalLoop=1;jettySize=auto;html=1;exitX=0.5;exitY=1;exitDx=0;exitDy=0;entryX=0.5;entryY=0;entryDx=0;entryDy=0;" edge="1" parent="_wyRR_9sv9Ona-ReKIE4-1" source="_wyRR_9sv9Ona-ReKIE4-71" target="_wyRR_9sv9Ona-ReKIE4-111">
          <mxGeometry relative="1" as="geometry" />
        </mxCell>
        <mxCell id="_wyRR_9sv9Ona-ReKIE4-154" value="&lt;div&gt;Private Contract:&lt;/div&gt;&lt;div&gt;SIG MPX&lt;br&gt;&lt;/div&gt;" style="rounded=1;whiteSpace=wrap;html=1;strokeWidth=1;" vertex="1" parent="_wyRR_9sv9Ona-ReKIE4-1">
          <mxGeometry x="959.9993839835726" y="2776.038888888889" width="129.60985626283366" height="91.11111111111111" as="geometry" />
        </mxCell>
        <mxCell id="_wyRR_9sv9Ona-ReKIE4-155" value="&lt;div&gt;Private Contract:&lt;/div&gt;&lt;div&gt;FN P90&lt;br&gt;&lt;/div&gt;" style="rounded=1;whiteSpace=wrap;html=1;strokeWidth=1;" vertex="1" parent="_wyRR_9sv9Ona-ReKIE4-1">
          <mxGeometry x="1230.3285215605747" y="2776.038888888889" width="129.60985626283366" height="91.11111111111111" as="geometry" />
        </mxCell>
        <mxCell id="_wyRR_9sv9Ona-ReKIE4-156" value="&lt;div&gt;Private Contract:&lt;/div&gt;&lt;div&gt;HK G11&lt;br&gt;&lt;/div&gt;" style="rounded=1;whiteSpace=wrap;html=1;strokeWidth=1;" vertex="1" parent="_wyRR_9sv9Ona-ReKIE4-1">
          <mxGeometry x="2181.7633059548252" y="2776.038888888889" width="129.60985626283366" height="91.11111111111111" as="geometry" />
        </mxCell>
        <mxCell id="_wyRR_9sv9Ona-ReKIE4-157" value="&lt;div&gt;Private Contract:&lt;/div&gt;&lt;div&gt;Sako TRG&lt;br&gt;&lt;/div&gt;" style="rounded=1;whiteSpace=wrap;html=1;strokeWidth=1;" vertex="1" parent="_wyRR_9sv9Ona-ReKIE4-1">
          <mxGeometry x="2813.608090349076" y="2778.8888888888887" width="129.60985626283366" height="91.11111111111111" as="geometry" />
        </mxCell>
        <mxCell id="_wyRR_9sv9Ona-ReKIE4-158" value="&lt;div&gt;Private Contract:&lt;/div&gt;&lt;div&gt;SR-3 Vikhr&lt;br&gt;&lt;/div&gt;" style="rounded=1;whiteSpace=wrap;html=1;strokeWidth=1;" vertex="1" parent="_wyRR_9sv9Ona-ReKIE4-1">
          <mxGeometry x="2052.157659137577" y="2776.038888888889" width="129.60985626283366" height="91.11111111111111" as="geometry" />
        </mxCell>
        <mxCell id="_wyRR_9sv9Ona-ReKIE4-159" value="&lt;div&gt;Private Contract:&lt;/div&gt;&lt;div&gt;VSS Vintorez&lt;br&gt;&lt;/div&gt;" style="rounded=1;whiteSpace=wrap;html=1;strokeWidth=1;" vertex="1" parent="_wyRR_9sv9Ona-ReKIE4-1">
          <mxGeometry x="2943.2224435318276" y="2778.8888888888887" width="129.60985626283366" height="91.11111111111111" as="geometry" />
        </mxCell>
        <mxCell id="_wyRR_9sv9Ona-ReKIE4-160" value="&lt;div&gt;GL Aquisition:&lt;/div&gt;&lt;div&gt;Milkor MGL&lt;br&gt;&lt;/div&gt;" style="rounded=1;whiteSpace=wrap;html=1;strokeWidth=1;" vertex="1" parent="_wyRR_9sv9Ona-ReKIE4-1">
          <mxGeometry x="2677.3772279260775" y="2127.148888888889" width="129.60985626283366" height="91.11111111111111" as="geometry" />
        </mxCell>
        <mxCell id="_wyRR_9sv9Ona-ReKIE4-161" style="edgeStyle=orthogonalEdgeStyle;rounded=1;orthogonalLoop=1;jettySize=auto;html=1;exitX=0.5;exitY=1;exitDx=0;exitDy=0;" edge="1" parent="_wyRR_9sv9Ona-ReKIE4-1" source="_wyRR_9sv9Ona-ReKIE4-86" target="_wyRR_9sv9Ona-ReKIE4-111">
          <mxGeometry relative="1" as="geometry">
            <Array as="points">
              <mxPoint x="2246.5708418891168" y="1674.1666666666665" />
              <mxPoint x="334.8254620123203" y="1674.1666666666665" />
            </Array>
          </mxGeometry>
        </mxCell>
        <mxCell id="_wyRR_9sv9Ona-ReKIE4-162" style="edgeStyle=orthogonalEdgeStyle;rounded=1;orthogonalLoop=1;jettySize=auto;html=1;exitX=0.5;exitY=1;exitDx=0;exitDy=0;entryX=0.5;entryY=0;entryDx=0;entryDy=0;" edge="1" parent="_wyRR_9sv9Ona-ReKIE4-1" source="_wyRR_9sv9Ona-ReKIE4-46" target="_wyRR_9sv9Ona-ReKIE4-112">
          <mxGeometry relative="1" as="geometry">
            <Array as="points">
              <mxPoint x="432.03285420944553" y="1867.7777777777776" />
              <mxPoint x="432.03285420944553" y="1867.7777777777776" />
            </Array>
          </mxGeometry>
        </mxCell>
        <mxCell id="_wyRR_9sv9Ona-ReKIE4-163" style="edgeStyle=orthogonalEdgeStyle;rounded=1;orthogonalLoop=1;jettySize=auto;html=1;exitX=0.5;exitY=1;exitDx=0;exitDy=0;" edge="1" parent="_wyRR_9sv9Ona-ReKIE4-1" source="_wyRR_9sv9Ona-ReKIE4-86" target="_wyRR_9sv9Ona-ReKIE4-112">
          <mxGeometry relative="1" as="geometry">
            <Array as="points">
              <mxPoint x="2246.5708418891168" y="1674.1666666666665" />
              <mxPoint x="432.03285420944553" y="1674.1666666666665" />
            </Array>
          </mxGeometry>
        </mxCell>
        <mxCell id="_wyRR_9sv9Ona-ReKIE4-164" style="edgeStyle=orthogonalEdgeStyle;rounded=1;orthogonalLoop=1;jettySize=auto;html=1;exitX=0.5;exitY=1;exitDx=0;exitDy=0;" edge="1" parent="_wyRR_9sv9Ona-ReKIE4-1" source="_wyRR_9sv9Ona-ReKIE4-86" target="_wyRR_9sv9Ona-ReKIE4-115">
          <mxGeometry relative="1" as="geometry">
            <Array as="points">
              <mxPoint x="2246.5708418891168" y="1970.2777777777776" />
              <mxPoint x="1879.3429158110882" y="1970.2777777777776" />
            </Array>
          </mxGeometry>
        </mxCell>
        <mxCell id="_wyRR_9sv9Ona-ReKIE4-165" style="edgeStyle=orthogonalEdgeStyle;rounded=1;orthogonalLoop=1;jettySize=auto;html=1;exitX=0.5;exitY=1;exitDx=0;exitDy=0;" edge="1" parent="_wyRR_9sv9Ona-ReKIE4-1" source="_wyRR_9sv9Ona-ReKIE4-115" target="_wyRR_9sv9Ona-ReKIE4-119">
          <mxGeometry relative="1" as="geometry" />
        </mxCell>
        <mxCell id="_wyRR_9sv9Ona-ReKIE4-166" style="edgeStyle=orthogonalEdgeStyle;rounded=1;orthogonalLoop=1;jettySize=auto;html=1;exitX=0.5;exitY=1;exitDx=0;exitDy=0;entryX=0.5;entryY=0;entryDx=0;entryDy=0;" edge="1" parent="_wyRR_9sv9Ona-ReKIE4-1" source="_wyRR_9sv9Ona-ReKIE4-115" target="_wyRR_9sv9Ona-ReKIE4-120">
          <mxGeometry relative="1" as="geometry" />
        </mxCell>
        <mxCell id="_wyRR_9sv9Ona-ReKIE4-167" style="edgeStyle=orthogonalEdgeStyle;rounded=1;orthogonalLoop=1;jettySize=auto;html=1;exitX=0.5;exitY=1;exitDx=0;exitDy=0;entryX=0.5;entryY=0;entryDx=0;entryDy=0;" edge="1" parent="_wyRR_9sv9Ona-ReKIE4-1" source="_wyRR_9sv9Ona-ReKIE4-115" target="_wyRR_9sv9Ona-ReKIE4-121">
          <mxGeometry relative="1" as="geometry" />
        </mxCell>
        <mxCell id="_wyRR_9sv9Ona-ReKIE4-168" style="edgeStyle=orthogonalEdgeStyle;rounded=1;orthogonalLoop=1;jettySize=auto;html=1;exitX=0.5;exitY=1;exitDx=0;exitDy=0;" edge="1" parent="_wyRR_9sv9Ona-ReKIE4-1" source="_wyRR_9sv9Ona-ReKIE4-86" target="_wyRR_9sv9Ona-ReKIE4-125">
          <mxGeometry relative="1" as="geometry">
            <Array as="points">
              <mxPoint x="2246.5708418891168" y="1970.2777777777776" />
              <mxPoint x="2473.388090349076" y="1970.2777777777776" />
            </Array>
          </mxGeometry>
        </mxCell>
        <mxCell id="_wyRR_9sv9Ona-ReKIE4-169" style="edgeStyle=orthogonalEdgeStyle;rounded=1;orthogonalLoop=1;jettySize=auto;html=1;exitX=0.5;exitY=1;exitDx=0;exitDy=0;entryX=0.5;entryY=0;entryDx=0;entryDy=0;" edge="1" parent="_wyRR_9sv9Ona-ReKIE4-1" source="_wyRR_9sv9Ona-ReKIE4-86" target="_wyRR_9sv9Ona-ReKIE4-129">
          <mxGeometry relative="1" as="geometry" />
        </mxCell>
        <mxCell id="_wyRR_9sv9Ona-ReKIE4-170" style="edgeStyle=orthogonalEdgeStyle;rounded=1;orthogonalLoop=1;jettySize=auto;html=1;exitX=0.5;exitY=1;exitDx=0;exitDy=0;" edge="1" parent="_wyRR_9sv9Ona-ReKIE4-1" source="_wyRR_9sv9Ona-ReKIE4-129" target="_wyRR_9sv9Ona-ReKIE4-137">
          <mxGeometry relative="1" as="geometry" />
        </mxCell>
        <mxCell id="_wyRR_9sv9Ona-ReKIE4-171" style="edgeStyle=orthogonalEdgeStyle;rounded=1;orthogonalLoop=1;jettySize=auto;html=1;exitX=0.5;exitY=1;exitDx=0;exitDy=0;entryX=0.5;entryY=0;entryDx=0;entryDy=0;" edge="1" parent="_wyRR_9sv9Ona-ReKIE4-1" source="_wyRR_9sv9Ona-ReKIE4-129" target="_wyRR_9sv9Ona-ReKIE4-143">
          <mxGeometry relative="1" as="geometry" />
        </mxCell>
        <mxCell id="_wyRR_9sv9Ona-ReKIE4-172" style="edgeStyle=orthogonalEdgeStyle;rounded=1;orthogonalLoop=1;jettySize=auto;html=1;exitX=0.5;exitY=1;exitDx=0;exitDy=0;" edge="1" parent="_wyRR_9sv9Ona-ReKIE4-1" source="_wyRR_9sv9Ona-ReKIE4-129" target="_wyRR_9sv9Ona-ReKIE4-150">
          <mxGeometry relative="1" as="geometry" />
        </mxCell>
        <mxCell id="_wyRR_9sv9Ona-ReKIE4-173" style="edgeStyle=orthogonalEdgeStyle;rounded=1;orthogonalLoop=1;jettySize=auto;html=1;exitX=0.5;exitY=1;exitDx=0;exitDy=0;entryX=0.5;entryY=0;entryDx=0;entryDy=0;" edge="1" parent="_wyRR_9sv9Ona-ReKIE4-1" source="_wyRR_9sv9Ona-ReKIE4-137" target="_wyRR_9sv9Ona-ReKIE4-154">
          <mxGeometry relative="1" as="geometry" />
        </mxCell>
        <mxCell id="_wyRR_9sv9Ona-ReKIE4-174" style="edgeStyle=orthogonalEdgeStyle;rounded=1;orthogonalLoop=1;jettySize=auto;html=1;exitX=0.5;exitY=1;exitDx=0;exitDy=0;" edge="1" parent="_wyRR_9sv9Ona-ReKIE4-1" source="_wyRR_9sv9Ona-ReKIE4-143" target="_wyRR_9sv9Ona-ReKIE4-156">
          <mxGeometry relative="1" as="geometry" />
        </mxCell>
        <mxCell id="_wyRR_9sv9Ona-ReKIE4-175" style="edgeStyle=orthogonalEdgeStyle;rounded=1;orthogonalLoop=1;jettySize=auto;html=1;exitX=0.5;exitY=1;exitDx=0;exitDy=0;" edge="1" parent="_wyRR_9sv9Ona-ReKIE4-1" source="_wyRR_9sv9Ona-ReKIE4-150" target="_wyRR_9sv9Ona-ReKIE4-159">
          <mxGeometry relative="1" as="geometry" />
        </mxCell>
        <mxCell id="_wyRR_9sv9Ona-ReKIE4-176" value="&lt;font style=&quot;font-size: 13px&quot;&gt;Ballistic Shield&lt;/font&gt;" style="shape=trapezoid;perimeter=trapezoidPerimeter;whiteSpace=wrap;html=1;fixedSize=1;strokeWidth=1;" vertex="1" parent="_wyRR_9sv9Ona-ReKIE4-1">
          <mxGeometry y="305.79" width="150" height="60" as="geometry" />
        </mxCell>
        <mxCell id="_wyRR_9sv9Ona-ReKIE4-177" style="edgeStyle=orthogonalEdgeStyle;rounded=1;orthogonalLoop=1;jettySize=auto;html=1;exitX=0.5;exitY=1;exitDx=0;exitDy=0;" edge="1" parent="_wyRR_9sv9Ona-ReKIE4-1" source="_wyRR_9sv9Ona-ReKIE4-178" target="_wyRR_9sv9Ona-ReKIE4-180">
          <mxGeometry relative="1" as="geometry" />
        </mxCell>
        <mxCell id="_wyRR_9sv9Ona-ReKIE4-178" value="&lt;font style=&quot;font-size: 13px&quot;&gt;Grenades&lt;/font&gt;" style="shape=trapezoid;perimeter=trapezoidPerimeter;whiteSpace=wrap;html=1;fixedSize=1;strokeWidth=1;" vertex="1" parent="_wyRR_9sv9Ona-ReKIE4-1">
          <mxGeometry x="-80" y="1765.28" width="150" height="60" as="geometry" />
        </mxCell>
        <mxCell id="_wyRR_9sv9Ona-ReKIE4-406" style="edgeStyle=orthogonalEdgeStyle;rounded=0;orthogonalLoop=1;jettySize=auto;html=1;exitX=0.5;exitY=1;exitDx=0;exitDy=0;entryX=0.5;entryY=0;entryDx=0;entryDy=0;" edge="1" parent="_wyRR_9sv9Ona-ReKIE4-1" source="_wyRR_9sv9Ona-ReKIE4-180" target="_wyRR_9sv9Ona-ReKIE4-255">
          <mxGeometry relative="1" as="geometry" />
        </mxCell>
        <mxCell id="_wyRR_9sv9Ona-ReKIE4-180" value="&lt;font style=&quot;font-size: 13px&quot;&gt;High-Explsoives&lt;/font&gt;" style="shape=trapezoid;perimeter=trapezoidPerimeter;whiteSpace=wrap;html=1;fixedSize=1;strokeWidth=1;" vertex="1" parent="_wyRR_9sv9Ona-ReKIE4-1">
          <mxGeometry x="-80" y="1933.06" width="150" height="60" as="geometry" />
        </mxCell>
        <mxCell id="_wyRR_9sv9Ona-ReKIE4-181" value="&lt;div&gt;Pistol&amp;nbsp; Acquisition:&lt;/div&gt;&lt;div&gt;Five-seveN&lt;br&gt;&lt;/div&gt;" style="rounded=1;whiteSpace=wrap;html=1;strokeWidth=1;align=center;" vertex="1" parent="_wyRR_9sv9Ona-ReKIE4-1">
          <mxGeometry x="1209.6938809034905" y="1765.2777777777776" width="129.60985626283366" height="102.5" as="geometry" />
        </mxCell>
        <mxCell id="_wyRR_9sv9Ona-ReKIE4-182" value="&lt;div&gt;Breaching Tool:&lt;/div&gt;&lt;div&gt;Serbu Super-Shorty&lt;br&gt;&lt;/div&gt;" style="rounded=1;whiteSpace=wrap;html=1;strokeWidth=1;" vertex="1" parent="_wyRR_9sv9Ona-ReKIE4-1">
          <mxGeometry x="790.002874743326" y="1765.2788888888886" width="129.60985626283366" height="91.11111111111111" as="geometry" />
        </mxCell>
        <mxCell id="_wyRR_9sv9Ona-ReKIE4-183" style="edgeStyle=orthogonalEdgeStyle;rounded=0;orthogonalLoop=1;jettySize=auto;html=1;exitX=0.5;exitY=1;exitDx=0;exitDy=0;entryX=0.5;entryY=0;entryDx=0;entryDy=0;" edge="1" parent="_wyRR_9sv9Ona-ReKIE4-1" source="_wyRR_9sv9Ona-ReKIE4-185" target="_wyRR_9sv9Ona-ReKIE4-187">
          <mxGeometry relative="1" as="geometry" />
        </mxCell>
        <mxCell id="_wyRR_9sv9Ona-ReKIE4-184" style="edgeStyle=orthogonalEdgeStyle;rounded=0;orthogonalLoop=1;jettySize=auto;html=1;exitX=0.5;exitY=1;exitDx=0;exitDy=0;entryX=0.5;entryY=0;entryDx=0;entryDy=0;" edge="1" parent="_wyRR_9sv9Ona-ReKIE4-1" source="_wyRR_9sv9Ona-ReKIE4-185" target="_wyRR_9sv9Ona-ReKIE4-189">
          <mxGeometry relative="1" as="geometry" />
        </mxCell>
        <mxCell id="_wyRR_9sv9Ona-ReKIE4-185" value="SMG Aquisition" style="rounded=1;whiteSpace=wrap;html=1;strokeColor=#808080;strokeWidth=3;fontSize=13;fillColor=#FFFFFF;" vertex="1" parent="_wyRR_9sv9Ona-ReKIE4-1">
          <mxGeometry x="180.00410677618083" y="307.4961111111111" width="129.60985626283366" height="85.41666666666666" as="geometry" />
        </mxCell>
        <UserObject label="Shotgun Acquisition: Spas 12" lucidchartObjectId="aKZdjtdj7G8_" id="_wyRR_9sv9Ona-ReKIE4-186">
          <mxCell style="html=1;overflow=block;blockSpacing=1;whiteSpace=wrap;;whiteSpace=wrap;fontSize=13;align=center;spacing=9;strokeColor=#808080;strokeOpacity=100;fillOpacity=100;rounded=1;absoluteArcSize=1;arcSize=12;fillColor=#FFFFFF;strokeWidth=0.8;" vertex="1" parent="_wyRR_9sv9Ona-ReKIE4-1">
            <mxGeometry x="929.6073511293633" y="484.0277777777778" width="129.60985626283366" height="102.5" as="geometry" />
          </mxCell>
        </UserObject>
        <mxCell id="_wyRR_9sv9Ona-ReKIE4-187" value="SMG Aquisition: UMP 45" style="rounded=1;whiteSpace=wrap;html=1;strokeColor=#808080;strokeWidth=3;fontSize=13;fillColor=#FFFFFF;" vertex="1" parent="_wyRR_9sv9Ona-ReKIE4-1">
          <mxGeometry x="180.00410677618083" y="439.9961111111111" width="129.60985626283366" height="85.41666666666666" as="geometry" />
        </mxCell>
        <mxCell id="_wyRR_9sv9Ona-ReKIE4-188" value="Private Contract: Skorpion evo" style="rounded=1;whiteSpace=wrap;html=1;strokeColor=#808080;strokeWidth=3;fontSize=13;fillColor=#FFFFFF;" vertex="1" parent="_wyRR_9sv9Ona-ReKIE4-1">
          <mxGeometry x="1095.3141067761808" y="2778.8861111111114" width="129.60985626283366" height="85.41666666666666" as="geometry" />
        </mxCell>
        <mxCell id="_wyRR_9sv9Ona-ReKIE4-189" value="SMG Aquisition: Vityaz" style="rounded=1;whiteSpace=wrap;html=1;strokeColor=#808080;strokeWidth=3;fontSize=13;fillColor=#FFFFFF;" vertex="1" parent="_wyRR_9sv9Ona-ReKIE4-1">
          <mxGeometry x="50.39410677618082" y="439.9961111111111" width="129.60985626283366" height="85.41666666666666" as="geometry" />
        </mxCell>
        <mxCell id="_wyRR_9sv9Ona-ReKIE4-190" value="&lt;div style=&quot;font-size: 13px&quot;&gt;&lt;font style=&quot;font-size: 13px&quot;&gt;Rifle Acquisition:&lt;/font&gt;&lt;/div&gt;HK417" style="rounded=1;whiteSpace=wrap;html=1;strokeWidth=1;fillColor=#FFFFFF;strokeColor=#808080;" vertex="1" parent="_wyRR_9sv9Ona-ReKIE4-1">
          <mxGeometry x="2260.783593429158" y="1765.2777777777776" width="129.60985626283366" height="102.5" as="geometry" />
        </mxCell>
        <mxCell id="_wyRR_9sv9Ona-ReKIE4-191" value="&lt;div&gt;LMG Acquisition:&lt;/div&gt;&lt;div&gt;RPK 74&lt;br&gt;&lt;/div&gt;" style="rounded=1;whiteSpace=wrap;html=1;strokeWidth=1;fillColor=#FFFFFF;strokeColor=#808080;" vertex="1" parent="_wyRR_9sv9Ona-ReKIE4-1">
          <mxGeometry x="1555.3181314168378" y="2232.222222222222" width="129.60985626283366" height="91.11111111111111" as="geometry" />
        </mxCell>
        <UserObject label="Pistol Aquisition: Vektor" lucidchartObjectId="aKZdjtdj7G8_" id="_wyRR_9sv9Ona-ReKIE4-192">
          <mxCell style="html=1;overflow=block;blockSpacing=1;whiteSpace=wrap;;whiteSpace=wrap;fontSize=13;align=center;spacing=9;strokeColor=#808080;strokeOpacity=100;fillOpacity=100;rounded=1;absoluteArcSize=1;arcSize=12;fillColor=#FFFFFF;strokeWidth=0.8;" vertex="1" parent="_wyRR_9sv9Ona-ReKIE4-1">
            <mxGeometry x="1541.18" y="2770.34" width="129.61" height="89.66" as="geometry" />
          </mxCell>
        </UserObject>
        <UserObject label="Pistol Aquisition: Manhurin" lucidchartObjectId="aKZdjtdj7G8_" id="_wyRR_9sv9Ona-ReKIE4-193">
          <mxCell style="html=1;overflow=block;blockSpacing=1;whiteSpace=wrap;;whiteSpace=wrap;fontSize=13;align=center;spacing=9;strokeColor=#808080;strokeOpacity=100;fillOpacity=100;rounded=1;absoluteArcSize=1;arcSize=12;fillColor=#FFFFFF;strokeWidth=0.8;" vertex="1" parent="_wyRR_9sv9Ona-ReKIE4-1">
            <mxGeometry x="1249.9973511293636" y="305.7877777777779" width="129.60985626283366" height="102.5" as="geometry" />
          </mxCell>
        </UserObject>
        <mxCell id="_wyRR_9sv9Ona-ReKIE4-194" value="&lt;div style=&quot;font-size: 13px&quot;&gt;&lt;font style=&quot;font-size: 13px&quot;&gt;Rifle Acquisition:&lt;/font&gt;&lt;/div&gt;G3" style="rounded=1;whiteSpace=wrap;html=1;strokeWidth=1;fillColor=#FFFFFF;strokeColor=#808080;" vertex="1" parent="_wyRR_9sv9Ona-ReKIE4-1">
          <mxGeometry x="2649.6135934291588" y="1765.2777777777776" width="129.60985626283366" height="102.5" as="geometry" />
        </mxCell>
        <mxCell id="_wyRR_9sv9Ona-ReKIE4-195" style="edgeStyle=orthogonalEdgeStyle;rounded=0;orthogonalLoop=1;jettySize=auto;html=1;exitX=0.5;exitY=1;exitDx=0;exitDy=0;" edge="1" parent="_wyRR_9sv9Ona-ReKIE4-1" source="_wyRR_9sv9Ona-ReKIE4-197" target="_wyRR_9sv9Ona-ReKIE4-194">
          <mxGeometry relative="1" as="geometry">
            <Array as="points">
              <mxPoint x="2603" y="750" />
              <mxPoint x="2714" y="750" />
            </Array>
          </mxGeometry>
        </mxCell>
        <mxCell id="_wyRR_9sv9Ona-ReKIE4-196" style="edgeStyle=orthogonalEdgeStyle;rounded=0;orthogonalLoop=1;jettySize=auto;html=1;exitX=0.5;exitY=1;exitDx=0;exitDy=0;entryX=0.5;entryY=0;entryDx=0;entryDy=0;" edge="1" parent="_wyRR_9sv9Ona-ReKIE4-1" source="_wyRR_9sv9Ona-ReKIE4-197" target="_wyRR_9sv9Ona-ReKIE4-57">
          <mxGeometry relative="1" as="geometry" />
        </mxCell>
        <UserObject label="Rifle Aquisition: Famas" lucidchartObjectId="OpZdpQtUeUHU" id="_wyRR_9sv9Ona-ReKIE4-197">
          <mxCell style="html=1;overflow=block;blockSpacing=1;whiteSpace=wrap;;whiteSpace=wrap;fontSize=13;align=center;spacing=9;strokeColor=#808080;strokeOpacity=100;fillOpacity=100;rounded=1;absoluteArcSize=1;arcSize=12;fillColor=#FFFFFF;strokeWidth=0.8;" vertex="1" parent="_wyRR_9sv9Ona-ReKIE4-1">
            <mxGeometry x="2538.193162217659" y="484.0277777777777" width="129.60985626283366" height="102.5" as="geometry" />
          </mxCell>
        </UserObject>
        <mxCell id="_wyRR_9sv9Ona-ReKIE4-198" style="edgeStyle=orthogonalEdgeStyle;rounded=0;orthogonalLoop=1;jettySize=auto;html=1;exitX=0.5;exitY=1;exitDx=0;exitDy=0;entryX=0.5;entryY=0;entryDx=0;entryDy=0;" edge="1" parent="_wyRR_9sv9Ona-ReKIE4-1" source="_wyRR_9sv9Ona-ReKIE4-201" target="_wyRR_9sv9Ona-ReKIE4-231">
          <mxGeometry relative="1" as="geometry">
            <Array as="points">
              <mxPoint x="2862" y="670" />
              <mxPoint x="1356" y="670" />
            </Array>
          </mxGeometry>
        </mxCell>
        <mxCell id="_wyRR_9sv9Ona-ReKIE4-199" style="edgeStyle=orthogonalEdgeStyle;rounded=0;orthogonalLoop=1;jettySize=auto;html=1;exitX=0.5;exitY=1;exitDx=0;exitDy=0;entryX=0.5;entryY=0;entryDx=0;entryDy=0;" edge="1" parent="_wyRR_9sv9Ona-ReKIE4-1" source="_wyRR_9sv9Ona-ReKIE4-201" target="_wyRR_9sv9Ona-ReKIE4-109">
          <mxGeometry relative="1" as="geometry">
            <Array as="points">
              <mxPoint x="2862" y="920" />
              <mxPoint x="1790" y="920" />
              <mxPoint x="1790" y="1350" />
              <mxPoint x="1620" y="1350" />
            </Array>
          </mxGeometry>
        </mxCell>
        <mxCell id="_wyRR_9sv9Ona-ReKIE4-200" style="edgeStyle=orthogonalEdgeStyle;rounded=0;orthogonalLoop=1;jettySize=auto;html=1;exitX=0.5;exitY=1;exitDx=0;exitDy=0;entryX=0.5;entryY=0;entryDx=0;entryDy=0;" edge="1" parent="_wyRR_9sv9Ona-ReKIE4-1" source="_wyRR_9sv9Ona-ReKIE4-201" target="_wyRR_9sv9Ona-ReKIE4-232">
          <mxGeometry relative="1" as="geometry" />
        </mxCell>
        <mxCell id="_wyRR_9sv9Ona-ReKIE4-201" value="&lt;div style=&quot;font-size: 13px&quot;&gt;&lt;font style=&quot;font-size: 13px&quot;&gt;Rifle Acquisition:&lt;/font&gt;&lt;/div&gt;G36" style="rounded=1;whiteSpace=wrap;html=1;strokeWidth=1;fillColor=#FFFFFF;strokeColor=#808080;" vertex="1" parent="_wyRR_9sv9Ona-ReKIE4-1">
          <mxGeometry x="2797.413593429159" y="484.0277777777776" width="129.60985626283366" height="102.5" as="geometry" />
        </mxCell>
        <mxCell id="_wyRR_9sv9Ona-ReKIE4-202" value="GL Aquisition: GM94" style="rounded=1;whiteSpace=wrap;html=1;strokeColor=#808080;strokeWidth=3;fontSize=13;fillColor=#FFFFFF;" vertex="1" parent="_wyRR_9sv9Ona-ReKIE4-1">
          <mxGeometry x="2806.984106776181" y="2129.9961111111115" width="129.60985626283366" height="85.41666666666666" as="geometry" />
        </mxCell>
        <mxCell id="_wyRR_9sv9Ona-ReKIE4-205" style="edgeStyle=orthogonalEdgeStyle;rounded=0;orthogonalLoop=1;jettySize=auto;html=1;exitX=0.5;exitY=1;exitDx=0;exitDy=0;entryX=0.5;entryY=0;entryDx=0;entryDy=0;" edge="1" parent="_wyRR_9sv9Ona-ReKIE4-1" source="_wyRR_9sv9Ona-ReKIE4-207" target="_wyRR_9sv9Ona-ReKIE4-202">
          <mxGeometry relative="1" as="geometry" />
        </mxCell>
        <mxCell id="_wyRR_9sv9Ona-ReKIE4-206" style="edgeStyle=orthogonalEdgeStyle;rounded=0;orthogonalLoop=1;jettySize=auto;html=1;exitX=0.5;exitY=1;exitDx=0;exitDy=0;entryX=0.5;entryY=0;entryDx=0;entryDy=0;" edge="1" parent="_wyRR_9sv9Ona-ReKIE4-1" source="_wyRR_9sv9Ona-ReKIE4-207" target="_wyRR_9sv9Ona-ReKIE4-160">
          <mxGeometry relative="1" as="geometry" />
        </mxCell>
        <mxCell id="_wyRR_9sv9Ona-ReKIE4-207" value="GL Aquisition" style="rounded=1;whiteSpace=wrap;html=1;strokeColor=#808080;strokeWidth=3;fontSize=13;fillColor=#FFFFFF;" vertex="1" parent="_wyRR_9sv9Ona-ReKIE4-1">
          <mxGeometry x="2742.1841067761807" y="2009.9961111111115" width="129.60985626283366" height="85.41666666666666" as="geometry" />
        </mxCell>
        <mxCell id="_wyRR_9sv9Ona-ReKIE4-208" value="&lt;div&gt;Private Contract:&lt;/div&gt;&lt;div&gt;Barrett M82&lt;br&gt;&lt;/div&gt;" style="rounded=1;whiteSpace=wrap;html=1;strokeWidth=1;" vertex="1" parent="_wyRR_9sv9Ona-ReKIE4-1">
          <mxGeometry x="2683.998952772074" y="2778.8888888888887" width="129.60985626283366" height="91.11111111111111" as="geometry" />
        </mxCell>
        <mxCell id="_wyRR_9sv9Ona-ReKIE4-209" style="edgeStyle=orthogonalEdgeStyle;rounded=0;orthogonalLoop=1;jettySize=auto;html=1;exitX=0.5;exitY=1;exitDx=0;exitDy=0;entryX=0.5;entryY=0;entryDx=0;entryDy=0;" edge="1" parent="_wyRR_9sv9Ona-ReKIE4-1" source="_wyRR_9sv9Ona-ReKIE4-211" target="_wyRR_9sv9Ona-ReKIE4-212">
          <mxGeometry relative="1" as="geometry" />
        </mxCell>
        <mxCell id="_wyRR_9sv9Ona-ReKIE4-210" style="edgeStyle=orthogonalEdgeStyle;rounded=0;orthogonalLoop=1;jettySize=auto;html=1;exitX=0.5;exitY=1;exitDx=0;exitDy=0;entryX=0.5;entryY=0;entryDx=0;entryDy=0;" edge="1" parent="_wyRR_9sv9Ona-ReKIE4-1" source="_wyRR_9sv9Ona-ReKIE4-211" target="_wyRR_9sv9Ona-ReKIE4-213">
          <mxGeometry relative="1" as="geometry" />
        </mxCell>
        <mxCell id="_wyRR_9sv9Ona-ReKIE4-211" value="Adv. Shotgun Aquisition" style="rhombus;whiteSpace=wrap;html=1;rounded=1;strokeWidth=1;" vertex="1" parent="_wyRR_9sv9Ona-ReKIE4-1">
          <mxGeometry x="2480.003552361396" y="2619.4444444444443" width="140.4106776180698" height="91.11111111111111" as="geometry" />
        </mxCell>
        <mxCell id="_wyRR_9sv9Ona-ReKIE4-212" value="&lt;div&gt;Private Contract:&lt;/div&gt;&lt;div&gt;Origin-12&lt;br&gt;&lt;/div&gt;" style="rounded=1;whiteSpace=wrap;html=1;strokeWidth=1;" vertex="1" parent="_wyRR_9sv9Ona-ReKIE4-1">
          <mxGeometry x="2408.5841683778235" y="2776.038888888889" width="129.60985626283366" height="91.11111111111111" as="geometry" />
        </mxCell>
        <mxCell id="_wyRR_9sv9Ona-ReKIE4-213" value="&lt;div&gt;Private Contract:&lt;/div&gt;&lt;div&gt;KS-23&lt;br&gt;&lt;/div&gt;" style="rounded=1;whiteSpace=wrap;html=1;strokeWidth=1;" vertex="1" parent="_wyRR_9sv9Ona-ReKIE4-1">
          <mxGeometry x="2538.1937371663244" y="2776.038888888889" width="129.60985626283366" height="91.11111111111111" as="geometry" />
        </mxCell>
        <mxCell id="_wyRR_9sv9Ona-ReKIE4-214" value="&lt;div&gt;Pistol Acquisition:&lt;/div&gt;&lt;div&gt;USSCOM MK 23&lt;br&gt;&lt;/div&gt;" style="rounded=1;whiteSpace=wrap;html=1;strokeWidth=1;" vertex="1" parent="_wyRR_9sv9Ona-ReKIE4-1">
          <mxGeometry x="1670.784599589322" y="2770.338888888889" width="129.60985626283366" height="91.11111111111111" as="geometry" />
        </mxCell>
        <mxCell id="_wyRR_9sv9Ona-ReKIE4-215" value="Large medkit" style="shape=trapezoid;perimeter=trapezoidPerimeter;whiteSpace=wrap;html=1;fixedSize=1;strokeWidth=1;fillColor=#FFFFFF;strokeColor=#808080;" vertex="1" parent="_wyRR_9sv9Ona-ReKIE4-1">
          <mxGeometry x="590" y="465.40999999999985" width="150" height="60" as="geometry" />
        </mxCell>
        <UserObject label="Shotgun Acquisition: M3" lucidchartObjectId="aKZdjtdj7G8_" id="_wyRR_9sv9Ona-ReKIE4-216">
          <mxCell style="html=1;overflow=block;blockSpacing=1;whiteSpace=wrap;;whiteSpace=wrap;fontSize=13;align=center;spacing=9;strokeColor=#808080;strokeOpacity=100;fillOpacity=100;rounded=1;absoluteArcSize=1;arcSize=12;fillColor=#FFFFFF;strokeWidth=0.8;" vertex="1" parent="_wyRR_9sv9Ona-ReKIE4-1">
            <mxGeometry x="1089.9973511293633" y="484.0277777777778" width="129.60985626283366" height="102.5" as="geometry" />
          </mxCell>
        </UserObject>
        <mxCell id="_wyRR_9sv9Ona-ReKIE4-217" style="edgeStyle=orthogonalEdgeStyle;rounded=0;orthogonalLoop=1;jettySize=auto;html=1;exitX=0.5;exitY=1;exitDx=0;exitDy=0;" edge="1" parent="_wyRR_9sv9Ona-ReKIE4-1" source="_wyRR_9sv9Ona-ReKIE4-221" target="_wyRR_9sv9Ona-ReKIE4-222">
          <mxGeometry relative="1" as="geometry" />
        </mxCell>
        <mxCell id="_wyRR_9sv9Ona-ReKIE4-218" style="edgeStyle=orthogonalEdgeStyle;rounded=0;orthogonalLoop=1;jettySize=auto;html=1;exitX=0.5;exitY=1;exitDx=0;exitDy=0;entryX=0.5;entryY=0;entryDx=0;entryDy=0;" edge="1" parent="_wyRR_9sv9Ona-ReKIE4-1" source="_wyRR_9sv9Ona-ReKIE4-221" target="_wyRR_9sv9Ona-ReKIE4-231">
          <mxGeometry relative="1" as="geometry">
            <Array as="points">
              <mxPoint x="2733" y="670" />
              <mxPoint x="1356" y="670" />
            </Array>
          </mxGeometry>
        </mxCell>
        <mxCell id="_wyRR_9sv9Ona-ReKIE4-219" style="edgeStyle=orthogonalEdgeStyle;rounded=0;orthogonalLoop=1;jettySize=auto;html=1;exitX=0.5;exitY=1;exitDx=0;exitDy=0;entryX=0.5;entryY=0;entryDx=0;entryDy=0;" edge="1" parent="_wyRR_9sv9Ona-ReKIE4-1" source="_wyRR_9sv9Ona-ReKIE4-221" target="_wyRR_9sv9Ona-ReKIE4-57">
          <mxGeometry relative="1" as="geometry" />
        </mxCell>
        <mxCell id="_wyRR_9sv9Ona-ReKIE4-220" style="edgeStyle=orthogonalEdgeStyle;rounded=0;orthogonalLoop=1;jettySize=auto;html=1;exitX=0.5;exitY=1;exitDx=0;exitDy=0;entryX=0.5;entryY=0;entryDx=0;entryDy=0;" edge="1" parent="_wyRR_9sv9Ona-ReKIE4-1" source="_wyRR_9sv9Ona-ReKIE4-221" target="_wyRR_9sv9Ona-ReKIE4-108">
          <mxGeometry relative="1" as="geometry">
            <Array as="points">
              <mxPoint x="2733" y="1130" />
              <mxPoint x="1491" y="1130" />
            </Array>
          </mxGeometry>
        </mxCell>
        <UserObject label="Rifle Aquisition: M16" lucidchartObjectId="OpZdpQtUeUHU" id="_wyRR_9sv9Ona-ReKIE4-221">
          <mxCell style="html=1;overflow=block;blockSpacing=1;whiteSpace=wrap;;whiteSpace=wrap;fontSize=13;align=center;spacing=9;strokeColor=#808080;strokeOpacity=100;fillOpacity=100;rounded=1;absoluteArcSize=1;arcSize=12;fillColor=#FFFFFF;strokeWidth=0.8;" vertex="1" parent="_wyRR_9sv9Ona-ReKIE4-1">
            <mxGeometry x="2667.803162217659" y="484.02777777777777" width="129.60985626283366" height="102.5" as="geometry" />
          </mxCell>
        </UserObject>
        <mxCell id="_wyRR_9sv9Ona-ReKIE4-222" value="&lt;div style=&quot;font-size: 13px&quot;&gt;&lt;font style=&quot;font-size: 13px&quot;&gt;Rifle Acquisition:&lt;/font&gt;&lt;/div&gt;M14" style="rounded=1;whiteSpace=wrap;html=1;strokeWidth=1;fillColor=#FFFFFF;strokeColor=#808080;" vertex="1" parent="_wyRR_9sv9Ona-ReKIE4-1">
          <mxGeometry x="2779.223593429159" y="1765.2777777777776" width="129.60985626283366" height="102.5" as="geometry" />
        </mxCell>
        <mxCell id="_wyRR_9sv9Ona-ReKIE4-223" style="edgeStyle=orthogonalEdgeStyle;rounded=0;orthogonalLoop=1;jettySize=auto;html=1;exitX=0.5;exitY=1;exitDx=0;exitDy=0;entryX=0.5;entryY=0;entryDx=0;entryDy=0;" edge="1" parent="_wyRR_9sv9Ona-ReKIE4-1" source="_wyRR_9sv9Ona-ReKIE4-226" target="_wyRR_9sv9Ona-ReKIE4-214">
          <mxGeometry relative="1" as="geometry" />
        </mxCell>
        <mxCell id="_wyRR_9sv9Ona-ReKIE4-224" style="edgeStyle=orthogonalEdgeStyle;rounded=0;orthogonalLoop=1;jettySize=auto;html=1;exitX=0.5;exitY=1;exitDx=0;exitDy=0;" edge="1" parent="_wyRR_9sv9Ona-ReKIE4-1" source="_wyRR_9sv9Ona-ReKIE4-226" target="_wyRR_9sv9Ona-ReKIE4-227">
          <mxGeometry relative="1" as="geometry" />
        </mxCell>
        <mxCell id="_wyRR_9sv9Ona-ReKIE4-225" style="edgeStyle=orthogonalEdgeStyle;rounded=0;orthogonalLoop=1;jettySize=auto;html=1;exitX=0.5;exitY=1;exitDx=0;exitDy=0;" edge="1" parent="_wyRR_9sv9Ona-ReKIE4-1" source="_wyRR_9sv9Ona-ReKIE4-226" target="_wyRR_9sv9Ona-ReKIE4-192">
          <mxGeometry relative="1" as="geometry" />
        </mxCell>
        <mxCell id="_wyRR_9sv9Ona-ReKIE4-226" value="Adv. Pistol Acquisition" style="rhombus;whiteSpace=wrap;html=1;rounded=1;strokeWidth=1;" vertex="1" parent="_wyRR_9sv9Ona-ReKIE4-1">
          <mxGeometry x="1719.995503080082" y="2619.4444444444443" width="140.4106776180698" height="91.11111111111111" as="geometry" />
        </mxCell>
        <mxCell id="_wyRR_9sv9Ona-ReKIE4-227" value="Pistol Aquisition: Desert Eagle" style="rounded=1;whiteSpace=wrap;html=1;strokeColor=#808080;strokeWidth=3;fontSize=13;fillColor=#FFFFFF;" vertex="1" parent="_wyRR_9sv9Ona-ReKIE4-1">
          <mxGeometry x="1800.3941067761807" y="2770.3361111111117" width="129.60985626283366" height="85.41666666666666" as="geometry" />
        </mxCell>
        <mxCell id="_wyRR_9sv9Ona-ReKIE4-228" value="&lt;div&gt;LMG Acquisition:&lt;/div&gt;CBJ-MS SAW&amp;nbsp; Kit" style="rounded=1;whiteSpace=wrap;html=1;strokeWidth=1;fillColor=#FFFFFF;strokeColor=#808080;" vertex="1" parent="_wyRR_9sv9Ona-ReKIE4-1">
          <mxGeometry x="777.6581314168376" y="2232.222222222222" width="129.60985626283366" height="91.11111111111111" as="geometry" />
        </mxCell>
        <mxCell id="_wyRR_9sv9Ona-ReKIE4-229" value="Ballistic Knife " style="rounded=1;whiteSpace=wrap;html=1;strokeColor=#808080;strokeWidth=3;fontSize=13;fillColor=#FFFFFF;" vertex="1" parent="_wyRR_9sv9Ona-ReKIE4-1">
          <mxGeometry x="1930.0041067761806" y="2619.4461111111113" width="129.60985626283366" height="85.41666666666666" as="geometry" />
        </mxCell>
        <mxCell id="_wyRR_9sv9Ona-ReKIE4-230" value="&lt;div&gt;Private Contract:&lt;/div&gt;&lt;div&gt;MP7&lt;br&gt;&lt;/div&gt;" style="rounded=1;whiteSpace=wrap;html=1;strokeWidth=1;" vertex="1" parent="_wyRR_9sv9Ona-ReKIE4-1">
          <mxGeometry x="1359.9385215605748" y="2776.038888888889" width="129.60985626283366" height="91.11111111111111" as="geometry" />
        </mxCell>
        <UserObject label="Rifle Modification" lucidchartObjectId="a6ZdoMXelwi5" id="_wyRR_9sv9Ona-ReKIE4-231">
          <mxCell style="html=1;overflow=block;blockSpacing=1;whiteSpace=wrap;shape=process;whiteSpace=wrap;fontSize=13;fontColor=#333333;align=center;spacing=3.8;strokeColor=#333333;strokeOpacity=100;fillOpacity=100;rounded=1;absoluteArcSize=1;arcSize=12;fillColor=#ffffff;strokeWidth=0.8;" vertex="1" parent="_wyRR_9sv9Ona-ReKIE4-1">
            <mxGeometry x="1290.6981519507185" y="699.9977777777777" width="129.60985626283366" height="102.5" as="geometry" />
          </mxCell>
        </UserObject>
        <mxCell id="_wyRR_9sv9Ona-ReKIE4-232" value="&lt;div style=&quot;font-size: 13px&quot;&gt;&lt;font style=&quot;font-size: 13px&quot;&gt;Rifle Acquisition:&lt;/font&gt;&lt;/div&gt;G36C" style="rounded=1;whiteSpace=wrap;html=1;strokeWidth=1;fillColor=#FFFFFF;strokeColor=#808080;" vertex="1" parent="_wyRR_9sv9Ona-ReKIE4-1">
          <mxGeometry x="2908.833593429159" y="1765.2777777777776" width="129.60985626283366" height="102.5" as="geometry" />
        </mxCell>
        <mxCell id="_wyRR_9sv9Ona-ReKIE4-233" value="SMG Aquisition: FMG 9" style="rounded=1;whiteSpace=wrap;html=1;strokeColor=#808080;strokeWidth=3;fontSize=13;fillColor=#FFFFFF;" vertex="1" parent="_wyRR_9sv9Ona-ReKIE4-1">
          <mxGeometry x="-79.99589322381917" y="439.99611111111113" width="129.60985626283366" height="85.41666666666666" as="geometry" />
        </mxCell>
        <mxCell id="_wyRR_9sv9Ona-ReKIE4-234" style="edgeStyle=orthogonalEdgeStyle;rounded=0;orthogonalLoop=1;jettySize=auto;html=1;exitX=0.5;exitY=1;exitDx=0;exitDy=0;entryX=0.5;entryY=0;entryDx=0;entryDy=0;" edge="1" parent="_wyRR_9sv9Ona-ReKIE4-1" source="_wyRR_9sv9Ona-ReKIE4-185" target="_wyRR_9sv9Ona-ReKIE4-233">
          <mxGeometry relative="1" as="geometry" />
        </mxCell>
        <mxCell id="_wyRR_9sv9Ona-ReKIE4-235" value="Private Contract: Versek" style="rounded=1;whiteSpace=wrap;html=1;strokeColor=#808080;strokeWidth=3;fontSize=13;fillColor=#FFFFFF;" vertex="1" parent="_wyRR_9sv9Ona-ReKIE4-1">
          <mxGeometry x="830.3941067761808" y="2776.036111111111" width="129.60985626283366" height="85.41666666666666" as="geometry" />
        </mxCell>
        <mxCell id="_wyRR_9sv9Ona-ReKIE4-236" value="&lt;div style=&quot;font-size: 13px&quot;&gt;&lt;font style=&quot;font-size: 13px&quot;&gt;Rifle Acquisition:&lt;/font&gt;&lt;/div&gt;RK 62" style="rounded=1;whiteSpace=wrap;html=1;strokeWidth=1;" vertex="1" parent="_wyRR_9sv9Ona-ReKIE4-1">
          <mxGeometry x="2390.393593429158" y="1765.2777777777776" width="129.60985626283366" height="102.5" as="geometry" />
        </mxCell>
        <mxCell id="_wyRR_9sv9Ona-ReKIE4-237" value="AT Acquisition: Carl Gustaf Recoilless Rifle" style="rounded=1;whiteSpace=wrap;html=1;strokeWidth=1;" vertex="1" parent="_wyRR_9sv9Ona-ReKIE4-1">
          <mxGeometry x="2343.783162217659" y="2129.998888888889" width="129.60985626283366" height="91.11111111111111" as="geometry" />
        </mxCell>
        <mxCell id="_wyRR_9sv9Ona-ReKIE4-238" value="AT Acquisition: M72A7 LAW" style="rounded=1;whiteSpace=wrap;html=1;strokeWidth=1;" vertex="1" parent="_wyRR_9sv9Ona-ReKIE4-1">
          <mxGeometry x="2473.393162217659" y="2129.998888888889" width="129.60985626283366" height="91.11111111111111" as="geometry" />
        </mxCell>
        <mxCell id="_wyRR_9sv9Ona-ReKIE4-391" value="&lt;div&gt;LMG Acquisition:&lt;/div&gt;&lt;div&gt;MG36&lt;br&gt;&lt;/div&gt;" style="rounded=1;whiteSpace=wrap;html=1;strokeWidth=1;fillColor=#FFFFFF;strokeColor=#808080;" vertex="1" parent="_wyRR_9sv9Ona-ReKIE4-1">
          <mxGeometry x="1425.7081314168377" y="2232.222222222222" width="129.60985626283366" height="91.11111111111111" as="geometry" />
        </mxCell>
        <mxCell id="_wyRR_9sv9Ona-ReKIE4-393" value="&lt;div&gt;LMG Acquisition:&lt;/div&gt;&lt;div&gt;Negev&lt;br&gt;&lt;/div&gt;" style="rounded=1;whiteSpace=wrap;html=1;strokeWidth=1;fillColor=#FFFFFF;strokeColor=#808080;" vertex="1" parent="_wyRR_9sv9Ona-ReKIE4-1">
          <mxGeometry x="1296.0981314168375" y="2232.222222222222" width="129.60985626283366" height="91.11111111111111" as="geometry" />
        </mxCell>
        <mxCell id="_wyRR_9sv9Ona-ReKIE4-394" value="&lt;div&gt;LMG Acquisition:&lt;/div&gt;&lt;div&gt;AUG HBAR&lt;br&gt;&lt;/div&gt;" style="rounded=1;whiteSpace=wrap;html=1;strokeWidth=1;fillColor=#FFFFFF;strokeColor=#808080;" vertex="1" parent="_wyRR_9sv9Ona-ReKIE4-1">
          <mxGeometry x="1166.4881314168376" y="2232.222222222222" width="129.60985626283366" height="91.11111111111111" as="geometry" />
        </mxCell>
        <mxCell id="_wyRR_9sv9Ona-ReKIE4-395" value="&lt;div&gt;LMG Acquisition:&lt;/div&gt;M60E6" style="rounded=1;whiteSpace=wrap;html=1;strokeWidth=1;fillColor=#FFFFFF;strokeColor=#808080;" vertex="1" parent="_wyRR_9sv9Ona-ReKIE4-1">
          <mxGeometry x="1036.8781314168377" y="2232.222222222222" width="129.60985626283366" height="91.11111111111111" as="geometry" />
        </mxCell>
        <mxCell id="_wyRR_9sv9Ona-ReKIE4-396" value="&lt;div&gt;LMG Acquisition:&lt;/div&gt;Ultimax 100" style="rounded=1;whiteSpace=wrap;html=1;strokeWidth=1;fillColor=#FFFFFF;strokeColor=#808080;" vertex="1" parent="_wyRR_9sv9Ona-ReKIE4-1">
          <mxGeometry x="907.2681314168377" y="2232.222222222222" width="129.60985626283366" height="91.11111111111111" as="geometry" />
        </mxCell>
        <mxCell id="_wyRR_9sv9Ona-ReKIE4-403" style="edgeStyle=orthogonalEdgeStyle;rounded=0;orthogonalLoop=1;jettySize=auto;html=1;exitX=0.5;exitY=1;exitDx=0;exitDy=0;entryX=0.5;entryY=0;entryDx=0;entryDy=0;" edge="1" parent="_wyRR_9sv9Ona-ReKIE4-1" source="_wyRR_9sv9Ona-ReKIE4-204" target="_wyRR_9sv9Ona-ReKIE4-261">
          <mxGeometry relative="1" as="geometry" />
        </mxCell>
        <mxCell id="_wyRR_9sv9Ona-ReKIE4-404" value="Free" style="edgeLabel;html=1;align=center;verticalAlign=middle;resizable=0;points=[];" vertex="1" connectable="0" parent="_wyRR_9sv9Ona-ReKIE4-403">
          <mxGeometry x="-0.25" y="-1" relative="1" as="geometry">
            <mxPoint as="offset" />
          </mxGeometry>
        </mxCell>
        <mxCell id="_wyRR_9sv9Ona-ReKIE4-204" value="Breaching Tool Aquisition" style="rounded=1;whiteSpace=wrap;html=1;strokeColor=#808080;strokeWidth=3;fontSize=13;fillColor=#FFFFFF;" vertex="1" parent="_wyRR_9sv9Ona-ReKIE4-1">
          <mxGeometry x="3360.004106776181" y="301.8161111111108" width="129.60985626283366" height="85.41666666666666" as="geometry" />
        </mxCell>
        <mxCell id="_wyRR_9sv9Ona-ReKIE4-261" value="Breaching Tool: Breaching Hammer" style="shape=trapezoid;perimeter=trapezoidPerimeter;whiteSpace=wrap;html=1;fixedSize=1;strokeWidth=1;fillColor=#FFFFFF;strokeColor=#808080;" vertex="1" parent="_wyRR_9sv9Ona-ReKIE4-1">
          <mxGeometry x="3349.81" y="449.9999999999998" width="150" height="60" as="geometry" />
        </mxCell>
        <mxCell id="_wyRR_9sv9Ona-ReKIE4-255" value="Breaching Tool: C4" style="shape=trapezoid;perimeter=trapezoidPerimeter;whiteSpace=wrap;html=1;fixedSize=1;strokeWidth=1;fillColor=#FFFFFF;strokeColor=#808080;" vertex="1" parent="_wyRR_9sv9Ona-ReKIE4-1">
          <mxGeometry x="-80.00000000000003" y="2039.9999999999998" width="150" height="60" as="geometry" />
        </mxCell>
        <mxCell id="_wyRR_9sv9Ona-ReKIE4-239" value="&lt;div&gt;Connecting&lt;/div&gt;&lt;div&gt; Tech&lt;/div&gt;" style="rhombus;whiteSpace=wrap;html=1;rounded=1;strokeColor=#333333;strokeWidth=3;fontSize=13;fontColor=#333333;" vertex="1" parent="1">
          <mxGeometry x="-1451.3963039014375" y="88.33333333333333" width="140.4106776180698" height="91.11111111111111" as="geometry" />
        </mxCell>
        <mxCell id="_wyRR_9sv9Ona-ReKIE4-240" value="&lt;font style=&quot;font-size: 50px&quot; face=&quot;Verdana&quot;&gt;LEGEND&lt;/font&gt;" style="text;html=1;align=center;verticalAlign=middle;resizable=0;points=[];autosize=1;fontSize=13;fontColor=#333333;strokeWidth=3;" vertex="1" parent="1">
          <mxGeometry x="-1500" y="20" width="220" height="40" as="geometry" />
        </mxCell>
        <mxCell id="_wyRR_9sv9Ona-ReKIE4-241" value="Weaponry" style="rounded=1;whiteSpace=wrap;html=1;strokeColor=#333333;strokeWidth=3;fontSize=13;fontColor=#333333;" vertex="1" parent="1">
          <mxGeometry x="-1445.9958932238192" y="228.98611111111111" width="129.60985626283366" height="85.41666666666666" as="geometry" />
        </mxCell>
        <mxCell id="_wyRR_9sv9Ona-ReKIE4-242" value="Armor" style="rounded=0;whiteSpace=wrap;html=1;strokeColor=#333333;strokeWidth=3;fontSize=13;fontColor=#333333;" vertex="1" parent="1">
          <mxGeometry x="-1445.9958932238192" y="361.66666666666663" width="129.60985626283366" height="91.11111111111111" as="geometry" />
        </mxCell>
        <mxCell id="_wyRR_9sv9Ona-ReKIE4-243" value="Weapon Modification" style="shape=process;whiteSpace=wrap;html=1;backgroundOutline=1;rounded=1;strokeColor=#333333;strokeWidth=3;fontSize=13;fontColor=#333333;" vertex="1" parent="1">
          <mxGeometry x="-1437.8954825462013" y="606.5233333333333" width="124.20944558521559" height="91.11111111111111" as="geometry" />
        </mxCell>
        <UserObject label="Facility" lucidchartObjectId="1g0dXQ1J5.~K" id="_wyRR_9sv9Ona-ReKIE4-244">
          <mxCell style="html=1;overflow=block;blockSpacing=1;whiteSpace=wrap;shape=trapezoid;perimeter=trapezoidPerimeter;anchorPointDirection=0;flipV=1;whiteSpace=wrap;fontSize=13;fontColor=#333333;align=center;spacing=3.8;strokeColor=#333333;strokeOpacity=100;fillOpacity=100;rounded=1;absoluteArcSize=1;arcSize=12;fillColor=#ffffff;strokeWidth=3;" vertex="1" parent="1">
            <mxGeometry x="-1443.2958932238193" y="743.19" width="129.60985626283366" height="91.11111111111111" as="geometry" />
          </mxCell>
        </UserObject>
        <mxCell id="_wyRR_9sv9Ona-ReKIE4-245" value="Interrogation" style="ellipse;whiteSpace=wrap;html=1;rounded=1;strokeColor=#333333;strokeWidth=3;fontSize=13;fontColor=#333333;" vertex="1" parent="1">
          <mxGeometry x="-1440.5956878850102" y="879.8566666666666" width="129.60985626283366" height="91.11111111111111" as="geometry" />
        </mxCell>
        <mxCell id="_wyRR_9sv9Ona-ReKIE4-246" value="Lead" style="rhombus;whiteSpace=wrap;html=1;rounded=0;strokeColor=#333333;strokeWidth=3;fontSize=13;fontColor=#333333;" vertex="1" parent="1">
          <mxGeometry x="-1443.2958932238193" y="1016.5233333333333" width="129.60985626283366" height="91.11111111111111" as="geometry" />
        </mxCell>
        <mxCell id="_wyRR_9sv9Ona-ReKIE4-247" value="&lt;div&gt;Mission&lt;/div&gt;&lt;div&gt;Unlock&lt;br&gt;&lt;/div&gt;" style="shape=parallelogram;perimeter=parallelogramPerimeter;whiteSpace=wrap;html=1;fixedSize=1;rounded=1;strokeColor=#333333;strokeWidth=3;fontSize=13;fontColor=#333333;" vertex="1" parent="1">
          <mxGeometry x="-1448.6963039014374" y="1153.19" width="135.01026694045174" height="91.11111111111111" as="geometry" />
        </mxCell>
        <mxCell id="_wyRR_9sv9Ona-ReKIE4-248" value="Mutually" style="rounded=1;whiteSpace=wrap;html=1;strokeColor=#333333;strokeWidth=3;fontSize=13;fontColor=#333333;" vertex="1" parent="1">
          <mxGeometry x="-1467.5977412731006" y="1563.19" width="86.4065708418891" height="68.33333333333333" as="geometry" />
        </mxCell>
        <mxCell id="_wyRR_9sv9Ona-ReKIE4-249" value="Exclusive*" style="rounded=1;whiteSpace=wrap;html=1;strokeColor=#333333;strokeWidth=3;fontSize=13;fontColor=#333333;" vertex="1" parent="1">
          <mxGeometry x="-1381.1911704312115" y="1563.19" width="86.4065708418891" height="68.33333333333333" as="geometry" />
        </mxCell>
        <mxCell id="_wyRR_9sv9Ona-ReKIE4-250" value="Mission Reward" style="shape=hexagon;perimeter=hexagonPerimeter2;whiteSpace=wrap;html=1;fixedSize=1;rounded=1;strokeWidth=3;" vertex="1" parent="1">
          <mxGeometry x="-1443.2958932238193" y="1289.8566666666666" width="129.60985626283366" height="91.11111111111111" as="geometry" />
        </mxCell>
        <mxCell id="_wyRR_9sv9Ona-ReKIE4-251" value="Transport" style="shape=step;perimeter=stepPerimeter;whiteSpace=wrap;html=1;fixedSize=1;rounded=1;strokeWidth=3;" vertex="1" parent="1">
          <mxGeometry x="-1445.4560574948664" y="1426.5233333333333" width="129.60985626283366" height="91.11111111111111" as="geometry" />
        </mxCell>
        <mxCell id="_wyRR_9sv9Ona-ReKIE4-252" value="Equipment" style="shape=trapezoid;perimeter=trapezoidPerimeter;whiteSpace=wrap;html=1;fixedSize=1;strokeWidth=3;" vertex="1" parent="1">
          <mxGeometry x="-1450" y="480" width="140" height="80" as="geometry" />
        </mxCell>
        <mxCell id="_wyRR_9sv9Ona-ReKIE4-253" value="&lt;font style=&quot;font-size: 13px&quot;&gt;Utility Grenades&lt;/font&gt;" style="shape=trapezoid;perimeter=trapezoidPerimeter;whiteSpace=wrap;html=1;fixedSize=1;strokeWidth=1;" vertex="1" parent="1">
          <mxGeometry x="-1070" y="254.40000000000003" width="150" height="60" as="geometry" />
        </mxCell>
        <mxCell id="_wyRR_9sv9Ona-ReKIE4-254" style="edgeStyle=orthogonalEdgeStyle;rounded=1;orthogonalLoop=1;jettySize=auto;html=1;exitX=0.5;exitY=1;exitDx=0;exitDy=0;" edge="1" parent="1" source="_wyRR_9sv9Ona-ReKIE4-22" target="_wyRR_9sv9Ona-ReKIE4-253">
          <mxGeometry relative="1" as="geometry" />
        </mxCell>
        <mxCell id="_wyRR_9sv9Ona-ReKIE4-257" value="*Mostly consitant but i ran out of space in a lot of places" style="text;html=1;align=center;verticalAlign=middle;resizable=0;points=[];autosize=1;strokeColor=none;fillColor=none;" vertex="1" parent="1">
          <mxGeometry x="-1484" y="1640" width="320" height="30" as="geometry" />
        </mxCell>
        <mxCell id="_wyRR_9sv9Ona-ReKIE4-258" style="edgeStyle=orthogonalEdgeStyle;rounded=0;orthogonalLoop=1;jettySize=auto;html=1;exitX=0.5;exitY=1;exitDx=0;exitDy=0;" edge="1" parent="1" source="_wyRR_9sv9Ona-ReKIE4-259" target="_wyRR_9sv9Ona-ReKIE4-228">
          <mxGeometry relative="1" as="geometry">
            <Array as="points">
              <mxPoint x="-935" y="2110" />
              <mxPoint x="52" y="2110" />
            </Array>
          </mxGeometry>
        </mxCell>
        <mxCell id="_wyRR_9sv9Ona-ReKIE4-259" value="SMG Aquisition: CBJ-MS" style="rounded=1;whiteSpace=wrap;html=1;strokeColor=#808080;strokeWidth=3;fontSize=13;fillColor=#FFFFFF;" vertex="1" parent="1">
          <mxGeometry x="-999.9958932238193" y="379.99611111111113" width="129.60985626283366" height="85.41666666666666" as="geometry" />
        </mxCell>
        <mxCell id="_wyRR_9sv9Ona-ReKIE4-260" style="edgeStyle=orthogonalEdgeStyle;rounded=0;orthogonalLoop=1;jettySize=auto;html=1;exitX=0.5;exitY=1;exitDx=0;exitDy=0;entryX=0.5;entryY=0;entryDx=0;entryDy=0;" edge="1" parent="1" source="_wyRR_9sv9Ona-ReKIE4-185" target="_wyRR_9sv9Ona-ReKIE4-259">
          <mxGeometry relative="1" as="geometry" />
        </mxCell>
        <UserObject label="Prison Cells" lucidchartObjectId="Rn0dfHhhg2u." id="_wyRR_9sv9Ona-ReKIE4-263">
          <mxCell style="html=1;overflow=block;blockSpacing=1;whiteSpace=wrap;shape=trapezoid;perimeter=trapezoidPerimeter;anchorPointDirection=0;flipV=1;whiteSpace=wrap;fontSize=13;fontColor=#333333;align=center;spacing=3.8;strokeColor=#333333;strokeOpacity=100;fillOpacity=100;rounded=1;absoluteArcSize=1;arcSize=12;fillColor=#ffffff;strokeWidth=0.8;" vertex="1" parent="1">
            <mxGeometry x="5561.770143737166" y="241.80555555555554" width="129.60985626283366" height="102.5" as="geometry" />
          </mxCell>
        </UserObject>
        <mxCell id="_wyRR_9sv9Ona-ReKIE4-264" style="edgeStyle=orthogonalEdgeStyle;rounded=1;orthogonalLoop=1;jettySize=auto;html=1;entryX=0.5;entryY=0;entryDx=0;entryDy=0;exitX=0.5;exitY=1;exitDx=0;exitDy=0;" edge="1" parent="1" source="_wyRR_9sv9Ona-ReKIE4-387" target="_wyRR_9sv9Ona-ReKIE4-263">
          <mxGeometry relative="1" as="geometry">
            <Array as="points">
              <mxPoint x="5356.554537987679" y="176.88888888888889" />
              <mxPoint x="5626.575071868583" y="176.88888888888889" />
            </Array>
          </mxGeometry>
        </mxCell>
        <mxCell id="_wyRR_9sv9Ona-ReKIE4-265" value="Sniper" style="ellipse;whiteSpace=wrap;html=1;rounded=1;strokeColor=#333333;strokeWidth=0.8;fontSize=13;fontColor=#333333;" vertex="1" parent="1">
          <mxGeometry x="4276.472402464065" y="255.47222222222223" width="129.60985626283366" height="91.11111111111111" as="geometry" />
        </mxCell>
        <mxCell id="_wyRR_9sv9Ona-ReKIE4-266" style="edgeStyle=orthogonalEdgeStyle;rounded=1;orthogonalLoop=1;jettySize=auto;html=1;fontSize=13;fontColor=#333333;exitX=0.5;exitY=1;exitDx=0;exitDy=0;entryX=0.5;entryY=0;entryDx=0;entryDy=0;" edge="1" parent="1" source="_wyRR_9sv9Ona-ReKIE4-387" target="_wyRR_9sv9Ona-ReKIE4-265">
          <mxGeometry relative="1" as="geometry">
            <Array as="points">
              <mxPoint x="5356.554537987679" y="179.16666666666666" />
              <mxPoint x="4341.277330595482" y="179.16666666666666" />
            </Array>
          </mxGeometry>
        </mxCell>
        <mxCell id="_wyRR_9sv9Ona-ReKIE4-267" value="SAW" style="ellipse;whiteSpace=wrap;html=1;rounded=1;strokeColor=#333333;strokeWidth=0.8;fontSize=13;fontColor=#333333;" vertex="1" parent="1">
          <mxGeometry x="4460.08636550308" y="253.19444444444446" width="129.60985626283366" height="91.11111111111111" as="geometry" />
        </mxCell>
        <mxCell id="_wyRR_9sv9Ona-ReKIE4-268" style="edgeStyle=orthogonalEdgeStyle;rounded=1;orthogonalLoop=1;jettySize=auto;html=1;fontSize=13;fontColor=#333333;exitX=0.5;exitY=1;exitDx=0;exitDy=0;" edge="1" parent="1" source="_wyRR_9sv9Ona-ReKIE4-387" target="_wyRR_9sv9Ona-ReKIE4-267">
          <mxGeometry relative="1" as="geometry" />
        </mxCell>
        <mxCell id="_wyRR_9sv9Ona-ReKIE4-269" value="Rifleman" style="ellipse;whiteSpace=wrap;html=1;rounded=1;strokeColor=#333333;strokeWidth=0.8;fontSize=13;fontColor=#333333;" vertex="1" parent="1">
          <mxGeometry x="4654.50114989733" y="253.19444444444446" width="129.60985626283366" height="91.11111111111111" as="geometry" />
        </mxCell>
        <mxCell id="_wyRR_9sv9Ona-ReKIE4-270" style="edgeStyle=orthogonalEdgeStyle;rounded=1;orthogonalLoop=1;jettySize=auto;html=1;entryX=0.5;entryY=0;entryDx=0;entryDy=0;fontSize=13;fontColor=#333333;exitX=0.5;exitY=1;exitDx=0;exitDy=0;" edge="1" parent="1" source="_wyRR_9sv9Ona-ReKIE4-387" target="_wyRR_9sv9Ona-ReKIE4-269">
          <mxGeometry relative="1" as="geometry" />
        </mxCell>
        <mxCell id="_wyRR_9sv9Ona-ReKIE4-271" value="Raider" style="ellipse;whiteSpace=wrap;html=1;rounded=1;strokeColor=#333333;strokeWidth=0.8;fontSize=13;fontColor=#333333;" vertex="1" parent="1">
          <mxGeometry x="4848.915934291581" y="253.19444444444446" width="129.60985626283366" height="91.11111111111111" as="geometry" />
        </mxCell>
        <mxCell id="_wyRR_9sv9Ona-ReKIE4-272" style="edgeStyle=orthogonalEdgeStyle;rounded=1;orthogonalLoop=1;jettySize=auto;html=1;exitX=0.5;exitY=1;exitDx=0;exitDy=0;entryX=0.5;entryY=0;entryDx=0;entryDy=0;fontSize=13;fontColor=#333333;" edge="1" parent="1" source="_wyRR_9sv9Ona-ReKIE4-387" target="_wyRR_9sv9Ona-ReKIE4-271">
          <mxGeometry relative="1" as="geometry" />
        </mxCell>
        <mxCell id="_wyRR_9sv9Ona-ReKIE4-273" value="Grunt" style="ellipse;whiteSpace=wrap;html=1;rounded=1;strokeColor=#333333;strokeWidth=0.8;fontSize=13;fontColor=#333333;" vertex="1" parent="1">
          <mxGeometry x="5032.529897330595" y="253.19444444444446" width="129.60985626283366" height="91.11111111111111" as="geometry" />
        </mxCell>
        <mxCell id="_wyRR_9sv9Ona-ReKIE4-274" style="edgeStyle=orthogonalEdgeStyle;rounded=1;orthogonalLoop=1;jettySize=auto;html=1;exitX=0.5;exitY=1;exitDx=0;exitDy=0;entryX=0.5;entryY=0;entryDx=0;entryDy=0;fontSize=13;fontColor=#333333;" edge="1" parent="1" source="_wyRR_9sv9Ona-ReKIE4-387" target="_wyRR_9sv9Ona-ReKIE4-273">
          <mxGeometry relative="1" as="geometry" />
        </mxCell>
        <mxCell id="_wyRR_9sv9Ona-ReKIE4-275" value="Grenadier" style="ellipse;whiteSpace=wrap;html=1;rounded=1;strokeColor=#333333;strokeWidth=0.8;fontSize=13;fontColor=#333333;" vertex="1" parent="1">
          <mxGeometry x="4082.0576180698154" y="253.19444444444446" width="129.60985626283366" height="91.11111111111111" as="geometry" />
        </mxCell>
        <mxCell id="_wyRR_9sv9Ona-ReKIE4-276" style="edgeStyle=orthogonalEdgeStyle;rounded=1;orthogonalLoop=1;jettySize=auto;html=1;exitX=0.5;exitY=1;exitDx=0;exitDy=0;fontSize=13;fontColor=#333333;" edge="1" parent="1" source="_wyRR_9sv9Ona-ReKIE4-387" target="_wyRR_9sv9Ona-ReKIE4-275">
          <mxGeometry relative="1" as="geometry" />
        </mxCell>
        <mxCell id="_wyRR_9sv9Ona-ReKIE4-277" value="Leader" style="ellipse;whiteSpace=wrap;html=1;rounded=1;strokeColor=#333333;strokeWidth=0.8;fontSize=13;fontColor=#333333;" vertex="1" parent="1">
          <mxGeometry x="3779.6346201232027" y="249.77777777777777" width="129.60985626283366" height="91.11111111111111" as="geometry" />
        </mxCell>
        <mxCell id="_wyRR_9sv9Ona-ReKIE4-278" style="edgeStyle=orthogonalEdgeStyle;rounded=1;orthogonalLoop=1;jettySize=auto;html=1;exitX=0.5;exitY=1;exitDx=0;exitDy=0;entryX=0.5;entryY=0;entryDx=0;entryDy=0;fontSize=13;fontColor=#333333;" edge="1" parent="1" source="_wyRR_9sv9Ona-ReKIE4-387" target="_wyRR_9sv9Ona-ReKIE4-277">
          <mxGeometry relative="1" as="geometry" />
        </mxCell>
        <mxCell id="_wyRR_9sv9Ona-ReKIE4-279" value="Commander" style="ellipse;whiteSpace=wrap;html=1;rounded=1;strokeColor=#333333;strokeWidth=0.8;fontSize=13;fontColor=#333333;" vertex="1" parent="1">
          <mxGeometry x="3434.008336755647" y="771.3888888888888" width="129.60985626283366" height="91.11111111111111" as="geometry" />
        </mxCell>
        <mxCell id="_wyRR_9sv9Ona-ReKIE4-280" style="edgeStyle=orthogonalEdgeStyle;orthogonalLoop=1;jettySize=auto;html=1;exitX=0.5;exitY=1;exitDx=0;exitDy=0;entryX=0.5;entryY=0;entryDx=0;entryDy=0;fontSize=13;fontColor=#333333;rounded=1;" edge="1" parent="1" source="_wyRR_9sv9Ona-ReKIE4-387" target="_wyRR_9sv9Ona-ReKIE4-279">
          <mxGeometry relative="1" as="geometry">
            <Array as="points">
              <mxPoint x="5356.554537987679" y="179.16666666666666" />
              <mxPoint x="3498.8132648870633" y="179.16666666666666" />
            </Array>
          </mxGeometry>
        </mxCell>
        <mxCell id="_wyRR_9sv9Ona-ReKIE4-281" value="House Lead 1" style="rhombus;whiteSpace=wrap;html=1;rounded=1;strokeColor=#333333;strokeWidth=0.8;fontSize=13;fontColor=#333333;" vertex="1" parent="1">
          <mxGeometry x="4460.08636550308" y="452.5" width="129.60985626283366" height="91.11111111111111" as="geometry" />
        </mxCell>
        <mxCell id="_wyRR_9sv9Ona-ReKIE4-282" style="edgeStyle=orthogonalEdgeStyle;orthogonalLoop=1;jettySize=auto;html=1;exitX=0.5;exitY=1;exitDx=0;exitDy=0;entryX=0.5;entryY=0;entryDx=0;entryDy=0;fontSize=13;fontColor=#333333;dashed=1;" edge="1" parent="1" source="_wyRR_9sv9Ona-ReKIE4-265" target="_wyRR_9sv9Ona-ReKIE4-281">
          <mxGeometry relative="1" as="geometry">
            <Array as="points">
              <mxPoint x="4362.878973305955" y="346.5833333333333" />
              <mxPoint x="4362.878973305955" y="400.1111111111111" />
              <mxPoint x="4524.891293634497" y="400.1111111111111" />
            </Array>
          </mxGeometry>
        </mxCell>
        <mxCell id="_wyRR_9sv9Ona-ReKIE4-283" style="edgeStyle=orthogonalEdgeStyle;orthogonalLoop=1;jettySize=auto;html=1;exitX=0.5;exitY=1;exitDx=0;exitDy=0;entryX=0.5;entryY=0;entryDx=0;entryDy=0;fontSize=13;fontColor=#333333;dashed=1;" edge="1" parent="1" source="_wyRR_9sv9Ona-ReKIE4-267" target="_wyRR_9sv9Ona-ReKIE4-281">
          <mxGeometry relative="1" as="geometry" />
        </mxCell>
        <mxCell id="_wyRR_9sv9Ona-ReKIE4-284" style="edgeStyle=orthogonalEdgeStyle;orthogonalLoop=1;jettySize=auto;html=1;entryX=0.5;entryY=0;entryDx=0;entryDy=0;dashed=1;fontSize=13;fontColor=#333333;exitX=0.5;exitY=1;exitDx=0;exitDy=0;" edge="1" parent="1" source="_wyRR_9sv9Ona-ReKIE4-269" target="_wyRR_9sv9Ona-ReKIE4-281">
          <mxGeometry relative="1" as="geometry">
            <Array as="points">
              <mxPoint x="4697.704435318275" y="344.30555555555554" />
              <mxPoint x="4697.704435318275" y="398.97222222222223" />
              <mxPoint x="4524.891293634497" y="398.97222222222223" />
            </Array>
          </mxGeometry>
        </mxCell>
        <mxCell id="_wyRR_9sv9Ona-ReKIE4-285" style="edgeStyle=orthogonalEdgeStyle;orthogonalLoop=1;jettySize=auto;html=1;exitX=0.5;exitY=1;exitDx=0;exitDy=0;entryX=0.5;entryY=0;entryDx=0;entryDy=0;fontSize=13;fontColor=#333333;dashed=1;" edge="1" parent="1" source="_wyRR_9sv9Ona-ReKIE4-271" target="_wyRR_9sv9Ona-ReKIE4-281">
          <mxGeometry relative="1" as="geometry">
            <Array as="points">
              <mxPoint x="4935.32250513347" y="344.30555555555554" />
              <mxPoint x="4935.32250513347" y="398.97222222222223" />
              <mxPoint x="4524.891293634497" y="398.97222222222223" />
            </Array>
          </mxGeometry>
        </mxCell>
        <mxCell id="_wyRR_9sv9Ona-ReKIE4-286" style="edgeStyle=orthogonalEdgeStyle;orthogonalLoop=1;jettySize=auto;html=1;exitX=0.5;exitY=1;exitDx=0;exitDy=0;entryX=0.5;entryY=0;entryDx=0;entryDy=0;fontSize=13;fontColor=#333333;dashed=1;" edge="1" parent="1" source="_wyRR_9sv9Ona-ReKIE4-273" target="_wyRR_9sv9Ona-ReKIE4-281">
          <mxGeometry relative="1" as="geometry">
            <Array as="points">
              <mxPoint x="5118.936468172485" y="344.30555555555554" />
              <mxPoint x="5118.936468172485" y="398.97222222222223" />
              <mxPoint x="4524.891293634497" y="398.97222222222223" />
            </Array>
          </mxGeometry>
        </mxCell>
        <mxCell id="_wyRR_9sv9Ona-ReKIE4-287" style="edgeStyle=orthogonalEdgeStyle;orthogonalLoop=1;jettySize=auto;html=1;exitX=0.5;exitY=1;exitDx=0;exitDy=0;entryX=0.5;entryY=0;entryDx=0;entryDy=0;dashed=1;fontSize=13;fontColor=#333333;" edge="1" parent="1" source="_wyRR_9sv9Ona-ReKIE4-275" target="_wyRR_9sv9Ona-ReKIE4-281">
          <mxGeometry relative="1" as="geometry" />
        </mxCell>
        <mxCell id="_wyRR_9sv9Ona-ReKIE4-288" value="House Lead 2" style="rhombus;whiteSpace=wrap;html=1;rounded=0;strokeColor=#333333;strokeWidth=0.8;fontSize=13;fontColor=#333333;" vertex="1" parent="1">
          <mxGeometry x="4654.50114989733" y="452.5" width="129.60985626283366" height="91.11111111111111" as="geometry" />
        </mxCell>
        <mxCell id="_wyRR_9sv9Ona-ReKIE4-289" style="edgeStyle=orthogonalEdgeStyle;orthogonalLoop=1;jettySize=auto;html=1;exitX=0.5;exitY=1;exitDx=0;exitDy=0;entryX=0.5;entryY=0;entryDx=0;entryDy=0;fontSize=13;fontColor=#333333;dashed=1;" edge="1" parent="1" source="_wyRR_9sv9Ona-ReKIE4-265" target="_wyRR_9sv9Ona-ReKIE4-288">
          <mxGeometry relative="1" as="geometry">
            <Array as="points">
              <mxPoint x="4319.67568788501" y="346.5833333333333" />
              <mxPoint x="4319.67568788501" y="400.1111111111111" />
              <mxPoint x="4719.306078028747" y="400.1111111111111" />
            </Array>
          </mxGeometry>
        </mxCell>
        <mxCell id="_wyRR_9sv9Ona-ReKIE4-290" style="edgeStyle=orthogonalEdgeStyle;orthogonalLoop=1;jettySize=auto;html=1;exitX=0.5;exitY=1;exitDx=0;exitDy=0;entryX=0.5;entryY=0;entryDx=0;entryDy=0;fontSize=13;fontColor=#333333;dashed=1;" edge="1" parent="1" source="_wyRR_9sv9Ona-ReKIE4-267" target="_wyRR_9sv9Ona-ReKIE4-288">
          <mxGeometry relative="1" as="geometry">
            <Array as="points">
              <mxPoint x="4546.492936344969" y="344.30555555555554" />
              <mxPoint x="4546.492936344969" y="398.97222222222223" />
              <mxPoint x="4719.306078028747" y="398.97222222222223" />
            </Array>
          </mxGeometry>
        </mxCell>
        <mxCell id="_wyRR_9sv9Ona-ReKIE4-291" style="edgeStyle=orthogonalEdgeStyle;orthogonalLoop=1;jettySize=auto;html=1;exitX=0.5;exitY=1;exitDx=0;exitDy=0;entryX=0.5;entryY=0;entryDx=0;entryDy=0;fontSize=13;fontColor=#333333;dashed=1;" edge="1" parent="1" source="_wyRR_9sv9Ona-ReKIE4-269" target="_wyRR_9sv9Ona-ReKIE4-288">
          <mxGeometry relative="1" as="geometry" />
        </mxCell>
        <mxCell id="_wyRR_9sv9Ona-ReKIE4-292" value="&lt;font style=&quot;font-size: 13px&quot;&gt;One granted every time researched&lt;/font&gt;" style="edgeLabel;html=1;align=center;verticalAlign=middle;resizable=0;points=[];labelBorderColor=none;" vertex="1" connectable="0" parent="_wyRR_9sv9Ona-ReKIE4-291">
          <mxGeometry x="-0.3263" y="-2" relative="1" as="geometry">
            <mxPoint as="offset" />
          </mxGeometry>
        </mxCell>
        <mxCell id="_wyRR_9sv9Ona-ReKIE4-293" style="edgeStyle=orthogonalEdgeStyle;orthogonalLoop=1;jettySize=auto;html=1;exitX=0.5;exitY=1;exitDx=0;exitDy=0;entryX=0.5;entryY=0;entryDx=0;entryDy=0;fontSize=13;fontColor=#333333;dashed=1;" edge="1" parent="1" source="_wyRR_9sv9Ona-ReKIE4-271" target="_wyRR_9sv9Ona-ReKIE4-288">
          <mxGeometry relative="1" as="geometry">
            <Array as="points">
              <mxPoint x="4892.119219712526" y="344.30555555555554" />
              <mxPoint x="4892.119219712526" y="398.97222222222223" />
              <mxPoint x="4719.306078028747" y="398.97222222222223" />
            </Array>
          </mxGeometry>
        </mxCell>
        <mxCell id="_wyRR_9sv9Ona-ReKIE4-294" style="edgeStyle=orthogonalEdgeStyle;orthogonalLoop=1;jettySize=auto;html=1;exitX=0.5;exitY=1;exitDx=0;exitDy=0;entryX=0.5;entryY=0;entryDx=0;entryDy=0;fontSize=13;fontColor=#333333;dashed=1;" edge="1" parent="1" source="_wyRR_9sv9Ona-ReKIE4-273" target="_wyRR_9sv9Ona-ReKIE4-288">
          <mxGeometry relative="1" as="geometry">
            <Array as="points">
              <mxPoint x="5075.73318275154" y="344.30555555555554" />
              <mxPoint x="5075.73318275154" y="398.97222222222223" />
              <mxPoint x="4719.306078028747" y="398.97222222222223" />
            </Array>
          </mxGeometry>
        </mxCell>
        <mxCell id="_wyRR_9sv9Ona-ReKIE4-295" style="edgeStyle=orthogonalEdgeStyle;orthogonalLoop=1;jettySize=auto;html=1;exitX=0.5;exitY=1;exitDx=0;exitDy=0;entryX=0.5;entryY=0;entryDx=0;entryDy=0;dashed=1;fontSize=13;fontColor=#333333;" edge="1" parent="1" source="_wyRR_9sv9Ona-ReKIE4-275" target="_wyRR_9sv9Ona-ReKIE4-288">
          <mxGeometry relative="1" as="geometry">
            <Array as="points">
              <mxPoint x="4168.464188911705" y="344.30555555555554" />
              <mxPoint x="4168.464188911705" y="398.97222222222223" />
              <mxPoint x="4719.306078028747" y="398.97222222222223" />
            </Array>
          </mxGeometry>
        </mxCell>
        <mxCell id="_wyRR_9sv9Ona-ReKIE4-296" value="House Lead 2" style="rhombus;whiteSpace=wrap;html=1;rounded=0;strokeColor=#333333;strokeWidth=0.8;fontSize=13;fontColor=#333333;" vertex="1" parent="1">
          <mxGeometry x="4848.915934291581" y="452.5" width="129.60985626283366" height="91.11111111111111" as="geometry" />
        </mxCell>
        <mxCell id="_wyRR_9sv9Ona-ReKIE4-297" style="edgeStyle=orthogonalEdgeStyle;orthogonalLoop=1;jettySize=auto;html=1;exitX=0.5;exitY=1;exitDx=0;exitDy=0;entryX=0.5;entryY=0;entryDx=0;entryDy=0;fontSize=13;fontColor=#333333;dashed=1;" edge="1" parent="1" source="_wyRR_9sv9Ona-ReKIE4-265" target="_wyRR_9sv9Ona-ReKIE4-296">
          <mxGeometry relative="1" as="geometry" />
        </mxCell>
        <mxCell id="_wyRR_9sv9Ona-ReKIE4-298" style="edgeStyle=orthogonalEdgeStyle;orthogonalLoop=1;jettySize=auto;html=1;exitX=0.5;exitY=1;exitDx=0;exitDy=0;entryX=0.5;entryY=0;entryDx=0;entryDy=0;fontSize=13;fontColor=#333333;dashed=1;" edge="1" parent="1" source="_wyRR_9sv9Ona-ReKIE4-267" target="_wyRR_9sv9Ona-ReKIE4-296">
          <mxGeometry relative="1" as="geometry">
            <Array as="points">
              <mxPoint x="4503.2896509240245" y="344.30555555555554" />
              <mxPoint x="4503.2896509240245" y="398.97222222222223" />
              <mxPoint x="4913.720862422998" y="398.97222222222223" />
            </Array>
          </mxGeometry>
        </mxCell>
        <mxCell id="_wyRR_9sv9Ona-ReKIE4-299" style="edgeStyle=orthogonalEdgeStyle;orthogonalLoop=1;jettySize=auto;html=1;exitX=0.5;exitY=1;exitDx=0;exitDy=0;entryX=0.5;entryY=0;entryDx=0;entryDy=0;fontSize=13;fontColor=#333333;dashed=1;" edge="1" parent="1" source="_wyRR_9sv9Ona-ReKIE4-269" target="_wyRR_9sv9Ona-ReKIE4-296">
          <mxGeometry relative="1" as="geometry">
            <Array as="points">
              <mxPoint x="4740.907720739219" y="344.30555555555554" />
              <mxPoint x="4740.907720739219" y="398.97222222222223" />
              <mxPoint x="4913.720862422998" y="398.97222222222223" />
            </Array>
          </mxGeometry>
        </mxCell>
        <mxCell id="_wyRR_9sv9Ona-ReKIE4-300" style="edgeStyle=orthogonalEdgeStyle;orthogonalLoop=1;jettySize=auto;html=1;exitX=0.5;exitY=1;exitDx=0;exitDy=0;entryX=0.5;entryY=0;entryDx=0;entryDy=0;fontSize=13;fontColor=#333333;dashed=1;" edge="1" parent="1" source="_wyRR_9sv9Ona-ReKIE4-271" target="_wyRR_9sv9Ona-ReKIE4-296">
          <mxGeometry relative="1" as="geometry" />
        </mxCell>
        <mxCell id="_wyRR_9sv9Ona-ReKIE4-301" style="edgeStyle=orthogonalEdgeStyle;orthogonalLoop=1;jettySize=auto;html=1;exitX=0.5;exitY=1;exitDx=0;exitDy=0;entryX=0.5;entryY=0;entryDx=0;entryDy=0;fontSize=13;fontColor=#333333;dashed=1;" edge="1" parent="1" source="_wyRR_9sv9Ona-ReKIE4-273" target="_wyRR_9sv9Ona-ReKIE4-296">
          <mxGeometry relative="1" as="geometry" />
        </mxCell>
        <mxCell id="_wyRR_9sv9Ona-ReKIE4-302" style="edgeStyle=orthogonalEdgeStyle;orthogonalLoop=1;jettySize=auto;html=1;exitX=0.5;exitY=1;exitDx=0;exitDy=0;entryX=0.5;entryY=0;entryDx=0;entryDy=0;dashed=1;fontSize=13;fontColor=#333333;" edge="1" parent="1" source="_wyRR_9sv9Ona-ReKIE4-275" target="_wyRR_9sv9Ona-ReKIE4-296">
          <mxGeometry relative="1" as="geometry">
            <Array as="points">
              <mxPoint x="4125.26090349076" y="344.30555555555554" />
              <mxPoint x="4125.26090349076" y="398.97222222222223" />
              <mxPoint x="4913.720862422998" y="398.97222222222223" />
            </Array>
          </mxGeometry>
        </mxCell>
        <mxCell id="_wyRR_9sv9Ona-ReKIE4-303" value="Safe-House Raids" style="shape=parallelogram;perimeter=parallelogramPerimeter;whiteSpace=wrap;html=1;fixedSize=1;rounded=1;strokeColor=#333333;strokeWidth=0.8;fontSize=13;fontColor=#333333;" vertex="1" parent="1">
          <mxGeometry x="4643.700328542094" y="623.3333333333333" width="151.21149897330594" height="68.33333333333333" as="geometry" />
        </mxCell>
        <mxCell id="_wyRR_9sv9Ona-ReKIE4-304" style="edgeStyle=orthogonalEdgeStyle;orthogonalLoop=1;jettySize=auto;html=1;exitX=0.5;exitY=1;exitDx=0;exitDy=0;fontSize=13;fontColor=#333333;" edge="1" parent="1" source="_wyRR_9sv9Ona-ReKIE4-281" target="_wyRR_9sv9Ona-ReKIE4-303">
          <mxGeometry relative="1" as="geometry" />
        </mxCell>
        <mxCell id="_wyRR_9sv9Ona-ReKIE4-305" style="edgeStyle=orthogonalEdgeStyle;orthogonalLoop=1;jettySize=auto;html=1;exitX=0.5;exitY=1;exitDx=0;exitDy=0;entryX=0.5;entryY=0;entryDx=0;entryDy=0;fontSize=13;fontColor=#333333;" edge="1" parent="1" source="_wyRR_9sv9Ona-ReKIE4-288" target="_wyRR_9sv9Ona-ReKIE4-303">
          <mxGeometry relative="1" as="geometry" />
        </mxCell>
        <mxCell id="_wyRR_9sv9Ona-ReKIE4-306" style="edgeStyle=orthogonalEdgeStyle;orthogonalLoop=1;jettySize=auto;html=1;exitX=0.5;exitY=1;exitDx=0;exitDy=0;entryX=0.5;entryY=0;entryDx=0;entryDy=0;fontSize=13;fontColor=#333333;" edge="1" parent="1" source="_wyRR_9sv9Ona-ReKIE4-296" target="_wyRR_9sv9Ona-ReKIE4-303">
          <mxGeometry relative="1" as="geometry" />
        </mxCell>
        <mxCell id="_wyRR_9sv9Ona-ReKIE4-307" value="House Lead 1" style="rhombus;whiteSpace=wrap;html=1;rounded=0;strokeColor=#333333;strokeWidth=0.8;fontSize=13;fontColor=#333333;" vertex="1" parent="1">
          <mxGeometry x="4460.08636550308" y="452.5" width="129.60985626283366" height="91.11111111111111" as="geometry" />
        </mxCell>
        <mxCell id="_wyRR_9sv9Ona-ReKIE4-308" value="Hideout Lead 2" style="rhombus;whiteSpace=wrap;html=1;rounded=0;strokeColor=#333333;strokeWidth=0.8;fontSize=13;fontColor=#333333;" vertex="1" parent="1">
          <mxGeometry x="3779.6346201232027" y="452.5" width="129.60985626283366" height="91.11111111111111" as="geometry" />
        </mxCell>
        <mxCell id="_wyRR_9sv9Ona-ReKIE4-309" style="edgeStyle=orthogonalEdgeStyle;orthogonalLoop=1;jettySize=auto;html=1;exitX=0.5;exitY=1;exitDx=0;exitDy=0;dashed=1;fontSize=13;fontColor=#333333;" edge="1" parent="1" source="_wyRR_9sv9Ona-ReKIE4-277" target="_wyRR_9sv9Ona-ReKIE4-308">
          <mxGeometry relative="1" as="geometry" />
        </mxCell>
        <mxCell id="_wyRR_9sv9Ona-ReKIE4-310" value="Hideout Lead 3" style="rhombus;whiteSpace=wrap;html=1;rounded=0;strokeColor=#333333;strokeWidth=0.8;fontSize=13;fontColor=#333333;" vertex="1" parent="1">
          <mxGeometry x="3974.0494045174537" y="452.5" width="129.60985626283366" height="91.11111111111111" as="geometry" />
        </mxCell>
        <mxCell id="_wyRR_9sv9Ona-ReKIE4-311" value="Hideout Lead 1" style="rhombus;whiteSpace=wrap;html=1;rounded=0;strokeColor=#333333;strokeWidth=0.8;fontSize=13;fontColor=#333333;" vertex="1" parent="1">
          <mxGeometry x="3585.2198357289526" y="452.5" width="129.60985626283366" height="91.11111111111111" as="geometry" />
        </mxCell>
        <mxCell id="_wyRR_9sv9Ona-ReKIE4-312" style="edgeStyle=orthogonalEdgeStyle;orthogonalLoop=1;jettySize=auto;html=1;exitX=0.5;exitY=1;exitDx=0;exitDy=0;entryX=0.5;entryY=0;entryDx=0;entryDy=0;fontSize=13;fontColor=#333333;dashed=1;" edge="1" parent="1" source="_wyRR_9sv9Ona-ReKIE4-277" target="_wyRR_9sv9Ona-ReKIE4-311">
          <mxGeometry relative="1" as="geometry" />
        </mxCell>
        <mxCell id="_wyRR_9sv9Ona-ReKIE4-313" value="&lt;font style=&quot;font-size: 13px&quot;&gt;One granted every time researched&lt;/font&gt;" style="edgeLabel;html=1;align=center;verticalAlign=middle;resizable=0;points=[];" vertex="1" connectable="0" parent="_wyRR_9sv9Ona-ReKIE4-312">
          <mxGeometry x="-0.0719" y="-2" relative="1" as="geometry">
            <mxPoint as="offset" />
          </mxGeometry>
        </mxCell>
        <mxCell id="_wyRR_9sv9Ona-ReKIE4-314" value="Hideout Raids" style="shape=parallelogram;perimeter=parallelogramPerimeter;whiteSpace=wrap;html=1;fixedSize=1;rounded=1;strokeColor=#333333;strokeWidth=0.8;fontSize=13;fontColor=#333333;" vertex="1" parent="1">
          <mxGeometry x="3779.6346201232027" y="623.3333333333333" width="129.60985626283366" height="68.33333333333333" as="geometry" />
        </mxCell>
        <mxCell id="_wyRR_9sv9Ona-ReKIE4-315" style="edgeStyle=orthogonalEdgeStyle;orthogonalLoop=1;jettySize=auto;html=1;exitX=0.5;exitY=1;exitDx=0;exitDy=0;entryX=0.5;entryY=0;entryDx=0;entryDy=0;fontSize=13;fontColor=#333333;" edge="1" parent="1" source="_wyRR_9sv9Ona-ReKIE4-308" target="_wyRR_9sv9Ona-ReKIE4-314">
          <mxGeometry relative="1" as="geometry" />
        </mxCell>
        <mxCell id="_wyRR_9sv9Ona-ReKIE4-316" style="edgeStyle=orthogonalEdgeStyle;orthogonalLoop=1;jettySize=auto;html=1;exitX=0.5;exitY=1;exitDx=0;exitDy=0;entryX=0.5;entryY=0;entryDx=0;entryDy=0;fontSize=13;fontColor=#333333;" edge="1" parent="1" source="_wyRR_9sv9Ona-ReKIE4-310" target="_wyRR_9sv9Ona-ReKIE4-314">
          <mxGeometry relative="1" as="geometry" />
        </mxCell>
        <mxCell id="_wyRR_9sv9Ona-ReKIE4-317" style="edgeStyle=orthogonalEdgeStyle;orthogonalLoop=1;jettySize=auto;html=1;exitX=0.5;exitY=1;exitDx=0;exitDy=0;entryX=0.5;entryY=0;entryDx=0;entryDy=0;fontSize=13;fontColor=#333333;" edge="1" parent="1" source="_wyRR_9sv9Ona-ReKIE4-311" target="_wyRR_9sv9Ona-ReKIE4-314">
          <mxGeometry relative="1" as="geometry" />
        </mxCell>
        <mxCell id="_wyRR_9sv9Ona-ReKIE4-318" style="edgeStyle=orthogonalEdgeStyle;rounded=1;orthogonalLoop=1;jettySize=auto;html=1;exitX=0.5;exitY=1;exitDx=0;exitDy=0;entryX=0.5;entryY=0;entryDx=0;entryDy=0;" edge="1" parent="1" source="_wyRR_9sv9Ona-ReKIE4-319" target="_wyRR_9sv9Ona-ReKIE4-310">
          <mxGeometry relative="1" as="geometry" />
        </mxCell>
        <mxCell id="_wyRR_9sv9Ona-ReKIE4-319" value="Safe-House Evidence" style="shape=hexagon;perimeter=hexagonPerimeter2;whiteSpace=wrap;html=1;fixedSize=1;rounded=1;strokeWidth=1;" vertex="1" parent="1">
          <mxGeometry x="4460.08636550308" y="611.9444444444445" width="129.60985626283366" height="91.11111111111111" as="geometry" />
        </mxCell>
        <mxCell id="_wyRR_9sv9Ona-ReKIE4-320" value="Hideout Evidence" style="shape=hexagon;perimeter=hexagonPerimeter2;whiteSpace=wrap;html=1;fixedSize=1;rounded=1;strokeWidth=1;" vertex="1" parent="1">
          <mxGeometry x="3596.020657084189" y="611.9444444444445" width="129.60985626283366" height="91.11111111111111" as="geometry" />
        </mxCell>
        <mxCell id="_wyRR_9sv9Ona-ReKIE4-321" value="&lt;div&gt;Large&lt;/div&gt;&lt;div&gt;Transport&lt;br&gt;&lt;/div&gt;" style="shape=step;perimeter=stepPerimeter;whiteSpace=wrap;html=1;fixedSize=1;rounded=1;strokeWidth=1;" vertex="1" parent="1">
          <mxGeometry x="4071.2567967145787" y="919.4444444444445" width="129.60985626283366" height="91.11111111111111" as="geometry" />
        </mxCell>
        <mxCell id="_wyRR_9sv9Ona-ReKIE4-322" style="edgeStyle=orthogonalEdgeStyle;orthogonalLoop=1;jettySize=auto;html=1;exitX=0.5;exitY=1;exitDx=0;exitDy=0;entryX=0.5;entryY=0;entryDx=0;entryDy=0;" edge="1" parent="1" source="_wyRR_9sv9Ona-ReKIE4-314" target="_wyRR_9sv9Ona-ReKIE4-321">
          <mxGeometry relative="1" as="geometry">
            <mxPoint x="3995.651047227926" y="930.8333333333333" as="targetPoint" />
            <Array as="points">
              <mxPoint x="3844.4395482546206" y="725.8333333333333" />
              <mxPoint x="3876.8420123203286" y="725.8333333333333" />
              <mxPoint x="3876.8420123203286" y="885.2777777777777" />
              <mxPoint x="4136.061724845996" y="885.2777777777777" />
            </Array>
          </mxGeometry>
        </mxCell>
        <mxCell id="_wyRR_9sv9Ona-ReKIE4-323" style="edgeStyle=orthogonalEdgeStyle;orthogonalLoop=1;jettySize=auto;html=1;exitX=0.5;exitY=1;exitDx=0;exitDy=0;entryX=0.5;entryY=0;entryDx=0;entryDy=0;" edge="1" parent="1" source="_wyRR_9sv9Ona-ReKIE4-324" target="_wyRR_9sv9Ona-ReKIE4-321">
          <mxGeometry relative="1" as="geometry" />
        </mxCell>
        <mxCell id="_wyRR_9sv9Ona-ReKIE4-324" value="&lt;div&gt;Medium&lt;/div&gt;&lt;div&gt;Transport&lt;/div&gt;" style="shape=step;perimeter=stepPerimeter;whiteSpace=wrap;html=1;fixedSize=1;rounded=1;strokeWidth=1;" vertex="1" parent="1">
          <mxGeometry x="4071.2567967145787" y="782.7777777777777" width="129.60985626283366" height="91.11111111111111" as="geometry" />
        </mxCell>
        <mxCell id="_wyRR_9sv9Ona-ReKIE4-325" style="edgeStyle=orthogonalEdgeStyle;orthogonalLoop=1;jettySize=auto;html=1;exitX=0.5;exitY=1;exitDx=0;exitDy=0;" edge="1" parent="1" source="_wyRR_9sv9Ona-ReKIE4-303" target="_wyRR_9sv9Ona-ReKIE4-324">
          <mxGeometry relative="1" as="geometry">
            <Array as="points">
              <mxPoint x="4719.306078028747" y="760" />
              <mxPoint x="4136.061724845996" y="760" />
            </Array>
          </mxGeometry>
        </mxCell>
        <mxCell id="_wyRR_9sv9Ona-ReKIE4-326" value="Office Lead 1" style="rhombus;whiteSpace=wrap;html=1;rounded=0;strokeWidth=1;" vertex="1" parent="1">
          <mxGeometry x="3380.004229979466" y="1192.7777777777778" width="129.60985626283366" height="91.11111111111111" as="geometry" />
        </mxCell>
        <mxCell id="_wyRR_9sv9Ona-ReKIE4-327" style="edgeStyle=orthogonalEdgeStyle;orthogonalLoop=1;jettySize=auto;html=1;exitX=0.5;exitY=1;exitDx=0;exitDy=0;entryX=0.5;entryY=0;entryDx=0;entryDy=0;dashed=1;" edge="1" parent="1" source="_wyRR_9sv9Ona-ReKIE4-279" target="_wyRR_9sv9Ona-ReKIE4-326">
          <mxGeometry relative="1" as="geometry" />
        </mxCell>
        <mxCell id="_wyRR_9sv9Ona-ReKIE4-328" value="Office Lead 2" style="rhombus;whiteSpace=wrap;html=1;rounded=0;strokeWidth=1;" vertex="1" parent="1">
          <mxGeometry x="3552.8173716632446" y="1192.7777777777778" width="129.60985626283366" height="91.11111111111111" as="geometry" />
        </mxCell>
        <mxCell id="_wyRR_9sv9Ona-ReKIE4-329" style="edgeStyle=orthogonalEdgeStyle;orthogonalLoop=1;jettySize=auto;html=1;exitX=0.5;exitY=1;exitDx=0;exitDy=0;dashed=1;" edge="1" parent="1" source="_wyRR_9sv9Ona-ReKIE4-320" target="_wyRR_9sv9Ona-ReKIE4-328">
          <mxGeometry relative="1" as="geometry">
            <Array as="points">
              <mxPoint x="3660.8255852156053" y="737.2222222222222" />
              <mxPoint x="3617.6222997946606" y="737.2222222222222" />
            </Array>
          </mxGeometry>
        </mxCell>
        <mxCell id="_wyRR_9sv9Ona-ReKIE4-330" value="Office Lead 3" style="rhombus;whiteSpace=wrap;html=1;rounded=0;strokeWidth=1;" vertex="1" parent="1">
          <mxGeometry x="3725.6305133470223" y="1192.7777777777778" width="129.60985626283366" height="91.11111111111111" as="geometry" />
        </mxCell>
        <mxCell id="_wyRR_9sv9Ona-ReKIE4-331" style="edgeStyle=orthogonalEdgeStyle;orthogonalLoop=1;jettySize=auto;html=1;exitX=0.5;exitY=1;exitDx=0;exitDy=0;dashed=1;" edge="1" parent="1" source="_wyRR_9sv9Ona-ReKIE4-320" target="_wyRR_9sv9Ona-ReKIE4-330">
          <mxGeometry relative="1" as="geometry">
            <Array as="points">
              <mxPoint x="3660.8255852156053" y="737.2222222222222" />
              <mxPoint x="3704.02887063655" y="737.2222222222222" />
              <mxPoint x="3704.02887063655" y="1147.2222222222222" />
              <mxPoint x="3790.4354414784393" y="1147.2222222222222" />
            </Array>
          </mxGeometry>
        </mxCell>
        <mxCell id="_wyRR_9sv9Ona-ReKIE4-332" value="Office Raid" style="shape=parallelogram;perimeter=parallelogramPerimeter;whiteSpace=wrap;html=1;fixedSize=1;rounded=1;strokeWidth=1;" vertex="1" parent="1">
          <mxGeometry x="3552.8173716632446" y="1375" width="129.60985626283366" height="68.33333333333333" as="geometry" />
        </mxCell>
        <mxCell id="_wyRR_9sv9Ona-ReKIE4-333" style="edgeStyle=orthogonalEdgeStyle;rounded=1;orthogonalLoop=1;jettySize=auto;html=1;exitX=0.5;exitY=1;exitDx=0;exitDy=0;entryX=0.5;entryY=0;entryDx=0;entryDy=0;" edge="1" parent="1" source="_wyRR_9sv9Ona-ReKIE4-326" target="_wyRR_9sv9Ona-ReKIE4-332">
          <mxGeometry relative="1" as="geometry" />
        </mxCell>
        <mxCell id="_wyRR_9sv9Ona-ReKIE4-334" style="edgeStyle=orthogonalEdgeStyle;rounded=1;orthogonalLoop=1;jettySize=auto;html=1;exitX=0.5;exitY=1;exitDx=0;exitDy=0;entryX=0.5;entryY=0;entryDx=0;entryDy=0;" edge="1" parent="1" source="_wyRR_9sv9Ona-ReKIE4-328" target="_wyRR_9sv9Ona-ReKIE4-332">
          <mxGeometry relative="1" as="geometry" />
        </mxCell>
        <mxCell id="_wyRR_9sv9Ona-ReKIE4-335" style="edgeStyle=orthogonalEdgeStyle;rounded=1;orthogonalLoop=1;jettySize=auto;html=1;exitX=0.5;exitY=1;exitDx=0;exitDy=0;" edge="1" parent="1" source="_wyRR_9sv9Ona-ReKIE4-330" target="_wyRR_9sv9Ona-ReKIE4-332">
          <mxGeometry relative="1" as="geometry" />
        </mxCell>
        <mxCell id="_wyRR_9sv9Ona-ReKIE4-336" value="Sniper" style="ellipse;whiteSpace=wrap;html=1;rounded=1;strokeColor=#333333;strokeWidth=0.8;fontSize=13;fontColor=#333333;" vertex="1" parent="1">
          <mxGeometry x="4514.09047227926" y="1366.4583333333333" width="129.60985626283366" height="91.11111111111111" as="geometry" />
        </mxCell>
        <mxCell id="_wyRR_9sv9Ona-ReKIE4-337" style="edgeStyle=orthogonalEdgeStyle;rounded=1;orthogonalLoop=1;jettySize=auto;html=1;exitX=0.5;exitY=1;exitDx=0;exitDy=0;" edge="1" parent="1" source="_wyRR_9sv9Ona-ReKIE4-387" target="_wyRR_9sv9Ona-ReKIE4-336">
          <mxGeometry relative="1" as="geometry">
            <Array as="points">
              <mxPoint x="5356.554537987679" y="1306.6666666666665" />
              <mxPoint x="4578.895400410677" y="1306.6666666666665" />
            </Array>
          </mxGeometry>
        </mxCell>
        <mxCell id="_wyRR_9sv9Ona-ReKIE4-338" value="SAW" style="ellipse;whiteSpace=wrap;html=1;rounded=1;strokeColor=#333333;strokeWidth=0.8;fontSize=13;fontColor=#333333;" vertex="1" parent="1">
          <mxGeometry x="4697.704435318275" y="1364.1805555555554" width="129.60985626283366" height="91.11111111111111" as="geometry" />
        </mxCell>
        <mxCell id="_wyRR_9sv9Ona-ReKIE4-339" style="edgeStyle=orthogonalEdgeStyle;rounded=1;orthogonalLoop=1;jettySize=auto;html=1;exitX=0.5;exitY=1;exitDx=0;exitDy=0;" edge="1" parent="1" source="_wyRR_9sv9Ona-ReKIE4-387" target="_wyRR_9sv9Ona-ReKIE4-338">
          <mxGeometry relative="1" as="geometry">
            <Array as="points">
              <mxPoint x="5356.554537987679" y="1306.6666666666665" />
              <mxPoint x="4762.509363449692" y="1306.6666666666665" />
            </Array>
          </mxGeometry>
        </mxCell>
        <mxCell id="_wyRR_9sv9Ona-ReKIE4-340" value="Rifleman" style="ellipse;whiteSpace=wrap;html=1;rounded=1;strokeColor=#333333;strokeWidth=0.8;fontSize=13;fontColor=#333333;" vertex="1" parent="1">
          <mxGeometry x="4892.119219712526" y="1364.1805555555554" width="129.60985626283366" height="91.11111111111111" as="geometry" />
        </mxCell>
        <mxCell id="_wyRR_9sv9Ona-ReKIE4-341" style="edgeStyle=orthogonalEdgeStyle;rounded=1;orthogonalLoop=1;jettySize=auto;html=1;exitX=0.5;exitY=1;exitDx=0;exitDy=0;entryX=0.5;entryY=0;entryDx=0;entryDy=0;" edge="1" parent="1" source="_wyRR_9sv9Ona-ReKIE4-387" target="_wyRR_9sv9Ona-ReKIE4-340">
          <mxGeometry relative="1" as="geometry">
            <Array as="points">
              <mxPoint x="5356.554537987679" y="1306.6666666666665" />
              <mxPoint x="4956.924147843943" y="1306.6666666666665" />
            </Array>
          </mxGeometry>
        </mxCell>
        <mxCell id="_wyRR_9sv9Ona-ReKIE4-342" value="Heavy" style="ellipse;whiteSpace=wrap;html=1;rounded=1;strokeColor=#333333;strokeWidth=0.8;fontSize=13;fontColor=#333333;" vertex="1" parent="1">
          <mxGeometry x="5086.534004106776" y="1364.1805555555554" width="129.60985626283366" height="91.11111111111111" as="geometry" />
        </mxCell>
        <mxCell id="_wyRR_9sv9Ona-ReKIE4-343" style="edgeStyle=orthogonalEdgeStyle;rounded=1;orthogonalLoop=1;jettySize=auto;html=1;exitX=0.5;exitY=1;exitDx=0;exitDy=0;entryX=0.5;entryY=0;entryDx=0;entryDy=0;" edge="1" parent="1" source="_wyRR_9sv9Ona-ReKIE4-387" target="_wyRR_9sv9Ona-ReKIE4-342">
          <mxGeometry relative="1" as="geometry">
            <Array as="points">
              <mxPoint x="5356.554537987679" y="1306.6666666666665" />
              <mxPoint x="5151.338932238193" y="1306.6666666666665" />
            </Array>
          </mxGeometry>
        </mxCell>
        <mxCell id="_wyRR_9sv9Ona-ReKIE4-344" value="Grunt" style="ellipse;whiteSpace=wrap;html=1;rounded=1;strokeColor=#333333;strokeWidth=0.8;fontSize=13;fontColor=#333333;" vertex="1" parent="1">
          <mxGeometry x="5270.14796714579" y="1364.1805555555554" width="129.60985626283366" height="91.11111111111111" as="geometry" />
        </mxCell>
        <mxCell id="_wyRR_9sv9Ona-ReKIE4-345" style="edgeStyle=orthogonalEdgeStyle;rounded=1;orthogonalLoop=1;jettySize=auto;html=1;exitX=0.5;exitY=1;exitDx=0;exitDy=0;entryX=0.5;entryY=0;entryDx=0;entryDy=0;" edge="1" parent="1" source="_wyRR_9sv9Ona-ReKIE4-387" target="_wyRR_9sv9Ona-ReKIE4-344">
          <mxGeometry relative="1" as="geometry">
            <Array as="points">
              <mxPoint x="5356.554537987679" y="1306.6666666666665" />
              <mxPoint x="5334.952895277207" y="1306.6666666666665" />
            </Array>
          </mxGeometry>
        </mxCell>
        <mxCell id="_wyRR_9sv9Ona-ReKIE4-346" value="Shield" style="ellipse;whiteSpace=wrap;html=1;rounded=1;strokeColor=#333333;strokeWidth=0.8;fontSize=13;fontColor=#333333;" vertex="1" parent="1">
          <mxGeometry x="4319.67568788501" y="1364.1805555555554" width="129.60985626283366" height="91.11111111111111" as="geometry" />
        </mxCell>
        <mxCell id="_wyRR_9sv9Ona-ReKIE4-347" style="edgeStyle=orthogonalEdgeStyle;rounded=1;orthogonalLoop=1;jettySize=auto;html=1;exitX=0.5;exitY=1;exitDx=0;exitDy=0;entryX=0.5;entryY=0;entryDx=0;entryDy=0;" edge="1" parent="1" source="_wyRR_9sv9Ona-ReKIE4-387" target="_wyRR_9sv9Ona-ReKIE4-346">
          <mxGeometry relative="1" as="geometry">
            <Array as="points">
              <mxPoint x="5356.554537987679" y="1306.6666666666665" />
              <mxPoint x="4384.480616016426" y="1306.6666666666665" />
            </Array>
          </mxGeometry>
        </mxCell>
        <mxCell id="_wyRR_9sv9Ona-ReKIE4-348" value="Leader" style="ellipse;whiteSpace=wrap;html=1;rounded=1;strokeColor=#333333;strokeWidth=0.8;fontSize=13;fontColor=#333333;" vertex="1" parent="1">
          <mxGeometry x="4017.2526899383984" y="1360.763888888889" width="129.60985626283366" height="91.11111111111111" as="geometry" />
        </mxCell>
        <mxCell id="_wyRR_9sv9Ona-ReKIE4-349" style="edgeStyle=orthogonalEdgeStyle;rounded=1;orthogonalLoop=1;jettySize=auto;html=1;exitX=0.5;exitY=1;exitDx=0;exitDy=0;entryX=0.5;entryY=0;entryDx=0;entryDy=0;" edge="1" parent="1" source="_wyRR_9sv9Ona-ReKIE4-387" target="_wyRR_9sv9Ona-ReKIE4-348">
          <mxGeometry relative="1" as="geometry">
            <Array as="points">
              <mxPoint x="5356.554537987679" y="1306.6666666666665" />
              <mxPoint x="4082.0576180698154" y="1306.6666666666665" />
            </Array>
          </mxGeometry>
        </mxCell>
        <mxCell id="_wyRR_9sv9Ona-ReKIE4-350" value="Office Evidence" style="shape=hexagon;perimeter=hexagonPerimeter2;whiteSpace=wrap;html=1;fixedSize=1;rounded=1;strokeWidth=1;" vertex="1" parent="1">
          <mxGeometry x="3747.2321560574946" y="1363.611111111111" width="129.60985626283366" height="91.11111111111111" as="geometry" />
        </mxCell>
        <mxCell id="_wyRR_9sv9Ona-ReKIE4-351" value="Skyscraper Lead 1" style="rhombus;whiteSpace=wrap;html=1;rounded=0;strokeWidth=1;" vertex="1" parent="1">
          <mxGeometry x="3747.2321560574946" y="1739.4444444444443" width="129.60985626283366" height="91.11111111111111" as="geometry" />
        </mxCell>
        <mxCell id="_wyRR_9sv9Ona-ReKIE4-352" style="edgeStyle=orthogonalEdgeStyle;rounded=1;orthogonalLoop=1;jettySize=auto;html=1;exitX=0.5;exitY=1;exitDx=0;exitDy=0;entryX=0.5;entryY=0;entryDx=0;entryDy=0;" edge="1" parent="1" source="_wyRR_9sv9Ona-ReKIE4-350" target="_wyRR_9sv9Ona-ReKIE4-351">
          <mxGeometry relative="1" as="geometry" />
        </mxCell>
        <mxCell id="_wyRR_9sv9Ona-ReKIE4-353" style="edgeStyle=orthogonalEdgeStyle;rounded=1;orthogonalLoop=1;jettySize=auto;html=1;exitX=0.5;exitY=1;exitDx=0;exitDy=0;" edge="1" parent="1" source="_wyRR_9sv9Ona-ReKIE4-354">
          <mxGeometry relative="1" as="geometry">
            <mxPoint x="3952.4477618069814" y="1955.8333333333333" as="targetPoint" />
          </mxGeometry>
        </mxCell>
        <mxCell id="_wyRR_9sv9Ona-ReKIE4-354" value="Skyscraper Lead 2" style="rhombus;whiteSpace=wrap;html=1;rounded=0;strokeWidth=1;" vertex="1" parent="1">
          <mxGeometry x="4017.2526899383984" y="1739.4444444444443" width="129.60985626283366" height="91.11111111111111" as="geometry" />
        </mxCell>
        <mxCell id="_wyRR_9sv9Ona-ReKIE4-355" style="edgeStyle=orthogonalEdgeStyle;rounded=1;orthogonalLoop=1;jettySize=auto;html=1;exitX=0.5;exitY=1;exitDx=0;exitDy=0;entryX=0.5;entryY=0;entryDx=0;entryDy=0;dashed=1;" edge="1" parent="1" source="_wyRR_9sv9Ona-ReKIE4-348" target="_wyRR_9sv9Ona-ReKIE4-354">
          <mxGeometry relative="1" as="geometry" />
        </mxCell>
        <mxCell id="_wyRR_9sv9Ona-ReKIE4-356" value="&lt;font style=&quot;font-size: 13px&quot;&gt;Either One Leader Interrogation or 3 Soldier ones&lt;/font&gt;" style="edgeLabel;html=1;align=center;verticalAlign=middle;resizable=0;points=[];" vertex="1" connectable="0" parent="_wyRR_9sv9Ona-ReKIE4-355">
          <mxGeometry x="-0.1168" y="2" relative="1" as="geometry">
            <mxPoint as="offset" />
          </mxGeometry>
        </mxCell>
        <mxCell id="_wyRR_9sv9Ona-ReKIE4-357" style="edgeStyle=orthogonalEdgeStyle;rounded=1;orthogonalLoop=1;jettySize=auto;html=1;exitX=0.5;exitY=1;exitDx=0;exitDy=0;entryX=0.5;entryY=0;entryDx=0;entryDy=0;dashed=1;" edge="1" parent="1" source="_wyRR_9sv9Ona-ReKIE4-358" target="_wyRR_9sv9Ona-ReKIE4-354">
          <mxGeometry relative="1" as="geometry" />
        </mxCell>
        <mxCell id="_wyRR_9sv9Ona-ReKIE4-358" value="Interrogation 1" style="rhombus;whiteSpace=wrap;html=1;rounded=0;strokeWidth=1;" vertex="1" parent="1">
          <mxGeometry x="4524.891293634497" y="1557.2222222222222" width="129.60985626283366" height="91.11111111111111" as="geometry" />
        </mxCell>
        <mxCell id="_wyRR_9sv9Ona-ReKIE4-359" style="edgeStyle=orthogonalEdgeStyle;rounded=1;orthogonalLoop=1;jettySize=auto;html=1;exitX=0.5;exitY=1;exitDx=0;exitDy=0;entryX=0.5;entryY=0;entryDx=0;entryDy=0;dashed=1;" edge="1" parent="1" source="_wyRR_9sv9Ona-ReKIE4-336" target="_wyRR_9sv9Ona-ReKIE4-358">
          <mxGeometry relative="1" as="geometry" />
        </mxCell>
        <mxCell id="_wyRR_9sv9Ona-ReKIE4-360" style="edgeStyle=orthogonalEdgeStyle;rounded=1;orthogonalLoop=1;jettySize=auto;html=1;exitX=0.5;exitY=1;exitDx=0;exitDy=0;entryX=0.5;entryY=0;entryDx=0;entryDy=0;dashed=1;" edge="1" parent="1" source="_wyRR_9sv9Ona-ReKIE4-338" target="_wyRR_9sv9Ona-ReKIE4-358">
          <mxGeometry relative="1" as="geometry">
            <Array as="points">
              <mxPoint x="4762.509363449692" y="1466.111111111111" />
              <mxPoint x="4740.907720739219" y="1466.111111111111" />
              <mxPoint x="4740.907720739219" y="1505.9722222222222" />
              <mxPoint x="4589.696221765914" y="1505.9722222222222" />
            </Array>
          </mxGeometry>
        </mxCell>
        <mxCell id="_wyRR_9sv9Ona-ReKIE4-361" style="edgeStyle=orthogonalEdgeStyle;rounded=1;orthogonalLoop=1;jettySize=auto;html=1;exitX=0.5;exitY=1;exitDx=0;exitDy=0;entryX=0.5;entryY=0;entryDx=0;entryDy=0;dashed=1;" edge="1" parent="1" source="_wyRR_9sv9Ona-ReKIE4-340" target="_wyRR_9sv9Ona-ReKIE4-358">
          <mxGeometry relative="1" as="geometry" />
        </mxCell>
        <mxCell id="_wyRR_9sv9Ona-ReKIE4-362" style="edgeStyle=orthogonalEdgeStyle;rounded=1;orthogonalLoop=1;jettySize=auto;html=1;exitX=0.5;exitY=1;exitDx=0;exitDy=0;entryX=0.5;entryY=0;entryDx=0;entryDy=0;dashed=1;" edge="1" parent="1" source="_wyRR_9sv9Ona-ReKIE4-342" target="_wyRR_9sv9Ona-ReKIE4-358">
          <mxGeometry relative="1" as="geometry" />
        </mxCell>
        <mxCell id="_wyRR_9sv9Ona-ReKIE4-363" style="edgeStyle=orthogonalEdgeStyle;rounded=1;orthogonalLoop=1;jettySize=auto;html=1;exitX=0.5;exitY=1;exitDx=0;exitDy=0;entryX=0.5;entryY=0;entryDx=0;entryDy=0;dashed=1;" edge="1" parent="1" source="_wyRR_9sv9Ona-ReKIE4-344" target="_wyRR_9sv9Ona-ReKIE4-358">
          <mxGeometry relative="1" as="geometry" />
        </mxCell>
        <mxCell id="_wyRR_9sv9Ona-ReKIE4-364" style="edgeStyle=orthogonalEdgeStyle;rounded=1;orthogonalLoop=1;jettySize=auto;html=1;exitX=0.5;exitY=1;exitDx=0;exitDy=0;dashed=1;" edge="1" parent="1" source="_wyRR_9sv9Ona-ReKIE4-346" target="_wyRR_9sv9Ona-ReKIE4-358">
          <mxGeometry relative="1" as="geometry" />
        </mxCell>
        <mxCell id="_wyRR_9sv9Ona-ReKIE4-365" style="edgeStyle=orthogonalEdgeStyle;rounded=1;orthogonalLoop=1;jettySize=auto;html=1;exitX=0.5;exitY=1;exitDx=0;exitDy=0;dashed=1;" edge="1" parent="1" source="_wyRR_9sv9Ona-ReKIE4-366" target="_wyRR_9sv9Ona-ReKIE4-354">
          <mxGeometry relative="1" as="geometry" />
        </mxCell>
        <mxCell id="_wyRR_9sv9Ona-ReKIE4-366" value="Interrogation 2" style="rhombus;whiteSpace=wrap;html=1;rounded=0;strokeWidth=1;" vertex="1" parent="1">
          <mxGeometry x="4697.704435318275" y="1557.2222222222222" width="129.60985626283366" height="91.11111111111111" as="geometry" />
        </mxCell>
        <mxCell id="_wyRR_9sv9Ona-ReKIE4-367" style="edgeStyle=orthogonalEdgeStyle;rounded=1;orthogonalLoop=1;jettySize=auto;html=1;exitX=0.5;exitY=1;exitDx=0;exitDy=0;dashed=1;" edge="1" parent="1" source="_wyRR_9sv9Ona-ReKIE4-336" target="_wyRR_9sv9Ona-ReKIE4-366">
          <mxGeometry relative="1" as="geometry" />
        </mxCell>
        <mxCell id="_wyRR_9sv9Ona-ReKIE4-368" style="edgeStyle=orthogonalEdgeStyle;rounded=1;orthogonalLoop=1;jettySize=auto;html=1;exitX=0.5;exitY=1;exitDx=0;exitDy=0;entryX=0.5;entryY=0;entryDx=0;entryDy=0;dashed=1;" edge="1" parent="1" source="_wyRR_9sv9Ona-ReKIE4-336" target="_wyRR_9sv9Ona-ReKIE4-366">
          <mxGeometry relative="1" as="geometry">
            <Array as="points">
              <mxPoint x="4578.895400410677" y="1466.111111111111" />
              <mxPoint x="4600.4970431211495" y="1466.111111111111" />
              <mxPoint x="4600.4970431211495" y="1507.111111111111" />
              <mxPoint x="4762.509363449692" y="1507.111111111111" />
            </Array>
          </mxGeometry>
        </mxCell>
        <mxCell id="_wyRR_9sv9Ona-ReKIE4-369" style="edgeStyle=orthogonalEdgeStyle;rounded=1;orthogonalLoop=1;jettySize=auto;html=1;exitX=0.5;exitY=1;exitDx=0;exitDy=0;entryX=0.5;entryY=0;entryDx=0;entryDy=0;dashed=1;" edge="1" parent="1" source="_wyRR_9sv9Ona-ReKIE4-338" target="_wyRR_9sv9Ona-ReKIE4-366">
          <mxGeometry relative="1" as="geometry" />
        </mxCell>
        <mxCell id="_wyRR_9sv9Ona-ReKIE4-370" value="&lt;font style=&quot;font-size: 13px&quot;&gt;One granted every time researched&lt;/font&gt;" style="edgeLabel;html=1;align=center;verticalAlign=middle;resizable=0;points=[];" vertex="1" connectable="0" parent="_wyRR_9sv9Ona-ReKIE4-369">
          <mxGeometry x="-0.2737" y="-2" relative="1" as="geometry">
            <mxPoint as="offset" />
          </mxGeometry>
        </mxCell>
        <mxCell id="_wyRR_9sv9Ona-ReKIE4-371" style="edgeStyle=orthogonalEdgeStyle;rounded=1;orthogonalLoop=1;jettySize=auto;html=1;exitX=0.5;exitY=1;exitDx=0;exitDy=0;entryX=0.5;entryY=0;entryDx=0;entryDy=0;dashed=1;" edge="1" parent="1" source="_wyRR_9sv9Ona-ReKIE4-340" target="_wyRR_9sv9Ona-ReKIE4-366">
          <mxGeometry relative="1" as="geometry">
            <Array as="points">
              <mxPoint x="4956.924147843943" y="1466.111111111111" />
              <mxPoint x="4978.525790554415" y="1466.111111111111" />
              <mxPoint x="4978.525790554415" y="1505.9722222222222" />
              <mxPoint x="4762.509363449692" y="1505.9722222222222" />
            </Array>
          </mxGeometry>
        </mxCell>
        <mxCell id="_wyRR_9sv9Ona-ReKIE4-372" style="edgeStyle=orthogonalEdgeStyle;rounded=1;orthogonalLoop=1;jettySize=auto;html=1;exitX=0.5;exitY=1;exitDx=0;exitDy=0;entryX=0.5;entryY=0;entryDx=0;entryDy=0;dashed=1;" edge="1" parent="1" source="_wyRR_9sv9Ona-ReKIE4-342" target="_wyRR_9sv9Ona-ReKIE4-366">
          <mxGeometry relative="1" as="geometry">
            <Array as="points">
              <mxPoint x="5151.338932238193" y="1466.111111111111" />
              <mxPoint x="5172.940574948665" y="1466.111111111111" />
              <mxPoint x="5172.940574948665" y="1505.9722222222222" />
              <mxPoint x="4762.509363449692" y="1505.9722222222222" />
            </Array>
          </mxGeometry>
        </mxCell>
        <mxCell id="_wyRR_9sv9Ona-ReKIE4-373" style="edgeStyle=orthogonalEdgeStyle;rounded=1;orthogonalLoop=1;jettySize=auto;html=1;exitX=0.5;exitY=1;exitDx=0;exitDy=0;entryX=0.5;entryY=0;entryDx=0;entryDy=0;dashed=1;" edge="1" parent="1" source="_wyRR_9sv9Ona-ReKIE4-344" target="_wyRR_9sv9Ona-ReKIE4-366">
          <mxGeometry relative="1" as="geometry">
            <Array as="points">
              <mxPoint x="5334.952895277207" y="1466.111111111111" />
              <mxPoint x="5356.554537987679" y="1466.111111111111" />
              <mxPoint x="5356.554537987679" y="1505.9722222222222" />
              <mxPoint x="4762.509363449692" y="1505.9722222222222" />
            </Array>
          </mxGeometry>
        </mxCell>
        <mxCell id="_wyRR_9sv9Ona-ReKIE4-374" style="edgeStyle=orthogonalEdgeStyle;rounded=1;orthogonalLoop=1;jettySize=auto;html=1;exitX=0.5;exitY=1;exitDx=0;exitDy=0;dashed=1;" edge="1" parent="1" source="_wyRR_9sv9Ona-ReKIE4-346" target="_wyRR_9sv9Ona-ReKIE4-366">
          <mxGeometry relative="1" as="geometry">
            <Array as="points">
              <mxPoint x="4384.480616016426" y="1466.111111111111" />
              <mxPoint x="4406.082258726899" y="1466.111111111111" />
              <mxPoint x="4406.082258726899" y="1505.9722222222222" />
              <mxPoint x="4762.509363449692" y="1505.9722222222222" />
            </Array>
          </mxGeometry>
        </mxCell>
        <mxCell id="_wyRR_9sv9Ona-ReKIE4-375" style="edgeStyle=orthogonalEdgeStyle;rounded=1;orthogonalLoop=1;jettySize=auto;html=1;exitX=0.5;exitY=1;exitDx=0;exitDy=0;entryX=0.5;entryY=0;entryDx=0;entryDy=0;dashed=1;" edge="1" parent="1" source="_wyRR_9sv9Ona-ReKIE4-376" target="_wyRR_9sv9Ona-ReKIE4-354">
          <mxGeometry relative="1" as="geometry" />
        </mxCell>
        <mxCell id="_wyRR_9sv9Ona-ReKIE4-376" value="Interrogation 3" style="rhombus;whiteSpace=wrap;html=1;rounded=0;strokeWidth=1;" vertex="1" parent="1">
          <mxGeometry x="4870.517577002053" y="1557.2222222222222" width="129.60985626283366" height="91.11111111111111" as="geometry" />
        </mxCell>
        <mxCell id="_wyRR_9sv9Ona-ReKIE4-377" style="edgeStyle=orthogonalEdgeStyle;rounded=1;orthogonalLoop=1;jettySize=auto;html=1;exitX=0.5;exitY=1;exitDx=0;exitDy=0;dashed=1;" edge="1" parent="1" source="_wyRR_9sv9Ona-ReKIE4-336" target="_wyRR_9sv9Ona-ReKIE4-376">
          <mxGeometry relative="1" as="geometry">
            <Array as="points">
              <mxPoint x="4578.895400410677" y="1466.111111111111" />
              <mxPoint x="4557.293757700205" y="1466.111111111111" />
              <mxPoint x="4557.293757700205" y="1507.111111111111" />
              <mxPoint x="4935.32250513347" y="1507.111111111111" />
            </Array>
          </mxGeometry>
        </mxCell>
        <mxCell id="_wyRR_9sv9Ona-ReKIE4-378" style="edgeStyle=orthogonalEdgeStyle;rounded=1;orthogonalLoop=1;jettySize=auto;html=1;exitX=0.5;exitY=1;exitDx=0;exitDy=0;entryX=0.5;entryY=0;entryDx=0;entryDy=0;dashed=1;" edge="1" parent="1" source="_wyRR_9sv9Ona-ReKIE4-338" target="_wyRR_9sv9Ona-ReKIE4-376">
          <mxGeometry relative="1" as="geometry">
            <Array as="points">
              <mxPoint x="4762.509363449692" y="1466.111111111111" />
              <mxPoint x="4784.111006160164" y="1466.111111111111" />
              <mxPoint x="4784.111006160164" y="1505.9722222222222" />
              <mxPoint x="4935.32250513347" y="1505.9722222222222" />
            </Array>
          </mxGeometry>
        </mxCell>
        <mxCell id="_wyRR_9sv9Ona-ReKIE4-379" style="edgeStyle=orthogonalEdgeStyle;rounded=1;orthogonalLoop=1;jettySize=auto;html=1;exitX=0.5;exitY=1;exitDx=0;exitDy=0;entryX=0.5;entryY=0;entryDx=0;entryDy=0;dashed=1;" edge="1" parent="1" source="_wyRR_9sv9Ona-ReKIE4-340" target="_wyRR_9sv9Ona-ReKIE4-376">
          <mxGeometry relative="1" as="geometry">
            <Array as="points">
              <mxPoint x="4956.924147843943" y="1466.111111111111" />
              <mxPoint x="4935.32250513347" y="1466.111111111111" />
            </Array>
          </mxGeometry>
        </mxCell>
        <mxCell id="_wyRR_9sv9Ona-ReKIE4-380" style="edgeStyle=orthogonalEdgeStyle;rounded=1;orthogonalLoop=1;jettySize=auto;html=1;exitX=0.5;exitY=1;exitDx=0;exitDy=0;entryX=0.5;entryY=0;entryDx=0;entryDy=0;dashed=1;" edge="1" parent="1" source="_wyRR_9sv9Ona-ReKIE4-342" target="_wyRR_9sv9Ona-ReKIE4-376">
          <mxGeometry relative="1" as="geometry">
            <Array as="points">
              <mxPoint x="5151.338932238193" y="1466.111111111111" />
              <mxPoint x="5129.73728952772" y="1466.111111111111" />
              <mxPoint x="5129.73728952772" y="1505.9722222222222" />
              <mxPoint x="4935.32250513347" y="1505.9722222222222" />
            </Array>
          </mxGeometry>
        </mxCell>
        <mxCell id="_wyRR_9sv9Ona-ReKIE4-381" style="edgeStyle=orthogonalEdgeStyle;rounded=1;orthogonalLoop=1;jettySize=auto;html=1;exitX=0.5;exitY=1;exitDx=0;exitDy=0;entryX=0.5;entryY=0;entryDx=0;entryDy=0;dashed=1;" edge="1" parent="1" source="_wyRR_9sv9Ona-ReKIE4-344" target="_wyRR_9sv9Ona-ReKIE4-376">
          <mxGeometry relative="1" as="geometry">
            <Array as="points">
              <mxPoint x="5334.952895277207" y="1466.111111111111" />
              <mxPoint x="5313.351252566735" y="1466.111111111111" />
              <mxPoint x="5313.351252566735" y="1505.9722222222222" />
              <mxPoint x="4935.32250513347" y="1505.9722222222222" />
            </Array>
          </mxGeometry>
        </mxCell>
        <mxCell id="_wyRR_9sv9Ona-ReKIE4-382" style="edgeStyle=orthogonalEdgeStyle;rounded=1;orthogonalLoop=1;jettySize=auto;html=1;exitX=0.5;exitY=1;exitDx=0;exitDy=0;dashed=1;" edge="1" parent="1" source="_wyRR_9sv9Ona-ReKIE4-346" target="_wyRR_9sv9Ona-ReKIE4-376">
          <mxGeometry relative="1" as="geometry">
            <Array as="points">
              <mxPoint x="4384.480616016426" y="1466.111111111111" />
              <mxPoint x="4362.878973305955" y="1466.111111111111" />
              <mxPoint x="4362.878973305955" y="1505.9722222222222" />
              <mxPoint x="4935.32250513347" y="1505.9722222222222" />
            </Array>
          </mxGeometry>
        </mxCell>
        <mxCell id="_wyRR_9sv9Ona-ReKIE4-383" value="&lt;b&gt;&lt;font style=&quot;font-size: 16px&quot;&gt;Terrorist Interrogations&lt;/font&gt;&lt;/b&gt;" style="text;html=1;align=center;verticalAlign=middle;resizable=0;points=[];autosize=1;" vertex="1" parent="1">
          <mxGeometry x="4616.698275154004" y="126.20833333333331" width="190" height="20" as="geometry" />
        </mxCell>
        <mxCell id="_wyRR_9sv9Ona-ReKIE4-384" value="&lt;b&gt;&lt;font style=&quot;font-size: 16px&quot;&gt;Private Security Interrogations&lt;/font&gt;&lt;/b&gt;" style="text;whiteSpace=wrap;html=1;" vertex="1" parent="1">
          <mxGeometry x="4708.505256673511" y="1204.1666666666665" width="216.01642710472277" height="34.166666666666664" as="geometry" />
        </mxCell>
        <mxCell id="_wyRR_9sv9Ona-ReKIE4-385" value="Skyscraper Raid" style="shape=parallelogram;perimeter=parallelogramPerimeter;whiteSpace=wrap;html=1;fixedSize=1;rounded=1;strokeWidth=1;" vertex="1" parent="1">
          <mxGeometry x="3887.6428336755644" y="1955.8333333333333" width="129.60985626283366" height="68.33333333333333" as="geometry" />
        </mxCell>
        <mxCell id="_wyRR_9sv9Ona-ReKIE4-386" style="edgeStyle=orthogonalEdgeStyle;rounded=1;orthogonalLoop=1;jettySize=auto;html=1;exitX=0.5;exitY=1;exitDx=0;exitDy=0;" edge="1" parent="1" source="_wyRR_9sv9Ona-ReKIE4-351" target="_wyRR_9sv9Ona-ReKIE4-385">
          <mxGeometry relative="1" as="geometry" />
        </mxCell>
        <UserObject label="Intelligence Gathering" lucidchartObjectId="3d0dxhKkY.PO" id="_wyRR_9sv9Ona-ReKIE4-387">
          <mxCell style="html=1;overflow=block;blockSpacing=1;whiteSpace=wrap;rhombus;whiteSpace=wrap;fontSize=13;fontColor=#333333;align=center;spacing=3.8;strokeColor=#333333;strokeOpacity=100;fillOpacity=100;rounded=1;absoluteArcSize=1;arcSize=12;fillColor=#ffffff;strokeWidth=0.8;" vertex="1" parent="1">
            <mxGeometry x="5291.749609856262" y="8.333333333333329" width="129.60985626283366" height="102.5" as="geometry" />
          </mxCell>
        </UserObject>
        <mxCell id="_wyRR_9sv9Ona-ReKIE4-388" style="edgeStyle=orthogonalEdgeStyle;orthogonalLoop=1;jettySize=auto;html=1;exitX=0.5;exitY=1;exitDx=0;exitDy=0;fontSize=13;fontColor=#333333;entryX=0.5;entryY=0;entryDx=0;entryDy=0;" edge="1" parent="1" source="_wyRR_9sv9Ona-ReKIE4-314" target="_wyRR_9sv9Ona-ReKIE4-111">
          <mxGeometry relative="1" as="geometry">
            <Array as="points">
              <mxPoint x="3845" y="1113" />
              <mxPoint x="-261" y="1113" />
              <mxPoint x="-261" y="1580" />
              <mxPoint x="-455" y="1580" />
            </Array>
            <mxPoint x="-260.7597535934292" y="1283.888888888889" as="targetPoint" />
          </mxGeometry>
        </mxCell>
        <mxCell id="_wyRR_9sv9Ona-ReKIE4-389" style="edgeStyle=orthogonalEdgeStyle;orthogonalLoop=1;jettySize=auto;html=1;exitX=0.5;exitY=1;exitDx=0;exitDy=0;entryX=0.5;entryY=0;entryDx=0;entryDy=0;fontSize=13;fontColor=#333333;" edge="1" parent="1" source="_wyRR_9sv9Ona-ReKIE4-314" target="_wyRR_9sv9Ona-ReKIE4-86">
          <mxGeometry relative="1" as="geometry" />
        </mxCell>
        <mxCell id="_wyRR_9sv9Ona-ReKIE4-390" style="edgeStyle=orthogonalEdgeStyle;rounded=1;orthogonalLoop=1;jettySize=auto;html=1;exitX=0.5;exitY=1;exitDx=0;exitDy=0;entryX=0.5;entryY=0;entryDx=0;entryDy=0;" edge="1" parent="1" source="_wyRR_9sv9Ona-ReKIE4-332" target="_wyRR_9sv9Ona-ReKIE4-129">
          <mxGeometry relative="1" as="geometry">
            <Array as="points">
              <mxPoint x="3250" y="1443" />
              <mxPoint x="3250" y="2350" />
              <mxPoint x="1456" y="2350" />
            </Array>
          </mxGeometry>
        </mxCell>
      </root>
    </mxGraphModel>
  </diagram>
</mxfile>
